<svg width="136" height="139" viewBox="0 0 136 139" fill="none" xmlns="http://www.w3.org/2000/svg">
<g id="Group 7964">
<g id="Ellipse 3" filter="url(#filter0_f_32_4365)">
<ellipse cx="68" cy="69.7872" rx="42" ry="43.7872" fill="#6347EB" fill-opacity="0.32"/>
</g>
<ellipse id="Ellipse 7" cx="68" cy="81.7872" rx="42" ry="43.7872" fill="#4141A5"/>
<path id="Vector" d="M85.0414 93.2613C84.3854 93.5544 82.218 94.4339 78.5393 95.8996C74.8606 97.3653 72.412 98.4523 71.1936 99.1607C71.0061 99.2585 70.6781 99.405 70.2095 99.6005C70.1392 99.8692 70.0044 100.095 69.8053 100.278C69.6061 100.462 69.3777 100.553 69.1199 100.553H66.8705C66.6128 100.553 66.3843 100.462 66.1851 100.278C65.986 100.095 65.8512 99.8692 65.781 99.6005C65.3123 99.405 64.9843 99.2585 64.7968 99.1607C63.5784 98.4523 61.124 97.3653 57.4336 95.8996C53.7431 94.4339 51.5816 93.5544 50.949 93.2613C50.6912 93.1392 50.4686 92.9254 50.2812 92.6201C50.0937 92.3147 50 92.0032 50 91.6857V66.2191C50 65.8771 50.0937 65.6329 50.2812 65.4863C50.4686 65.3397 50.6912 65.3275 50.949 65.4496C52.144 65.9871 53.4913 66.7016 54.9909 67.5932C56.4905 68.4849 57.6327 69.1933 58.4177 69.7185C59.2026 70.2437 60.5792 71.1781 62.5474 72.5216C63.2504 73.0102 64.3165 73.4011 65.7458 73.6942V73.5843C65.7458 73.2667 65.8571 72.9919 66.0797 72.7598C66.3023 72.5277 66.5659 72.4117 66.8705 72.4117H69.1199C69.4245 72.4117 69.6881 72.5277 69.9107 72.7598C70.1333 72.9919 70.2446 73.2667 70.2446 73.5843V73.6942C71.6739 73.4011 72.74 73.0102 73.443 72.5216C75.4112 71.1781 76.7878 70.2437 77.5727 69.7185C78.3577 69.1933 79.5 68.4849 80.9996 67.5932C82.4992 66.7016 83.8465 65.9871 85.0414 65.4496C85.2992 65.3275 85.5218 65.3397 85.7092 65.4863C85.8967 65.6329 85.9904 65.8771 85.9904 66.2191V91.6857C85.9904 92.0032 85.8967 92.3147 85.7092 92.6201C85.5218 92.9254 85.2992 93.1392 85.0414 93.2613ZM71.3693 70.0666H71.1584C74.3451 67.1352 77.52 64.8145 80.6832 63.1045C80.9175 62.9824 81.1109 62.9946 81.2632 63.1412C81.4155 63.2877 81.4916 63.532 81.4916 63.874V64.9C78.4221 66.3901 75.3526 68.2833 72.2831 70.5796C72.0488 70.2376 71.7442 70.0666 71.3693 70.0666ZM63.7073 70.5796C60.6378 68.2833 57.5683 66.3901 54.4988 64.9V63.874C54.4988 63.532 54.575 63.2877 54.7273 63.1412C54.8796 62.9946 55.0729 62.9824 55.3072 63.1045C58.4704 64.8145 61.6453 67.1352 64.832 70.0666H64.6211C64.2462 70.0666 63.9416 70.2376 63.7073 70.5796Z" fill="#F3F1FD"/>
</g>
<defs>
<filter id="filter0_f_32_4365" x="0.799999" y="0.799999" width="134.4" height="137.974" filterUnits="userSpaceOnUse" color-interpolation-filters="sRGB">
<feFlood flood-opacity="0" result="BackgroundImageFix"/>
<feBlend mode="normal" in="SourceGraphic" in2="BackgroundImageFix" result="shape"/>
<feGaussianBlur stdDeviation="12.6" result="effect1_foregroundBlur_32_4365"/>
</filter>
</defs>
</svg>
