<svg width="340" height="465" viewBox="0 0 340 465" fill="none" xmlns="http://www.w3.org/2000/svg">
<mask id="mask0_1_4251" style="mask-type:alpha" maskUnits="userSpaceOnUse" x="0" y="0" width="340" height="465">
<rect y="0.313721" width="340" height="464" rx="30" fill="#35313E"/>
</mask>
<g mask="url(#mask0_1_4251)">
<path d="M358.73 -0.686157H-18V464.314H358.73V-0.686157Z" fill="url(#paint0_linear_1_4251)"/>
<path d="M-1.91248 294.082V373.983H276.582V315.887L271.189 320.444V334.018L265.175 339.1V349.49H259.757V296.321H253.718V306.104H244.658V317.163H230.061V329.447H216.975V284.482H208.301V313.761H202.144V347.359H191.824V361.82H177.182V371.177H154.556V314.257L143.44 304.864V329.964H137.333V343.683H128.894V308.232L120.464 301.106L113.8 306.739V326.751L104.517 334.597V350.769H98.3932V329.964H92.1593V343.683H76.2129V351.636H46.8922L41.9118 347.426H33.6535V329.45H22.1934V323.383H9.60966V294.867L-1.91248 294.082Z" fill="url(#paint1_linear_1_4251)"/>
<path d="M193.289 324.01L184.483 258.341L190.432 254.747V254.134H188.227V251.593H184.24V244.673H184.356L174.006 238.366V236.601H172.907V238.264L162.532 244.673H162.503V251.587H157.557V254.128H156.1V254.741L162.049 258.335L157.602 291.49L147.438 294.94V332.322H174.618L173.503 323.998H193.284L193.289 324.01ZM163.827 251.983H168.715V252.175H163.827V251.983ZM181.363 252.175V251.983H182.436V252.175H181.363ZM180.849 252.175H177.549V251.983H180.849V252.175ZM175.575 252.175H174.503V251.983H175.575V252.175ZM173.989 252.175H170.688V251.983H173.989V252.175ZM187.71 251.983V254.14H184.238V251.983H187.71ZM182.436 246.584V251.604H177.549V246.584H182.436ZM175.575 246.584V251.604H170.688V246.584H175.575ZM163.827 246.584H168.715V251.604H163.827V246.584ZM162.512 251.983V254.14H162.455V251.983H162.512ZM158.082 251.983H161.939V254.14H158.082V251.983Z" fill="url(#paint2_linear_1_4251)"/>
<path d="M358.733 292.854V393.464H-18V320.339L-10.7073 326.079V343.174L-2.57316 349.575V362.659H4.76761V295.685H12.9384V308.007H25.1947V321.934H44.9385V337.406H62.641V280.758H74.3721V317.648H82.701V359.965H96.6766V378.179H116.483V389.963H147.06V318.272L162.094 306.443V338.064H170.367V355.343H181.781V310.683L193.188 301.71L202.2 308.803V334.007L214.758 343.889V364.257H223.042V338.056H231.464V355.335H253.038V365.349H292.711L299.451 360.047H310.623V337.409H326.126V329.766H343.157V293.836L358.733 292.854Z" fill="url(#paint3_linear_1_4251)"/>
<path d="M345.754 333.665H344.043V332.146H326.538V311.869H326.713L321.436 300.372L319.226 305.172C316.721 290.716 309.172 280.115 300.171 279.674H299.756V272.5H303.779V271.726H299.756V268.443H299.312V271.726H295.332V272.5H299.312V279.683H299.013C290.413 280.103 283.137 289.802 280.323 303.275L278.987 300.367L273.702 311.869H273.764V332.152H255.426V333.671H253.422V337.31H255.426V365.38H344.049V337.31H345.76L345.754 333.665Z" fill="#895881"/>
<path d="M358.733 323.744L163.559 400.752H358.733V323.744Z" fill="#5B4168"/>
<path d="M358.73 385.545H-18V464.311H358.73V385.545Z" fill="#5B4168"/>
<path d="M141.721 347.726V334.882H136.486V347.726H127.923V334.882H122.652V347.726H99.5791V263.364L97.0917 249.439H96.177L94.4829 258.869V234.831H92.6929L86.1257 195.812H83.0906L76.5235 234.831H74.7335V258.869L73.0394 249.439H72.1247L69.6373 263.364V347.726H45.921V334.882H40.6724V347.726H32.1091V334.882H26.8605V347.726H-18V400.76H186.587V347.726H141.721Z" fill="#5B4168"/>
<path d="M89.6832 245.288C89.6827 246.354 89.3661 247.396 88.7735 248.282C88.1809 249.168 87.339 249.858 86.3541 250.266C85.3691 250.673 84.2855 250.78 83.2402 250.571C82.1949 250.363 81.2347 249.85 80.4812 249.096C79.7277 248.342 79.2147 247.381 79.0069 246.336C78.7992 245.291 78.9061 244.207 79.3142 243.222C79.7222 242.238 80.413 241.396 81.2993 240.804C82.1856 240.212 83.2276 239.896 84.2934 239.896C85.0015 239.896 85.7025 240.035 86.3566 240.306C87.0107 240.577 87.6051 240.975 88.1056 241.475C88.6061 241.976 89.003 242.571 89.2737 243.225C89.5444 243.879 89.6836 244.58 89.6832 245.288Z" fill="#C6A9B5"/>
</g>
<g filter="url(#filter0_b_1_4251)">
<rect x="37" y="361.314" width="267" height="72" rx="15" fill="black" fill-opacity="0.15"/>
<rect x="37.5" y="361.814" width="266" height="71" rx="14.5" stroke="url(#paint4_linear_1_4251)"/>
</g>
<path d="M95.2671 414.89C84.8511 414.89 77.0751 407.642 77.0751 397.514C77.0751 387.386 84.8511 380.138 95.3151 380.138C101.123 380.138 105.971 382.25 109.139 386.09L104.147 390.698C101.891 388.106 99.0591 386.762 95.6991 386.762C89.4111 386.762 84.9471 391.178 84.9471 397.514C84.9471 403.85 89.4111 408.266 95.6991 408.266C99.0591 408.266 101.891 406.922 104.147 404.282L109.139 408.89C105.971 412.778 101.123 414.89 95.2671 414.89ZM124.091 388.106C131.963 388.106 136.523 391.754 136.523 399.578V414.314H129.515V411.098C128.123 413.45 125.435 414.698 121.643 414.698C115.595 414.698 111.995 411.338 111.995 406.874C111.995 402.314 115.211 399.146 123.083 399.146H129.035C129.035 395.93 127.115 394.058 123.083 394.058C120.347 394.058 117.515 394.97 115.643 396.458L112.955 391.226C115.787 389.21 119.963 388.106 124.091 388.106ZM123.515 409.658C126.011 409.658 128.171 408.506 129.035 406.154V403.514H123.899C120.395 403.514 119.291 404.81 119.291 406.538C119.291 408.41 120.875 409.658 123.515 409.658ZM158.996 388.106C165.092 388.106 169.7 391.658 169.7 399.53V414.314H162.212V400.682C162.212 396.506 160.292 394.586 156.98 394.586C153.38 394.586 150.788 396.794 150.788 401.546V414.314H143.3V388.49H150.452V391.514C152.468 389.306 155.492 388.106 158.996 388.106ZM186.903 388.106C194.775 388.106 199.335 391.754 199.335 399.578V414.314H192.327V411.098C190.935 413.45 188.247 414.698 184.455 414.698C178.407 414.698 174.807 411.338 174.807 406.874C174.807 402.314 178.023 399.146 185.895 399.146H191.847C191.847 395.93 189.927 394.058 185.895 394.058C183.159 394.058 180.327 394.97 178.455 396.458L175.767 391.226C178.599 389.21 182.775 388.106 186.903 388.106ZM186.327 409.658C188.823 409.658 190.983 408.506 191.847 406.154V403.514H186.711C183.207 403.514 182.103 404.81 182.103 406.538C182.103 408.41 183.687 409.658 186.327 409.658ZM225.21 378.698H232.698V414.314H225.546V411.338C223.674 413.594 220.938 414.698 217.482 414.698C210.186 414.698 204.57 409.514 204.57 401.402C204.57 393.29 210.186 388.106 217.482 388.106C220.65 388.106 223.338 389.114 225.21 391.226V378.698ZM218.778 408.554C222.474 408.554 225.354 405.866 225.354 401.402C225.354 396.938 222.474 394.25 218.778 394.25C215.034 394.25 212.154 396.938 212.154 401.402C212.154 405.866 215.034 408.554 218.778 408.554ZM250.044 388.106C257.916 388.106 262.476 391.754 262.476 399.578V414.314H255.468V411.098C254.076 413.45 251.388 414.698 247.596 414.698C241.548 414.698 237.948 411.338 237.948 406.874C237.948 402.314 241.164 399.146 249.036 399.146H254.988C254.988 395.93 253.068 394.058 249.036 394.058C246.3 394.058 243.468 394.97 241.596 396.458L238.908 391.226C241.74 389.21 245.916 388.106 250.044 388.106ZM249.468 409.658C251.964 409.658 254.124 408.506 254.988 406.154V403.514H249.852C246.348 403.514 245.244 404.81 245.244 406.538C245.244 408.41 246.828 409.658 249.468 409.658Z" fill="white"/>
<defs>
<filter id="filter0_b_1_4251" x="22" y="346.314" width="297" height="102" filterUnits="userSpaceOnUse" color-interpolation-filters="sRGB">
<feFlood flood-opacity="0" result="BackgroundImageFix"/>
<feGaussianBlur in="BackgroundImageFix" stdDeviation="7.5"/>
<feComposite in2="SourceAlpha" operator="in" result="effect1_backgroundBlur_1_4251"/>
<feBlend mode="normal" in="SourceGraphic" in2="effect1_backgroundBlur_1_4251" result="shape"/>
</filter>
<linearGradient id="paint0_linear_1_4251" x1="170.365" y1="22.5638" x2="170.365" y2="421.999" gradientUnits="userSpaceOnUse">
<stop stop-color="#869ACF"/>
<stop offset="0.532" stop-color="#EAEAEA"/>
<stop offset="1" stop-color="#DADA94"/>
</linearGradient>
<linearGradient id="paint1_linear_1_4251" x1="137.335" y1="327.443" x2="137.335" y2="382.217" gradientUnits="userSpaceOnUse">
<stop offset="0.003" stop-color="#CD9994"/>
<stop offset="1" stop-color="#DADA94"/>
</linearGradient>
<linearGradient id="paint2_linear_1_4251" x1="149.088" y1="227.316" x2="218.108" y2="279.9" gradientUnits="userSpaceOnUse">
<stop offset="0.29" stop-color="#CD8694"/>
<stop offset="1" stop-color="#DADA94"/>
</linearGradient>
<linearGradient id="paint3_linear_1_4251" x1="170.367" y1="339.253" x2="170.367" y2="413.413" gradientUnits="userSpaceOnUse">
<stop stop-color="#A17A94"/>
<stop offset="1" stop-color="#DADA94"/>
</linearGradient>
<linearGradient id="paint4_linear_1_4251" x1="37" y1="355.483" x2="120.087" y2="468.222" gradientUnits="userSpaceOnUse">
<stop stop-color="white" stop-opacity="0.59"/>
<stop offset="1" stop-color="white" stop-opacity="0"/>
</linearGradient>
</defs>
</svg>
