<svg width="102" height="75" viewBox="0 0 102 75" fill="none" xmlns="http://www.w3.org/2000/svg">
<path d="M5.35408 53.9692C11.9061 59.5765 32.7821 65.0697 41.1962 46.7452C47.7787 32.4096 11.0887 29.6094 26.6827 55.7728C39.1579 76.7035 61.938 42.2473 78.6418 20.0979" stroke="#F2B4BF" stroke-width="1.5" stroke-linecap="round" stroke-linejoin="round" stroke-dasharray="3 3"/>
<g clip-path="url(#clip0_1_4061)">
<path d="M87.4409 6.87564C87.3088 6.7897 87.1547 6.74377 86.9972 6.74337C86.8396 6.74296 86.6853 6.78811 86.5528 6.87337L74.2917 14.736L74.2891 14.7365C74.1479 14.8281 74.0384 14.9611 73.9756 15.1172C73.9129 15.2733 73.8998 15.445 73.9382 15.6089C73.9767 15.7727 74.0648 15.9207 74.1905 16.0326C74.3162 16.1445 74.4733 16.2148 74.6405 16.2341L74.6551 16.2355L79.6425 17.2216C79.7375 17.2299 79.8329 17.213 79.9193 17.1728C80.0057 17.1326 80.0801 17.0705 80.135 16.9926L86.0302 8.59924C86.0474 8.57274 86.0697 8.54989 86.0958 8.53201C86.1219 8.51413 86.1512 8.50156 86.1822 8.49502C86.2131 8.48847 86.245 8.48809 86.2761 8.49389C86.3072 8.49968 86.3368 8.51154 86.3633 8.52879C86.3899 8.54604 86.4127 8.56835 86.4306 8.59442C86.4485 8.6205 86.461 8.64985 86.4676 8.68079C86.4741 8.71173 86.4745 8.74365 86.4687 8.77473C86.4629 8.80582 86.451 8.83546 86.4338 8.86196L81.1442 17.6469C81.0952 17.7286 81.0684 17.8218 81.0666 17.917C81.0649 18.0123 81.0881 18.1064 81.1341 18.1899L84.0559 22.3538C84.0593 22.36 84.0626 22.3656 84.0662 22.3715C84.2382 22.6578 84.5541 22.8186 84.8834 22.7643L84.9167 22.7572C85.0815 22.7234 85.2324 22.6407 85.3496 22.5199C85.4669 22.3992 85.5451 22.2459 85.5741 22.0801L87.8006 7.68958C87.8257 7.53366 87.805 7.37381 87.7412 7.22936C87.6774 7.08491 87.573 6.96205 87.4409 6.87564Z" fill="#4141A5"/>
</g>
<defs>
<clipPath id="clip0_1_4061">
<rect width="16.7917" height="18.1731" fill="white" transform="translate(71.553 7.78144) rotate(-11.9391)"/>
</clipPath>
</defs>
</svg>
