<svg width="15" height="15" viewBox="0 0 15 15" fill="none" xmlns="http://www.w3.org/2000/svg">
<path d="M7.42454 4.37092C6.7211 4.37092 6.03347 4.57951 5.44859 4.97031C4.86371 5.36112 4.40785 5.91658 4.13866 6.56647C3.86946 7.21636 3.79903 7.93147 3.93626 8.62139C4.0735 9.3113 4.41223 9.94503 4.90963 10.4424C5.40703 10.9398 6.04076 11.2786 6.73067 11.4158C7.42059 11.553 8.1357 11.4826 8.78559 11.2134C9.43548 10.9442 9.99094 10.4884 10.3817 9.90347C10.7726 9.31859 10.9811 8.63096 10.9811 7.92753C10.9819 7.46026 10.8904 6.99744 10.7119 6.5656C10.5334 6.13377 10.2715 5.7414 9.94107 5.41099C9.61066 5.08058 9.21829 4.81863 8.78646 4.64016C8.35462 4.46168 7.8918 4.37018 7.42454 4.37092ZM7.42454 10.2396C6.96725 10.2396 6.52023 10.104 6.14002 9.84995C5.7598 9.59589 5.46345 9.23479 5.28846 8.81232C5.11346 8.38984 5.06767 7.92496 5.15689 7.47646C5.2461 7.02796 5.4663 6.61599 5.78965 6.29264C6.113 5.96929 6.52497 5.74909 6.97347 5.65988C7.42197 5.57067 7.88685 5.61645 8.30933 5.79145C8.7318 5.96644 9.0929 6.26279 9.34695 6.64301C9.60101 7.02322 9.73661 7.47024 9.73661 7.92753C9.73451 8.53979 9.49015 9.12633 9.05691 9.55897C8.62368 9.99161 8.0368 10.2352 7.42454 10.2364V10.2396ZM11.9566 4.22487C11.956 4.38871 11.9068 4.5487 11.8154 4.68464C11.7239 4.82059 11.5943 4.92641 11.4428 4.98874C11.2912 5.05108 11.1247 5.06715 10.964 5.03491C10.8034 5.00268 10.6559 4.92359 10.5401 4.80763C10.4244 4.69167 10.3456 4.54402 10.3137 4.38332C10.2817 4.22262 10.2981 4.05606 10.3608 3.90466C10.4234 3.75326 10.5294 3.6238 10.6656 3.53261C10.8017 3.44142 10.9618 3.39259 11.1256 3.39227C11.2347 3.39185 11.3428 3.41301 11.4437 3.45453C11.5447 3.49604 11.6364 3.55709 11.7136 3.63418C11.7908 3.71126 11.852 3.80285 11.8938 3.90368C11.9355 4.0045 11.9568 4.11258 11.9566 4.2217V4.22487ZM14.3123 5.067C14.3354 3.9871 13.9318 2.94164 13.1892 2.15726C12.4042 1.41967 11.3621 1.01782 10.2851 1.03734C9.13974 0.972254 5.70695 0.972254 4.56163 1.03734C3.48413 1.01583 2.44096 1.41664 1.65506 2.15409C0.915364 2.93885 0.512977 3.98243 0.534348 5.06065C0.469264 6.20597 0.469264 9.63876 0.534348 10.7841C0.511522 11.8626 0.914115 12.9067 1.65506 13.6906C2.44093 14.4286 3.48377 14.8307 4.56163 14.8114C5.70695 14.8764 9.13974 14.8764 10.2851 14.8114C11.3627 14.8336 12.4059 14.431 13.1892 13.6906C13.9277 12.9051 14.3299 11.862 14.31 10.7841C14.375 9.63876 14.375 6.20915 14.31 5.06382L14.3123 5.067ZM12.8329 12.0159C12.7152 12.3143 12.5374 12.5852 12.3106 12.812C12.0838 13.0388 11.8129 13.2166 11.5145 13.3343C10.6018 13.6962 8.43493 13.6129 7.42533 13.6129C6.41573 13.6129 4.24652 13.6922 3.33614 13.3343C3.03779 13.2166 2.76682 13.0388 2.54004 12.812C2.31325 12.5852 2.13549 12.3143 2.01779 12.0159C1.65586 11.1032 1.7392 8.93633 1.7392 7.92673C1.7392 6.91713 1.65983 4.74793 2.01779 3.83754C2.13513 3.53861 2.31272 3.26702 2.53953 3.03967C2.76633 2.81232 3.03749 2.63407 3.33614 2.51602C4.24891 2.15409 6.41573 2.23743 7.42533 2.23743C8.43493 2.23743 10.6041 2.15806 11.5145 2.51602C11.8129 2.63372 12.0838 2.81148 12.3106 3.03826C12.5374 3.26505 12.7152 3.53602 12.8329 3.83437C13.1948 4.74713 13.1115 6.91396 13.1115 7.92356C13.1115 8.93316 13.1948 11.1032 12.8329 12.0127V12.0159Z" fill="#1A093F"/>
</svg>
