<svg width="340" height="464" viewBox="0 0 340 464" fill="none" xmlns="http://www.w3.org/2000/svg">
<mask id="mask0_1_4348" style="mask-type:alpha" maskUnits="userSpaceOnUse" x="0" y="0" width="340" height="464">
<rect width="340" height="464" rx="30" fill="#35313E"/>
</mask>
<g mask="url(#mask0_1_4348)">
<path d="M358.73 -0.999878H-18V464H358.73V-0.999878Z" fill="url(#paint0_linear_1_4348)"/>
<path d="M-1.91246 293.768V373.669H276.582V315.573L271.189 320.13V333.705L265.175 338.787V349.177H259.757V296.007H253.718V305.79H244.658V316.849H230.061V329.134H216.975V284.169H208.301V313.447H202.144V347.045H191.824V361.506H177.182V370.863H154.556V313.944L143.44 304.55V329.65H137.333V343.369H128.894V307.919L120.464 300.793L113.8 306.425V326.437L104.517 334.283V350.456H98.3933V329.65H92.1593V343.369H76.2129V351.322H46.8922L41.9118 347.113H33.6535V329.136H22.1934V323.069H9.60968V294.553L-1.91246 293.768Z" fill="url(#paint1_linear_1_4348)"/>
<path d="M193.289 323.696L184.483 258.027L190.432 254.433V253.82H188.227V251.279H184.24V244.359H184.356L174.006 238.052V236.287H172.907V237.95L162.532 244.359H162.503V251.274H157.557V253.815H156.1V254.427L162.049 258.022L157.602 291.176L147.438 294.627V332.008H174.618L173.503 323.685H193.284L193.289 323.696ZM163.827 251.669H168.715V251.861H163.827V251.669ZM181.363 251.861V251.669H182.436V251.861H181.363ZM180.849 251.861H177.549V251.669H180.849V251.861ZM175.575 251.861H174.503V251.669H175.575V251.861ZM173.989 251.861H170.688V251.669H173.989V251.861ZM187.71 251.669V253.826H184.238V251.669H187.71ZM182.436 246.271V251.291H177.549V246.271H182.436ZM175.575 246.271V251.291H170.688V246.271H175.575ZM163.827 246.271H168.715V251.291H163.827V246.271ZM162.512 251.669V253.826H162.455V251.669H162.512ZM158.082 251.669H161.939V253.826H158.082V251.669Z" fill="url(#paint2_linear_1_4348)"/>
<path d="M358.733 292.54V393.151H-18V320.025L-10.7073 325.765V342.861L-2.57316 349.261V362.345H4.76761V295.372H12.9384V307.693H25.1947V321.621H44.9385V337.093H62.641V280.445H74.3721V317.335H82.701V359.651H96.6766V377.865H116.483V389.65H147.06V317.959L162.094 306.129V337.75H170.367V355.029H181.781V310.369L193.188 301.397L202.2 308.489V333.693L214.758 343.575V363.943H223.042V337.742H231.464V355.021H253.038V365.035H292.711L299.451 359.733H310.623V337.095H326.126V329.453H343.157V293.522L358.733 292.54Z" fill="url(#paint3_linear_1_4348)"/>
<path d="M345.754 333.352H344.043V331.833H326.538V311.555H326.713L321.436 300.058L319.226 304.858C316.721 290.403 309.172 279.801 300.171 279.36H299.756V272.186H303.779V271.413H299.756V268.129H299.312V271.413H295.332V272.186H299.312V279.369H299.013C290.413 279.789 283.137 289.488 280.323 302.961L278.987 300.053L273.702 311.555H273.764V331.838H255.426V333.357H253.422V336.997H255.426V365.067H344.049V336.997H345.76L345.754 333.352Z" fill="#895881"/>
<path d="M358.733 323.431L163.559 400.438H358.733V323.431Z" fill="#5B4168"/>
<path d="M358.73 385.231H-18V463.997H358.73V385.231Z" fill="#5B4168"/>
<path d="M141.721 347.412V334.569H136.486V347.412H127.923V334.569H122.652V347.412H99.5791V263.05L97.0917 249.125H96.177L94.4829 258.555V234.517H92.6929L86.1257 195.498H83.0906L76.5235 234.517H74.7335V258.555L73.0394 249.125H72.1247L69.6373 263.05V347.412H45.921V334.569H40.6724V347.412H32.1091V334.569H26.8605V347.412H-18V400.446H186.587V347.412H141.721Z" fill="#5B4168"/>
<path d="M89.6832 244.975C89.6827 246.041 89.3661 247.082 88.7735 247.968C88.1809 248.854 87.339 249.545 86.3541 249.952C85.3691 250.36 84.2855 250.466 83.2402 250.258C82.1949 250.049 81.2347 249.536 80.4812 248.782C79.7277 248.028 79.2147 247.068 79.0069 246.022C78.7992 244.977 78.9061 243.893 79.3142 242.909C79.7222 241.924 80.413 241.082 81.2993 240.49C82.1856 239.898 83.2276 239.582 84.2934 239.582C85.0015 239.582 85.7025 239.722 86.3566 239.993C87.0107 240.264 87.6051 240.661 88.1056 241.162C88.6061 241.662 89.003 242.257 89.2737 242.911C89.5444 243.565 89.6836 244.267 89.6832 244.975Z" fill="#C6A9B5"/>
<path d="M340 -23H-37.0922V442.447H340V-23Z" fill="url(#paint4_linear_1_4348)"/>
<path d="M23.7024 240.17V320.148H302.464V262.007L297.066 266.568V280.156L291.047 285.243V295.643H285.623V242.422H279.578V252.215H270.51V263.284H255.899V275.581H242.8V230.558H234.118V259.879H227.954V293.509H217.608V307.985H202.952V317.356H180.327V260.374L169.2 250.971V276.095H163.085V289.827H154.637V254.334L146.199 247.201L139.529 252.836V272.868L130.237 280.721V296.909H124.107V276.095H117.876V289.827H101.914V297.788H72.5539L67.5687 293.574H59.3109V275.581H47.8399V269.508H35.244V240.964L23.7024 240.17Z" fill="url(#paint5_linear_1_4348)"/>
<path d="M340 238.268V338.981H-37.0922V265.769L-29.7924 271.511V288.623L-21.6504 295.03V308.126H-14.3026V241.102H-6.12399V253.436H6.14403V267.377H25.9068V282.861H43.6263V226.161H55.3545V263.095H63.6915V305.455H77.6805V323.686H97.5055V335.482H128.112V263.711L143.161 251.87V283.522H151.441V300.818H162.87V256.117L174.287 247.136L183.308 254.235V279.464L195.878 289.355V309.725H204.17V283.499H212.6V300.795H234.195V310.819H273.907L280.65 305.512H291.832V282.852H307.35V275.205H324.397V239.251L340 238.268Z" fill="url(#paint6_linear_1_4348)"/>
<path d="M46.5937 332.173V326.866L45.8364 326.108V317.138H44.9518V249.284H45.4097V247.136H44.9518V238.474H48.3431V232.107L37.3242 227.487V222.855L27.4809 218.802V214.75H6.6386L6.07343 216.293H-9.75263V221.504H-13.4265V235.4H-15.3567V238.489H-11.7224V247.151H-12.3554V249.298H-11.7224V317.15H-12.607V326.247L-13.4293 327.069V332.187H-18.9261V335.977H2.30064V332.187H-3.00395V326.88L-3.76135 326.122V317.152H-4.64588V249.284H-4.18809V247.136H-4.64588V238.474H13.0736V247.136H12.4406V249.284H13.0736V317.136H12.1891V326.233L11.3666 327.055V332.173H5.86998V335.963H27.0938V332.173H21.7864V326.866L21.029 326.108V317.138H20.1445V249.284H20.6023V247.136H20.1445V238.474H37.864V247.136H37.2309V249.284H37.864V317.136H36.9851V326.233L36.1627 327.055V332.173H30.666V335.963H51.8926V332.173H46.5937Z" fill="#895881"/>
<path d="M330.864 260.874V258.008H248.094V260.868H249.608V275.335L248.808 276.135V281.055H249.608V339.009H258.185V296.875C258.185 296.875 260.709 289.81 266.262 291.07V339.015H274.336V291.073H276.103V287.286L275.41 286.591C276.026 283.31 277.77 280.348 280.339 278.217C282.907 276.085 286.141 274.919 289.479 274.919C292.817 274.919 296.05 276.085 298.619 278.217C301.188 280.348 302.931 283.31 303.547 286.591L302.852 287.286V291.073H304.618V339.018H312.692V291.073C318.245 289.81 320.769 296.878 320.769 296.878V339.018H329.349V281.061H330.146V276.14L329.349 275.341V260.874H330.864Z" fill="#895881"/>
<path d="M236.71 223.38L233.746 233.133L231.872 341.765H245.917L239.898 233.054L236.71 223.38Z" fill="#895881"/>
<path d="M340 331.048H-37.0922V442.447H340V331.048Z" fill="#5B3757"/>
<path d="M217.572 333.25L212.632 332.261L211.151 316.457V256.827L201.15 254.976H192.259C192.259 254.976 175.217 247.936 173.737 247.936C172.256 247.936 141.519 241.64 141.519 241.64L132.999 255.716L117.811 247.552V207.922C117.811 207.922 70.1834 209.592 49.731 216.906V226.444H52.2462V252.373H49.731V275.711L47.8008 277.562V326.089L40.761 331.274V340.165H220.048L217.572 333.25ZM104.246 235.21V223.728C104.41 222.999 104.817 222.349 105.401 221.882C105.984 221.416 106.708 221.162 107.455 221.162C108.202 221.162 108.926 221.416 109.509 221.882C110.093 222.349 110.5 222.999 110.664 223.728V235.756L107.454 235.473L104.246 235.756V235.21ZM83.0505 226.076C83.1144 225.256 83.4756 224.488 84.0662 223.915C84.6569 223.343 85.4364 223.006 86.2581 222.968C86.6409 222.903 87.0332 222.919 87.4092 223.016C87.7851 223.114 88.1362 223.289 88.4395 223.532C88.7427 223.775 88.9911 224.079 89.1685 224.424C89.3458 224.77 89.4481 225.149 89.4685 225.537V237.019L83.0505 237.564V226.076ZM79.8401 251.828C79.9075 251.008 80.2703 250.242 80.8609 249.67C81.4514 249.098 82.2295 248.76 83.0505 248.719C83.4332 248.654 83.8251 248.671 84.2007 248.769C84.5763 248.866 84.9271 249.042 85.23 249.285C85.5329 249.527 85.7811 249.831 85.9583 250.176C86.1355 250.522 86.2376 250.9 86.2581 251.288V262.77L79.8401 263.316V251.828ZM71.8875 227.023C71.955 226.204 72.3177 225.437 72.9083 224.865C73.4988 224.293 74.2769 223.955 75.0979 223.914C75.4803 223.849 75.8723 223.866 76.2479 223.963C76.6236 224.06 76.9743 224.236 77.2773 224.478C77.5802 224.72 77.8285 225.024 78.0057 225.369C78.1829 225.714 78.2851 226.093 78.3055 226.48V237.966L71.8875 238.511V227.023ZM58.7264 274.682L52.3084 275.228V263.745C52.3758 262.926 52.7386 262.159 53.3292 261.587C53.9197 261.015 54.6979 260.678 55.5188 260.636C55.9015 260.572 56.2935 260.589 56.6691 260.686C57.0447 260.784 57.3955 260.959 57.6983 261.202C58.0012 261.445 58.2494 261.749 58.4266 262.094C58.6038 262.439 58.7059 262.818 58.7264 263.205V274.682ZM67.6766 238.853L61.2586 239.401V227.916C61.3226 227.096 61.6842 226.327 62.2755 225.754C62.8667 225.182 63.6468 224.845 64.469 224.807C64.8515 224.742 65.2434 224.759 65.619 224.856C65.9946 224.953 66.3455 225.129 66.6484 225.371C66.9514 225.613 67.1996 225.917 67.3769 226.262C67.5541 226.607 67.6562 226.986 67.6766 227.374V238.853ZM74.1003 297.277L67.6823 297.822V286.34C67.7462 285.519 68.1078 284.75 68.6991 284.178C69.2904 283.605 70.0705 283.268 70.8927 283.231C71.2752 283.166 71.6671 283.182 72.0427 283.28C72.4183 283.377 72.7692 283.552 73.0721 283.795C73.3751 284.037 73.6233 284.341 73.8005 284.686C73.9777 285.031 74.0799 285.41 74.1003 285.797V297.277ZM77.3107 265.373L70.8927 265.918V254.433C70.9566 253.613 71.3178 252.845 71.9085 252.272C72.4992 251.7 73.2786 251.363 74.1003 251.325C74.4829 251.259 74.875 251.276 75.2508 251.373C75.6266 251.47 75.9775 251.646 76.2807 251.888C76.5839 252.13 76.8324 252.434 77.0099 252.779C77.1874 253.124 77.2899 253.503 77.3107 253.891V265.373ZM84.6981 280.795L78.2801 281.34V269.855C78.3475 269.036 78.7103 268.269 79.3008 267.697C79.8914 267.125 80.6695 266.788 81.4905 266.746C81.873 266.681 82.2649 266.698 82.6405 266.795C83.0161 266.892 83.367 267.068 83.6699 267.31C83.9729 267.552 84.2211 267.856 84.3983 268.201C84.5755 268.546 84.6777 268.925 84.6981 269.313V280.795ZM92.6506 279.981L86.2326 280.526V269.044C86.3001 268.225 86.6629 267.458 87.2534 266.886C87.844 266.314 88.6221 265.976 89.4431 265.935C89.8257 265.871 90.2177 265.888 90.5934 265.985C90.969 266.083 91.3197 266.258 91.6226 266.501C91.9255 266.744 92.1737 267.047 92.3509 267.393C92.528 267.738 92.6302 268.117 92.6506 268.504V279.981ZM100.603 325.43L94.1853 325.975V314.502C94.2528 313.682 94.6155 312.915 95.206 312.344C95.7965 311.772 96.5747 311.434 97.3957 311.393C97.7783 311.328 98.1703 311.345 98.5459 311.443C98.9215 311.54 99.2723 311.716 99.5752 311.958C99.8781 312.201 100.126 312.505 100.303 312.85C100.481 313.195 100.583 313.574 100.603 313.962V325.43ZM100.603 236.055L94.1853 236.601V225.118C94.2528 224.299 94.6155 223.532 95.206 222.96C95.7965 222.389 96.5747 222.051 97.3957 222.01C97.7783 221.945 98.1703 221.962 98.5459 222.059C98.9215 222.157 99.2723 222.333 99.5752 222.575C99.8781 222.818 100.126 223.122 100.303 223.467C100.481 223.812 100.583 224.191 100.603 224.579V236.055ZM104.232 244.514C104.296 243.694 104.657 242.925 105.248 242.353C105.838 241.78 106.618 241.443 107.44 241.405C107.822 241.34 108.214 241.356 108.59 241.454C108.966 241.551 109.317 241.726 109.62 241.968C109.923 242.211 110.172 242.514 110.349 242.86C110.527 243.205 110.629 243.584 110.65 243.971V255.465L104.232 256.01V244.514ZM117.068 280.795L110.65 281.34V269.855C110.714 269.035 111.075 268.267 111.666 267.694C112.256 267.122 113.036 266.785 113.858 266.746C114.24 266.681 114.632 266.698 115.008 266.795C115.384 266.892 115.735 267.068 116.038 267.31C116.341 267.552 116.59 267.856 116.767 268.201C116.945 268.546 117.047 268.925 117.068 269.313V280.795ZM149.667 263.302L143.249 262.756V251.282C143.27 250.895 143.372 250.516 143.55 250.17C143.727 249.825 143.976 249.521 144.279 249.279C144.582 249.036 144.933 248.86 145.309 248.763C145.684 248.666 146.076 248.649 146.459 248.713C147.28 248.755 148.057 249.093 148.647 249.665C149.237 250.237 149.599 251.003 149.667 251.822V263.302ZM160.533 265.918L154.115 265.373V253.888C154.136 253.5 154.238 253.121 154.416 252.776C154.593 252.431 154.842 252.127 155.145 251.885C155.448 251.643 155.799 251.467 156.175 251.37C156.551 251.273 156.943 251.257 157.326 251.322C158.147 251.36 158.927 251.697 159.517 252.269C160.108 252.842 160.469 253.61 160.533 254.43V265.918ZM169.67 290.519L163.252 289.974V278.492C163.272 278.104 163.374 277.725 163.552 277.379C163.729 277.034 163.978 276.73 164.281 276.487C164.584 276.244 164.935 276.069 165.311 275.972C165.687 275.874 166.079 275.858 166.462 275.923C167.284 275.961 168.063 276.298 168.654 276.87C169.245 277.443 169.606 278.211 169.67 279.031V290.519ZM177.82 293.976L171.402 293.43V281.948C171.423 281.56 171.525 281.182 171.702 280.836C171.879 280.491 172.127 280.187 172.43 279.945C172.733 279.702 173.084 279.526 173.46 279.429C173.835 279.331 174.227 279.314 174.61 279.379C175.431 279.42 176.209 279.758 176.799 280.33C177.39 280.902 177.753 281.668 177.82 282.488V293.976ZM188.687 299.656L182.269 299.111V287.628C182.289 287.241 182.391 286.862 182.568 286.517C182.745 286.172 182.994 285.868 183.297 285.625C183.599 285.382 183.95 285.207 184.326 285.109C184.701 285.012 185.093 284.995 185.476 285.059C186.297 285.101 187.075 285.438 187.666 286.01C188.256 286.582 188.619 287.349 188.687 288.168V299.656ZM200.29 279.981L193.872 280.526V269.044C193.94 268.225 194.303 267.458 194.893 266.886C195.484 266.314 196.262 265.976 197.083 265.935C197.465 265.871 197.857 265.888 198.233 265.985C198.609 266.083 198.959 266.258 199.262 266.501C199.565 266.744 199.813 267.047 199.991 267.393C200.168 267.738 200.27 268.117 200.29 268.504V279.981Z" fill="#5B3757"/>
<path d="M124.509 267.772H130.405L134.361 278.842L143.504 279.212V292.271L167.568 303.237L167.138 290.31L163.266 289.982V278.497C163.287 278.11 163.39 277.731 163.567 277.386C163.745 277.041 163.993 276.737 164.296 276.495C164.6 276.252 164.951 276.077 165.326 275.98C165.702 275.882 166.094 275.866 166.477 275.931C166.542 275.931 166.598 275.971 166.663 275.979L166.231 263.03L174.947 266.543V262.812H204.855L207.178 256.069L201.158 254.956H192.268C192.268 254.956 175.226 247.916 173.745 247.916C172.265 247.916 141.528 241.62 141.528 241.62L133.008 255.696L117.812 247.552L124.509 256.7V267.772ZM154.115 253.896C154.136 253.509 154.239 253.13 154.416 252.785C154.594 252.44 154.842 252.136 155.146 251.893C155.449 251.651 155.8 251.476 156.175 251.379C156.551 251.281 156.943 251.265 157.326 251.33C158.148 251.368 158.927 251.705 159.518 252.278C160.108 252.85 160.47 253.619 160.534 254.439V265.921L154.115 265.376V253.896ZM143.249 251.282C143.27 250.894 143.373 250.515 143.55 250.17C143.728 249.825 143.976 249.521 144.279 249.279C144.582 249.036 144.933 248.86 145.309 248.763C145.685 248.665 146.077 248.648 146.46 248.713C147.28 248.755 148.058 249.093 148.648 249.665C149.237 250.237 149.6 251.003 149.667 251.822V263.304L143.249 262.759V251.282Z" fill="#895881"/>
<path d="M117.351 207.938L117.811 247.552V207.922L117.351 207.938Z" fill="#895881"/>
<path d="M23.1413 390.213C22.6457 390.213 22.2082 390.088 21.8288 389.838C21.4493 389.585 21.1525 389.229 20.9382 388.769C20.724 388.307 20.6169 387.761 20.6169 387.131C20.6169 386.507 20.724 385.965 20.9382 385.505C21.1525 385.046 21.4506 384.691 21.8326 384.44C22.2146 384.19 22.656 384.065 23.1568 384.065C23.544 384.065 23.8498 384.129 24.0744 384.258C24.3016 384.385 24.4745 384.529 24.5932 384.692C24.7145 384.852 24.8088 384.984 24.8759 385.087H24.9533V382.16H25.8671V390.089H24.9843V389.176H24.8759C24.8088 389.284 24.7133 389.421 24.5894 389.586C24.4655 389.749 24.2886 389.894 24.0589 390.024C23.8292 390.15 23.5233 390.213 23.1413 390.213ZM23.2652 389.392C23.6317 389.392 23.9415 389.297 24.1944 389.106C24.4474 388.912 24.6397 388.645 24.7713 388.304C24.903 387.961 24.9688 387.565 24.9688 387.116C24.9688 386.672 24.9043 386.283 24.7752 385.95C24.6461 385.615 24.4551 385.354 24.2022 385.168C23.9492 384.98 23.6369 384.886 23.2652 384.886C22.878 384.886 22.5554 384.985 22.2972 385.184C22.0417 385.38 21.8494 385.647 21.7203 385.985C21.5939 386.321 21.5306 386.698 21.5306 387.116C21.5306 387.539 21.5952 387.924 21.7242 388.27C21.8559 388.613 22.0495 388.887 22.305 389.09C22.5631 389.292 22.8832 389.392 23.2652 389.392ZM27.6674 390.089V384.142H28.5812V390.089H27.6674ZM28.1321 383.151C27.954 383.151 27.8004 383.09 27.6713 382.969C27.5448 382.848 27.4816 382.702 27.4816 382.532C27.4816 382.361 27.5448 382.215 27.6713 382.094C27.8004 381.973 27.954 381.912 28.1321 381.912C28.3102 381.912 28.4625 381.973 28.5889 382.094C28.718 382.215 28.7825 382.361 28.7825 382.532C28.7825 382.702 28.718 382.848 28.5889 382.969C28.4625 383.09 28.3102 383.151 28.1321 383.151ZM32.0048 390.229C31.628 390.229 31.286 390.158 30.9788 390.016C30.6716 389.871 30.4277 389.663 30.247 389.392C30.0664 389.119 29.976 388.788 29.976 388.401C29.976 388.061 30.0431 387.784 30.1773 387.573C30.3116 387.358 30.491 387.191 30.7155 387.069C30.9401 386.948 31.1879 386.858 31.4589 386.798C31.7325 386.736 32.0074 386.687 32.2836 386.651C32.645 386.605 32.9379 386.57 33.1625 386.547C33.3897 386.521 33.5549 386.478 33.6581 386.419C33.7639 386.36 33.8168 386.256 33.8168 386.109V386.078C33.8168 385.696 33.7123 385.399 33.5032 385.188C33.2967 384.976 32.9831 384.87 32.5624 384.87C32.1262 384.87 31.7841 384.966 31.5364 385.157C31.2886 385.348 31.1143 385.552 31.0137 385.768L30.1464 385.459C30.3012 385.097 30.5077 384.816 30.7659 384.615C31.0266 384.411 31.3105 384.269 31.6177 384.189C31.9274 384.106 32.232 384.065 32.5314 384.065C32.7224 384.065 32.9418 384.088 33.1896 384.135C33.44 384.178 33.6813 384.27 33.9136 384.409C34.1485 384.549 34.3434 384.759 34.4983 385.041C34.6532 385.322 34.7306 385.699 34.7306 386.171V390.089H33.8168V389.284H33.7704C33.7084 389.413 33.6052 389.551 33.4606 389.698C33.3161 389.845 33.1238 389.971 32.8837 390.074C32.6437 390.177 32.3507 390.229 32.0048 390.229ZM32.1442 389.408C32.5056 389.408 32.8102 389.337 33.058 389.195C33.3083 389.053 33.4968 388.87 33.6233 388.645C33.7523 388.421 33.8168 388.184 33.8168 387.937V387.1C33.7781 387.147 33.6929 387.189 33.5613 387.228C33.4322 387.264 33.2825 387.296 33.1122 387.325C32.9444 387.351 32.7805 387.374 32.6205 387.395C32.463 387.413 32.3352 387.428 32.2371 387.441C31.9997 387.472 31.7777 387.522 31.5712 387.592C31.3673 387.659 31.2021 387.761 31.0756 387.898C30.9517 388.032 30.8898 388.215 30.8898 388.448C30.8898 388.765 31.0072 389.005 31.2421 389.168C31.4796 389.328 31.7803 389.408 32.1442 389.408ZM36.3984 390.089V384.142H37.2811V385.071H37.3586C37.4825 384.754 37.6825 384.507 37.9587 384.332C38.2349 384.154 38.5666 384.065 38.9538 384.065C39.3461 384.065 39.6726 384.154 39.9333 384.332C40.1966 384.507 40.4018 384.754 40.549 385.071H40.6109C40.7632 384.764 40.9916 384.52 41.2962 384.34C41.6008 384.156 41.966 384.065 42.3919 384.065C42.9237 384.065 43.3586 384.231 43.6967 384.564C44.0349 384.895 44.2039 385.41 44.2039 386.109V390.089H43.2902V386.109C43.2902 385.67 43.1702 385.357 42.9301 385.168C42.6901 384.98 42.4074 384.886 42.0822 384.886C41.664 384.886 41.3401 385.012 41.1104 385.265C40.8806 385.515 40.7658 385.833 40.7658 386.218V390.089H39.8365V386.016C39.8365 385.678 39.7268 385.406 39.5074 385.199C39.288 384.99 39.0054 384.886 38.6595 384.886C38.422 384.886 38.2001 384.949 37.9936 385.075C37.7896 385.202 37.6244 385.377 37.498 385.602C37.3741 385.824 37.3121 386.081 37.3121 386.372V390.089H36.3984ZM49.8548 386.512V390.089H48.9411V384.142H49.8239V385.071H49.9013C50.0407 384.769 50.2524 384.527 50.5363 384.344C50.8202 384.158 51.1867 384.065 51.6359 384.065C52.0385 384.065 52.3909 384.147 52.6929 384.313C52.9949 384.475 53.2298 384.723 53.3976 385.056C53.5653 385.386 53.6492 385.805 53.6492 386.31V390.089H52.7355V386.372C52.7355 385.905 52.6142 385.541 52.3715 385.281C52.1289 385.017 51.7959 384.886 51.3726 384.886C51.0809 384.886 50.8202 384.949 50.5905 385.075C50.3633 385.202 50.184 385.386 50.0523 385.629C49.9207 385.872 49.8548 386.166 49.8548 386.512ZM57.7349 390.213C57.1981 390.213 56.727 390.085 56.3217 389.83C55.9191 389.574 55.6042 389.217 55.377 388.757C55.1525 388.298 55.0402 387.761 55.0402 387.147C55.0402 386.527 55.1525 385.987 55.377 385.524C55.6042 385.062 55.9191 384.704 56.3217 384.448C56.727 384.193 57.1981 384.065 57.7349 384.065C58.2718 384.065 58.7416 384.193 59.1443 384.448C59.5495 384.704 59.8644 385.062 60.089 385.524C60.3162 385.987 60.4297 386.527 60.4297 387.147C60.4297 387.761 60.3162 388.298 60.089 388.757C59.8644 389.217 59.5495 389.574 59.1443 389.83C58.7416 390.085 58.2718 390.213 57.7349 390.213ZM57.7349 389.392C58.1428 389.392 58.4783 389.288 58.7416 389.079C59.0049 388.87 59.1998 388.595 59.3263 388.254C59.4527 387.913 59.516 387.544 59.516 387.147C59.516 386.749 59.4527 386.379 59.3263 386.036C59.1998 385.692 59.0049 385.415 58.7416 385.203C58.4783 384.991 58.1428 384.886 57.7349 384.886C57.3271 384.886 56.9916 384.991 56.7283 385.203C56.465 385.415 56.2701 385.692 56.1436 386.036C56.0172 386.379 55.9539 386.749 55.9539 387.147C55.9539 387.544 56.0172 387.913 56.1436 388.254C56.2701 388.595 56.465 388.87 56.7283 389.079C56.9916 389.288 57.3271 389.392 57.7349 389.392ZM62.7383 386.512V390.089H61.8245V384.142H62.7073V385.071H62.7848C62.9241 384.769 63.1358 384.527 63.4197 384.344C63.7037 384.158 64.0702 384.065 64.5193 384.065C64.922 384.065 65.2743 384.147 65.5763 384.313C65.8783 384.475 66.1132 384.723 66.281 385.056C66.4488 385.386 66.5327 385.805 66.5327 386.31V390.089H65.6189V386.372C65.6189 385.905 65.4976 385.541 65.255 385.281C65.0123 385.017 64.6794 384.886 64.256 384.886C63.9644 384.886 63.7037 384.949 63.4739 385.075C63.2468 385.202 63.0674 385.386 62.9358 385.629C62.8041 385.872 62.7383 386.166 62.7383 386.512ZM71.9503 387.658V384.142H72.864V390.089H71.9503V389.083H71.8883C71.749 389.385 71.5321 389.642 71.2379 389.853C70.9436 390.062 70.5719 390.167 70.1228 390.167C69.7511 390.167 69.4207 390.085 69.1316 389.923C68.8425 389.758 68.6154 389.51 68.4502 389.179C68.285 388.847 68.2024 388.427 68.2024 387.921V384.142H69.1161V387.859C69.1161 388.293 69.2374 388.639 69.4801 388.897C69.7253 389.155 70.0376 389.284 70.4171 389.284C70.6442 389.284 70.8752 389.226 71.1101 389.11C71.3476 388.994 71.5463 388.816 71.7064 388.575C71.869 388.335 71.9503 388.03 71.9503 387.658ZM74.5376 390.089V384.142H75.4204V385.071H75.4978C75.6217 384.754 75.8218 384.507 76.098 384.332C76.3742 384.154 76.7058 384.065 77.093 384.065C77.4854 384.065 77.8119 384.154 78.0726 384.332C78.3359 384.507 78.5411 384.754 78.6882 385.071H78.7502C78.9024 384.764 79.1309 384.52 79.4355 384.34C79.74 384.156 80.1053 384.065 80.5312 384.065C81.0629 384.065 81.4978 384.231 81.836 384.564C82.1741 384.895 82.3432 385.41 82.3432 386.109V390.089H81.4294V386.109C81.4294 385.67 81.3094 385.357 81.0694 385.168C80.8293 384.98 80.5467 384.886 80.2214 384.886C79.8033 384.886 79.4793 385.012 79.2496 385.265C79.0199 385.515 78.905 385.833 78.905 386.218V390.089H77.9758V386.016C77.9758 385.678 77.8661 385.406 77.6467 385.199C77.4273 384.99 77.1446 384.886 76.7988 384.886C76.5613 384.886 76.3393 384.949 76.1328 385.075C75.9289 385.202 75.7637 385.377 75.6372 385.602C75.5133 385.824 75.4514 386.081 75.4514 386.372V390.089H74.5376ZM84.0139 390.089V384.142H84.8967V385.071H84.9741C85.098 384.754 85.298 384.507 85.5742 384.332C85.8504 384.154 86.1821 384.065 86.5693 384.065C86.9616 384.065 87.2881 384.154 87.5488 384.332C87.8121 384.507 88.0173 384.754 88.1645 385.071H88.2264C88.3787 384.764 88.6071 384.52 88.9117 384.34C89.2163 384.156 89.5815 384.065 90.0074 384.065C90.5392 384.065 90.9741 384.231 91.3122 384.564C91.6504 384.895 91.8194 385.41 91.8194 386.109V390.089H90.9057V386.109C90.9057 385.67 90.7857 385.357 90.5456 385.168C90.3056 384.98 90.0229 384.886 89.6977 384.886C89.2795 384.886 88.9556 385.012 88.7259 385.265C88.4961 385.515 88.3813 385.833 88.3813 386.218V390.089H87.452V386.016C87.452 385.678 87.3423 385.406 87.1229 385.199C86.9035 384.99 86.6209 384.886 86.275 384.886C86.0375 384.886 85.8156 384.949 85.6091 385.075C85.4052 385.202 85.24 385.377 85.1135 385.602C84.9896 385.824 84.9276 386.081 84.9276 386.372V390.089H84.0139ZM93.8657 392.32C93.7108 392.32 93.5727 392.307 93.4514 392.281C93.3301 392.258 93.2462 392.234 93.1997 392.211L93.4321 391.406C93.654 391.463 93.8502 391.483 94.0206 391.468C94.1909 391.452 94.3419 391.376 94.4736 391.239C94.6078 391.105 94.7304 390.887 94.8414 390.585L95.0118 390.12L92.8126 384.142H93.8037L95.4454 388.881H95.5073L97.149 384.142H98.1402L95.6158 390.957C95.5022 391.264 95.3615 391.518 95.1937 391.719C95.026 391.923 94.8311 392.074 94.6091 392.172C94.3897 392.27 94.1419 392.32 93.8657 392.32ZM103.326 386.512V390.089H102.413V384.142H103.295V385.071H103.373C103.512 384.769 103.724 384.527 104.008 384.344C104.292 384.158 104.658 384.065 105.107 384.065C105.51 384.065 105.863 384.147 106.165 384.313C106.467 384.475 106.701 384.723 106.869 385.056C107.037 385.386 107.121 385.805 107.121 386.31V390.089H106.207V386.372C106.207 385.905 106.086 385.541 105.843 385.281C105.601 385.017 105.268 384.886 104.844 384.886C104.553 384.886 104.292 384.949 104.062 385.075C103.835 385.202 103.656 385.386 103.524 385.629C103.392 385.872 103.326 386.166 103.326 386.512ZM108.791 390.089V384.142H109.704V390.089H108.791ZM109.255 383.151C109.077 383.151 108.923 383.09 108.794 382.969C108.668 382.848 108.605 382.702 108.605 382.532C108.605 382.361 108.668 382.215 108.794 382.094C108.923 381.973 109.077 381.912 109.255 381.912C109.433 381.912 109.586 381.973 109.712 382.094C109.841 382.215 109.906 382.361 109.906 382.532C109.906 382.702 109.841 382.848 109.712 382.969C109.586 383.09 109.433 383.151 109.255 383.151ZM111.502 390.089V382.16H112.416V385.087H112.493C112.56 384.984 112.653 384.852 112.772 384.692C112.893 384.529 113.066 384.385 113.291 384.258C113.518 384.129 113.825 384.065 114.212 384.065C114.713 384.065 115.154 384.19 115.536 384.44C115.918 384.691 116.216 385.046 116.431 385.505C116.645 385.965 116.752 386.507 116.752 387.131C116.752 387.761 116.645 388.307 116.431 388.769C116.216 389.229 115.92 389.585 115.54 389.838C115.161 390.088 114.723 390.213 114.228 390.213C113.846 390.213 113.54 390.15 113.31 390.024C113.08 389.894 112.903 389.749 112.779 389.586C112.656 389.421 112.56 389.284 112.493 389.176H112.385V390.089H111.502ZM112.4 387.116C112.4 387.565 112.466 387.961 112.598 388.304C112.729 388.645 112.921 388.912 113.174 389.106C113.427 389.297 113.737 389.392 114.104 389.392C114.486 389.392 114.804 389.292 115.06 389.09C115.318 388.887 115.512 388.613 115.641 388.27C115.772 387.924 115.838 387.539 115.838 387.116C115.838 386.698 115.774 386.321 115.645 385.985C115.518 385.647 115.326 385.38 115.068 385.184C114.812 384.985 114.491 384.886 114.104 384.886C113.732 384.886 113.42 384.98 113.167 385.168C112.914 385.354 112.723 385.615 112.594 385.95C112.465 386.283 112.4 386.672 112.4 387.116ZM119.063 386.512V390.089H118.15V382.16H119.063V385.071H119.141C119.28 384.764 119.489 384.52 119.768 384.34C120.049 384.156 120.424 384.065 120.891 384.065C121.296 384.065 121.651 384.146 121.956 384.309C122.26 384.469 122.496 384.715 122.664 385.048C122.835 385.379 122.92 385.799 122.92 386.31V390.089H122.006V386.372C122.006 385.9 121.883 385.535 121.638 385.277C121.396 385.016 121.059 384.886 120.628 384.886C120.328 384.886 120.06 384.949 119.822 385.075C119.587 385.202 119.402 385.386 119.265 385.629C119.131 385.872 119.063 386.166 119.063 386.512ZM130.151 390.213C129.578 390.213 129.084 390.087 128.668 389.834C128.255 389.578 127.937 389.222 127.712 388.765C127.49 388.306 127.379 387.771 127.379 387.162C127.379 386.553 127.49 386.016 127.712 385.552C127.937 385.084 128.249 384.72 128.649 384.46C129.052 384.196 129.522 384.065 130.058 384.065C130.368 384.065 130.674 384.116 130.976 384.22C131.278 384.323 131.553 384.491 131.801 384.723C132.049 384.953 132.246 385.257 132.393 385.637C132.54 386.016 132.614 386.483 132.614 387.038V387.426H128.03V386.636H131.685C131.685 386.3 131.617 386.001 131.483 385.737C131.352 385.474 131.163 385.266 130.918 385.114C130.675 384.962 130.389 384.886 130.058 384.886C129.694 384.886 129.38 384.976 129.114 385.157C128.85 385.335 128.648 385.567 128.506 385.854C128.364 386.14 128.293 386.447 128.293 386.775V387.302C128.293 387.751 128.37 388.132 128.525 388.444C128.683 388.754 128.901 388.99 129.18 389.152C129.458 389.312 129.782 389.392 130.151 389.392C130.391 389.392 130.608 389.359 130.802 389.292C130.998 389.222 131.167 389.119 131.309 388.982C131.451 388.843 131.561 388.67 131.638 388.463L132.521 388.711C132.428 389.01 132.272 389.274 132.052 389.501C131.833 389.725 131.562 389.901 131.239 390.027C130.917 390.151 130.554 390.213 130.151 390.213ZM137.752 387.658V384.142H138.665V390.089H137.752V389.083H137.69C137.55 389.385 137.334 389.642 137.039 389.853C136.745 390.062 136.373 390.167 135.924 390.167C135.552 390.167 135.222 390.085 134.933 389.923C134.644 389.758 134.417 389.51 134.252 389.179C134.086 388.847 134.004 388.427 134.004 387.921V384.142H134.918V387.859C134.918 388.293 135.039 388.639 135.281 388.897C135.527 389.155 135.839 389.284 136.218 389.284C136.446 389.284 136.677 389.226 136.912 389.11C137.149 388.994 137.348 388.816 137.508 388.575C137.67 388.335 137.752 388.03 137.752 387.658ZM140.339 390.089V384.142H141.253V390.089H140.339ZM140.804 383.151C140.626 383.151 140.472 383.09 140.343 382.969C140.216 382.848 140.153 382.702 140.153 382.532C140.153 382.361 140.216 382.215 140.343 382.094C140.472 381.973 140.626 381.912 140.804 381.912C140.982 381.912 141.134 381.973 141.261 382.094C141.39 382.215 141.454 382.361 141.454 382.532C141.454 382.702 141.39 382.848 141.261 382.969C141.134 383.09 140.982 383.151 140.804 383.151ZM147.139 385.474L146.318 385.706C146.266 385.57 146.19 385.437 146.09 385.308C145.992 385.176 145.857 385.068 145.687 384.982C145.517 384.897 145.298 384.855 145.033 384.855C144.669 384.855 144.365 384.939 144.123 385.106C143.883 385.272 143.763 385.482 143.763 385.737C143.763 385.965 143.845 386.144 144.01 386.276C144.176 386.407 144.434 386.517 144.785 386.605L145.668 386.822C146.199 386.951 146.596 387.148 146.856 387.414C147.117 387.677 147.247 388.017 147.247 388.432C147.247 388.773 147.149 389.078 146.953 389.346C146.759 389.614 146.488 389.826 146.14 389.981C145.791 390.136 145.386 390.213 144.924 390.213C144.318 390.213 143.816 390.082 143.418 389.818C143.021 389.555 142.769 389.17 142.663 388.665L143.53 388.448C143.613 388.768 143.769 389.008 143.999 389.168C144.231 389.328 144.534 389.408 144.909 389.408C145.335 389.408 145.673 389.318 145.923 389.137C146.176 388.954 146.303 388.734 146.303 388.479C146.303 388.272 146.23 388.099 146.086 387.96C145.941 387.818 145.719 387.712 145.42 387.642L144.429 387.41C143.884 387.281 143.484 387.081 143.228 386.81C142.975 386.536 142.849 386.194 142.849 385.784C142.849 385.448 142.943 385.152 143.132 384.893C143.323 384.635 143.582 384.433 143.91 384.286C144.24 384.138 144.614 384.065 145.033 384.065C145.621 384.065 146.083 384.194 146.419 384.452C146.757 384.71 146.997 385.051 147.139 385.474ZM148.623 390.089V384.142H149.506V385.071H149.583C149.707 384.754 149.907 384.507 150.183 384.332C150.459 384.154 150.791 384.065 151.178 384.065C151.57 384.065 151.897 384.154 152.158 384.332C152.421 384.507 152.626 384.754 152.773 385.071H152.835C152.988 384.764 153.216 384.52 153.521 384.34C153.825 384.156 154.19 384.065 154.616 384.065C155.148 384.065 155.583 384.231 155.921 384.564C156.259 384.895 156.428 385.41 156.428 386.109V390.089H155.515V386.109C155.515 385.67 155.395 385.357 155.154 385.168C154.914 384.98 154.632 384.886 154.307 384.886C153.888 384.886 153.564 385.012 153.335 385.265C153.105 385.515 152.99 385.833 152.99 386.218V390.089H152.061V386.016C152.061 385.678 151.951 385.406 151.732 385.199C151.512 384.99 151.23 384.886 150.884 384.886C150.646 384.886 150.424 384.949 150.218 385.075C150.014 385.202 149.849 385.377 149.722 385.602C149.598 385.824 149.537 386.081 149.537 386.372V390.089H148.623ZM160.515 390.213C159.978 390.213 159.507 390.085 159.102 389.83C158.699 389.574 158.384 389.217 158.157 388.757C157.933 388.298 157.82 387.761 157.82 387.147C157.82 386.527 157.933 385.987 158.157 385.524C158.384 385.062 158.699 384.704 159.102 384.448C159.507 384.193 159.978 384.065 160.515 384.065C161.052 384.065 161.522 384.193 161.924 384.448C162.33 384.704 162.645 385.062 162.869 385.524C163.096 385.987 163.21 386.527 163.21 387.147C163.21 387.761 163.096 388.298 162.869 388.757C162.645 389.217 162.33 389.574 161.924 389.83C161.522 390.085 161.052 390.213 160.515 390.213ZM160.515 389.392C160.923 389.392 161.258 389.288 161.522 389.079C161.785 388.87 161.98 388.595 162.106 388.254C162.233 387.913 162.296 387.544 162.296 387.147C162.296 386.749 162.233 386.379 162.106 386.036C161.98 385.692 161.785 385.415 161.522 385.203C161.258 384.991 160.923 384.886 160.515 384.886C160.107 384.886 159.772 384.991 159.508 385.203C159.245 385.415 159.05 385.692 158.924 386.036C158.797 386.379 158.734 386.749 158.734 387.147C158.734 387.544 158.797 387.913 158.924 388.254C159.05 388.595 159.245 388.87 159.508 389.079C159.772 389.288 160.107 389.392 160.515 389.392ZM166.85 390.213C166.355 390.213 165.917 390.088 165.538 389.838C165.158 389.585 164.861 389.229 164.647 388.769C164.433 388.307 164.326 387.761 164.326 387.131C164.326 386.507 164.433 385.965 164.647 385.505C164.861 385.046 165.16 384.691 165.542 384.44C165.924 384.19 166.365 384.065 166.866 384.065C167.253 384.065 167.559 384.129 167.783 384.258C168.011 384.385 168.183 384.529 168.302 384.692C168.424 384.852 168.518 384.984 168.585 385.087H168.662V382.16H169.576V390.089H168.693V389.176H168.585C168.518 389.284 168.422 389.421 168.298 389.586C168.174 389.749 167.998 389.894 167.768 390.024C167.538 390.15 167.232 390.213 166.85 390.213ZM166.974 389.392C167.341 389.392 167.65 389.297 167.903 389.106C168.156 388.912 168.349 388.645 168.48 388.304C168.612 387.961 168.678 387.565 168.678 387.116C168.678 386.672 168.613 386.283 168.484 385.95C168.355 385.615 168.164 385.354 167.911 385.168C167.658 384.98 167.346 384.886 166.974 384.886C166.587 384.886 166.264 384.985 166.006 385.184C165.751 385.38 165.558 385.647 165.429 385.985C165.303 386.321 165.24 386.698 165.24 387.116C165.24 387.539 165.304 387.924 165.433 388.27C165.565 388.613 165.758 388.887 166.014 389.09C166.272 389.292 166.592 389.392 166.974 389.392ZM177.029 384.142V384.917H173.947V384.142H177.029ZM174.846 382.717H175.759V388.386C175.759 388.644 175.797 388.837 175.872 388.967C175.949 389.093 176.047 389.178 176.166 389.222C176.287 389.263 176.415 389.284 176.549 389.284C176.65 389.284 176.732 389.279 176.797 389.269C176.861 389.256 176.913 389.245 176.952 389.238L177.138 390.058C177.076 390.082 176.989 390.105 176.878 390.128C176.767 390.154 176.627 390.167 176.456 390.167C176.198 390.167 175.945 390.111 175.697 390C175.452 389.889 175.248 389.72 175.086 389.493C174.926 389.266 174.846 388.979 174.846 388.634V382.717ZM178.404 390.089V384.142H179.317V390.089H178.404ZM178.868 383.151C178.69 383.151 178.537 383.09 178.408 382.969C178.281 382.848 178.218 382.702 178.218 382.532C178.218 382.361 178.281 382.215 178.408 382.094C178.537 381.973 178.69 381.912 178.868 381.912C179.046 381.912 179.199 381.973 179.325 382.094C179.454 382.215 179.519 382.361 179.519 382.532C179.519 382.702 179.454 382.848 179.325 382.969C179.199 383.09 179.046 383.151 178.868 383.151ZM181.905 386.512V390.089H180.991V384.142H181.874V385.071H181.951C182.091 384.769 182.302 384.527 182.586 384.344C182.87 384.158 183.237 384.065 183.686 384.065C184.089 384.065 184.441 384.147 184.743 384.313C185.045 384.475 185.28 384.723 185.448 385.056C185.615 385.386 185.699 385.805 185.699 386.31V390.089H184.785V386.372C184.785 385.905 184.664 385.541 184.422 385.281C184.179 385.017 183.846 384.886 183.423 384.886C183.131 384.886 182.87 384.949 182.64 385.075C182.413 385.202 182.234 385.386 182.102 385.629C181.971 385.872 181.905 386.166 181.905 386.512ZM189.785 390.213C189.227 390.213 188.747 390.082 188.345 389.818C187.942 389.555 187.632 389.192 187.415 388.73C187.199 388.268 187.09 387.74 187.09 387.147C187.09 386.543 187.201 386.01 187.423 385.548C187.648 385.083 187.96 384.72 188.36 384.46C188.763 384.196 189.233 384.065 189.769 384.065C190.188 384.065 190.564 384.142 190.9 384.297C191.236 384.452 191.51 384.669 191.725 384.948C191.939 385.226 192.072 385.552 192.124 385.923H191.21C191.14 385.652 190.985 385.412 190.745 385.203C190.508 384.991 190.188 384.886 189.785 384.886C189.429 384.886 189.116 384.979 188.848 385.164C188.582 385.348 188.374 385.607 188.225 385.943C188.077 386.276 188.004 386.667 188.004 387.116C188.004 387.575 188.076 387.975 188.221 388.316C188.368 388.657 188.574 388.921 188.84 389.11C189.109 389.298 189.424 389.392 189.785 389.392C190.022 389.392 190.238 389.351 190.432 389.269C190.625 389.186 190.789 389.067 190.923 388.912C191.057 388.757 191.153 388.572 191.21 388.355H192.124C192.072 388.706 191.944 389.022 191.74 389.303C191.539 389.582 191.272 389.804 190.939 389.969C190.608 390.132 190.224 390.213 189.785 390.213ZM193.459 390.089V384.142H194.373V390.089H193.459ZM193.924 383.151C193.746 383.151 193.592 383.09 193.463 382.969C193.337 382.848 193.273 382.702 193.273 382.532C193.273 382.361 193.337 382.215 193.463 382.094C193.592 381.973 193.746 381.912 193.924 381.912C194.102 381.912 194.254 381.973 194.381 382.094C194.51 382.215 194.574 382.361 194.574 382.532C194.574 382.702 194.51 382.848 194.381 382.969C194.254 383.09 194.102 383.151 193.924 383.151ZM198.292 390.213C197.797 390.213 197.359 390.088 196.98 389.838C196.6 389.585 196.303 389.229 196.089 388.769C195.875 388.307 195.768 387.761 195.768 387.131C195.768 386.507 195.875 385.965 196.089 385.505C196.303 385.046 196.602 384.691 196.984 384.44C197.366 384.19 197.807 384.065 198.308 384.065C198.695 384.065 199.001 384.129 199.225 384.258C199.453 384.385 199.625 384.529 199.744 384.692C199.866 384.852 199.96 384.984 200.027 385.087H200.104V382.16H201.018V390.089H200.135V389.176H200.027C199.96 389.284 199.864 389.421 199.74 389.586C199.616 389.749 199.44 389.894 199.21 390.024C198.98 390.15 198.674 390.213 198.292 390.213ZM198.416 389.392C198.783 389.392 199.092 389.297 199.345 389.106C199.598 388.912 199.791 388.645 199.922 388.304C200.054 387.961 200.12 387.565 200.12 387.116C200.12 386.672 200.055 386.283 199.926 385.95C199.797 385.615 199.606 385.354 199.353 385.168C199.1 384.98 198.788 384.886 198.416 384.886C198.029 384.886 197.706 384.985 197.448 385.184C197.193 385.38 197 385.647 196.871 385.985C196.745 386.321 196.682 386.698 196.682 387.116C196.682 387.539 196.746 387.924 196.875 388.27C197.007 388.613 197.2 388.887 197.456 389.09C197.714 389.292 198.034 389.392 198.416 389.392ZM206.566 387.658V384.142H207.48V390.089H206.566V389.083H206.504C206.365 389.385 206.148 389.642 205.854 389.853C205.56 390.062 205.188 390.167 204.739 390.167C204.367 390.167 204.037 390.085 203.748 389.923C203.459 389.758 203.231 389.51 203.066 389.179C202.901 388.847 202.818 388.427 202.818 387.921V384.142H203.732V387.859C203.732 388.293 203.853 388.639 204.096 388.897C204.341 389.155 204.654 389.284 205.033 389.284C205.26 389.284 205.491 389.226 205.726 389.11C205.964 388.994 206.162 388.816 206.322 388.575C206.485 388.335 206.566 388.03 206.566 387.658ZM210.067 386.512V390.089H209.154V384.142H210.036V385.071H210.114C210.253 384.769 210.465 384.527 210.749 384.344C211.033 384.158 211.399 384.065 211.848 384.065C212.251 384.065 212.603 384.147 212.905 384.313C213.207 384.475 213.442 384.723 213.61 385.056C213.778 385.386 213.862 385.805 213.862 386.31V390.089H212.948V386.372C212.948 385.905 212.827 385.541 212.584 385.281C212.341 385.017 212.008 384.886 211.585 384.886C211.293 384.886 211.033 384.949 210.803 385.075C210.576 385.202 210.396 385.386 210.265 385.629C210.133 385.872 210.067 386.166 210.067 386.512ZM218.118 384.142V384.917H215.036V384.142H218.118ZM215.934 382.717H216.848V388.386C216.848 388.644 216.885 388.837 216.96 388.967C217.038 389.093 217.136 389.178 217.254 389.222C217.376 389.263 217.504 389.284 217.638 389.284C217.738 389.284 217.821 389.279 217.886 389.269C217.95 389.256 218.002 389.245 218.04 389.238L218.226 390.058C218.164 390.082 218.078 390.105 217.967 390.128C217.856 390.154 217.715 390.167 217.545 390.167C217.287 390.167 217.034 390.111 216.786 390C216.541 389.889 216.337 389.72 216.174 389.493C216.014 389.266 215.934 388.979 215.934 388.634V382.717ZM226.307 387.658V384.142H227.22V390.089H226.307V389.083H226.245C226.105 389.385 225.889 389.642 225.594 389.853C225.3 390.062 224.928 390.167 224.479 390.167C224.108 390.167 223.777 390.085 223.488 389.923C223.199 389.758 222.972 389.51 222.807 389.179C222.641 388.847 222.559 388.427 222.559 387.921V384.142H223.473V387.859C223.473 388.293 223.594 388.639 223.837 388.897C224.082 389.155 224.394 389.284 224.774 389.284C225.001 389.284 225.232 389.226 225.467 389.11C225.704 388.994 225.903 388.816 226.063 388.575C226.225 388.335 226.307 388.03 226.307 387.658ZM231.48 384.142V384.917H228.398V384.142H231.48ZM229.297 382.717H230.21V388.386C230.21 388.644 230.248 388.837 230.323 388.967C230.4 389.093 230.498 389.178 230.617 389.222C230.738 389.263 230.866 389.284 231 389.284C231.101 389.284 231.184 389.279 231.248 389.269C231.313 389.256 231.364 389.245 231.403 389.238L231.589 390.058C231.527 390.082 231.44 390.105 231.329 390.128C231.218 390.154 231.078 390.167 230.907 390.167C230.649 390.167 230.396 390.111 230.149 390C229.903 389.889 229.699 389.72 229.537 389.493C229.377 389.266 229.297 388.979 229.297 388.634V382.717ZM236.835 382.16V390.089H235.921V382.16H236.835ZM240.259 390.229C239.882 390.229 239.54 390.158 239.233 390.016C238.926 389.871 238.682 389.663 238.501 389.392C238.32 389.119 238.23 388.788 238.23 388.401C238.23 388.061 238.297 387.784 238.431 387.573C238.566 387.358 238.745 387.191 238.969 387.069C239.194 386.948 239.442 386.858 239.713 386.798C239.986 386.736 240.261 386.687 240.538 386.651C240.899 386.605 241.192 386.57 241.416 386.547C241.644 386.521 241.809 386.478 241.912 386.419C242.018 386.36 242.071 386.256 242.071 386.109V386.078C242.071 385.696 241.966 385.399 241.757 385.188C241.551 384.976 241.237 384.87 240.816 384.87C240.38 384.87 240.038 384.966 239.79 385.157C239.543 385.348 239.368 385.552 239.268 385.768L238.4 385.459C238.555 385.097 238.762 384.816 239.02 384.615C239.281 384.411 239.564 384.269 239.872 384.189C240.181 384.106 240.486 384.065 240.785 384.065C240.976 384.065 241.196 384.088 241.444 384.135C241.694 384.178 241.935 384.27 242.168 384.409C242.402 384.549 242.597 384.759 242.752 385.041C242.907 385.322 242.985 385.699 242.985 386.171V390.089H242.071V389.284H242.024C241.962 389.413 241.859 389.551 241.715 389.698C241.57 389.845 241.378 389.971 241.138 390.074C240.898 390.177 240.605 390.229 240.259 390.229ZM240.398 389.408C240.76 389.408 241.064 389.337 241.312 389.195C241.562 389.053 241.751 388.87 241.877 388.645C242.006 388.421 242.071 388.184 242.071 387.937V387.1C242.032 387.147 241.947 387.189 241.815 387.228C241.686 387.264 241.536 387.296 241.366 387.325C241.198 387.351 241.034 387.374 240.874 387.395C240.717 387.413 240.589 387.428 240.491 387.441C240.254 387.472 240.032 387.522 239.825 387.592C239.621 387.659 239.456 387.761 239.33 387.898C239.206 388.032 239.144 388.215 239.144 388.448C239.144 388.765 239.261 389.005 239.496 389.168C239.734 389.328 240.034 389.408 240.398 389.408ZM247.068 390.213C246.531 390.213 246.06 390.085 245.655 389.83C245.252 389.574 244.938 389.217 244.71 388.757C244.486 388.298 244.374 387.761 244.374 387.147C244.374 386.527 244.486 385.987 244.71 385.524C244.938 385.062 245.252 384.704 245.655 384.448C246.06 384.193 246.531 384.065 247.068 384.065C247.605 384.065 248.075 384.193 248.478 384.448C248.883 384.704 249.198 385.062 249.422 385.524C249.65 385.987 249.763 386.527 249.763 387.147C249.763 387.761 249.65 388.298 249.422 388.757C249.198 389.217 248.883 389.574 248.478 389.83C248.075 390.085 247.605 390.213 247.068 390.213ZM247.068 389.392C247.476 389.392 247.812 389.288 248.075 389.079C248.338 388.87 248.533 388.595 248.66 388.254C248.786 387.913 248.849 387.544 248.849 387.147C248.849 386.749 248.786 386.379 248.66 386.036C248.533 385.692 248.338 385.415 248.075 385.203C247.812 384.991 247.476 384.886 247.068 384.886C246.661 384.886 246.325 384.991 246.062 385.203C245.798 385.415 245.604 385.692 245.477 386.036C245.351 386.379 245.287 386.749 245.287 387.147C245.287 387.544 245.351 387.913 245.477 388.254C245.604 388.595 245.798 388.87 246.062 389.079C246.325 389.288 246.661 389.392 247.068 389.392ZM251.158 390.089V384.142H252.041V385.041H252.103C252.211 384.746 252.407 384.507 252.691 384.324C252.975 384.141 253.295 384.049 253.651 384.049C253.718 384.049 253.802 384.051 253.903 384.053C254.004 384.056 254.08 384.06 254.131 384.065V384.994C254.101 384.986 254.03 384.975 253.919 384.959C253.81 384.941 253.695 384.932 253.574 384.932C253.285 384.932 253.027 384.993 252.8 385.114C252.575 385.233 252.397 385.398 252.265 385.61C252.136 385.819 252.072 386.058 252.072 386.326V390.089H251.158ZM257.527 390.213C256.954 390.213 256.46 390.087 256.044 389.834C255.631 389.578 255.312 389.222 255.088 388.765C254.866 388.306 254.755 387.771 254.755 387.162C254.755 386.553 254.866 386.016 255.088 385.552C255.312 385.084 255.625 384.72 256.025 384.46C256.427 384.196 256.897 384.065 257.434 384.065C257.744 384.065 258.05 384.116 258.352 384.22C258.654 384.323 258.929 384.491 259.176 384.723C259.424 384.953 259.622 385.257 259.769 385.637C259.916 386.016 259.99 386.483 259.99 387.038V387.426H255.405V386.636H259.06C259.06 386.3 258.993 386.001 258.859 385.737C258.727 385.474 258.539 385.266 258.294 385.114C258.051 384.962 257.765 384.886 257.434 384.886C257.07 384.886 256.755 384.976 256.489 385.157C256.226 385.335 256.024 385.567 255.882 385.854C255.74 386.14 255.669 386.447 255.669 386.775V387.302C255.669 387.751 255.746 388.132 255.901 388.444C256.058 388.754 256.276 388.99 256.555 389.152C256.834 389.312 257.158 389.392 257.527 389.392C257.767 389.392 257.984 389.359 258.178 389.292C258.374 389.222 258.543 389.119 258.685 388.982C258.827 388.843 258.936 388.67 259.014 388.463L259.897 388.711C259.804 389.01 259.648 389.274 259.428 389.501C259.209 389.725 258.938 389.901 258.615 390.027C258.292 390.151 257.93 390.213 257.527 390.213ZM263.873 390.213C263.3 390.213 262.806 390.087 262.39 389.834C261.977 389.578 261.658 389.222 261.434 388.765C261.212 388.306 261.101 387.771 261.101 387.162C261.101 386.553 261.212 386.016 261.434 385.552C261.658 385.084 261.971 384.72 262.371 384.46C262.773 384.196 263.243 384.065 263.78 384.065C264.09 384.065 264.396 384.116 264.698 384.22C265 384.323 265.275 384.491 265.522 384.723C265.77 384.953 265.968 385.257 266.115 385.637C266.262 386.016 266.335 386.483 266.335 387.038V387.426H261.751V386.636H265.406C265.406 386.3 265.339 386.001 265.205 385.737C265.073 385.474 264.885 385.266 264.64 385.114C264.397 384.962 264.11 384.886 263.78 384.886C263.416 384.886 263.101 384.976 262.835 385.157C262.572 385.335 262.369 385.567 262.227 385.854C262.085 386.14 262.014 386.447 262.014 386.775V387.302C262.014 387.751 262.092 388.132 262.247 388.444C262.404 388.754 262.622 388.99 262.901 389.152C263.18 389.312 263.504 389.392 263.873 389.392C264.113 389.392 264.33 389.359 264.523 389.292C264.72 389.222 264.889 389.119 265.031 388.982C265.173 388.843 265.282 388.67 265.36 388.463L266.243 388.711C266.15 389.01 265.993 389.274 265.774 389.501C265.555 389.725 265.284 389.901 264.961 390.027C264.638 390.151 264.276 390.213 263.873 390.213ZM270.312 384.142V384.917H267.23V384.142H270.312ZM268.128 382.717H269.042V388.386C269.042 388.644 269.079 388.837 269.154 388.967C269.232 389.093 269.33 389.178 269.448 389.222C269.57 389.263 269.697 389.284 269.832 389.284C269.932 389.284 270.015 389.279 270.079 389.269C270.144 389.256 270.196 389.245 270.234 389.238L270.42 390.058C270.358 390.082 270.272 390.105 270.161 390.128C270.05 390.154 269.909 390.167 269.739 390.167C269.481 390.167 269.228 390.111 268.98 390C268.735 389.889 268.531 389.72 268.368 389.493C268.208 389.266 268.128 388.979 268.128 388.634V382.717ZM276.998 390.213C276.503 390.213 276.065 390.088 275.686 389.838C275.306 389.585 275.01 389.229 274.795 388.769C274.581 388.307 274.474 387.761 274.474 387.131C274.474 386.507 274.581 385.965 274.795 385.505C275.01 385.046 275.308 384.691 275.69 384.44C276.072 384.19 276.513 384.065 277.014 384.065C277.401 384.065 277.707 384.129 277.931 384.258C278.159 384.385 278.332 384.529 278.45 384.692C278.572 384.852 278.666 384.984 278.733 385.087H278.81V382.16H279.724V390.089H278.841V389.176H278.733C278.666 389.284 278.57 389.421 278.446 389.586C278.323 389.749 278.146 389.894 277.916 390.024C277.686 390.15 277.38 390.213 276.998 390.213ZM277.122 389.392C277.489 389.392 277.799 389.297 278.052 389.106C278.304 388.912 278.497 388.645 278.628 388.304C278.76 387.961 278.826 387.565 278.826 387.116C278.826 386.672 278.761 386.283 278.632 385.95C278.503 385.615 278.312 385.354 278.059 385.168C277.806 384.98 277.494 384.886 277.122 384.886C276.735 384.886 276.412 384.985 276.154 385.184C275.899 385.38 275.706 385.647 275.577 385.985C275.451 386.321 275.388 386.698 275.388 387.116C275.388 387.539 275.452 387.924 275.581 388.27C275.713 388.613 275.907 388.887 276.162 389.09C276.42 389.292 276.74 389.392 277.122 389.392ZM283.941 390.213C283.404 390.213 282.933 390.085 282.527 389.83C282.125 389.574 281.81 389.217 281.583 388.757C281.358 388.298 281.246 387.761 281.246 387.147C281.246 386.527 281.358 385.987 281.583 385.524C281.81 385.062 282.125 384.704 282.527 384.448C282.933 384.193 283.404 384.065 283.941 384.065C284.477 384.065 284.947 384.193 285.35 384.448C285.755 384.704 286.07 385.062 286.295 385.524C286.522 385.987 286.635 386.527 286.635 387.147C286.635 387.761 286.522 388.298 286.295 388.757C286.07 389.217 285.755 389.574 285.35 389.83C284.947 390.085 284.477 390.213 283.941 390.213ZM283.941 389.392C284.348 389.392 284.684 389.288 284.947 389.079C285.21 388.87 285.405 388.595 285.532 388.254C285.658 387.913 285.722 387.544 285.722 387.147C285.722 386.749 285.658 386.379 285.532 386.036C285.405 385.692 285.21 385.415 284.947 385.203C284.684 384.991 284.348 384.886 283.941 384.886C283.533 384.886 283.197 384.991 282.934 385.203C282.671 385.415 282.476 385.692 282.349 386.036C282.223 386.379 282.16 386.749 282.16 387.147C282.16 387.544 282.223 387.913 282.349 388.254C282.476 388.595 282.671 388.87 282.934 389.079C283.197 389.288 283.533 389.392 283.941 389.392ZM288.944 382.16V390.089H288.03V382.16H288.944ZM293.033 390.213C292.497 390.213 292.026 390.085 291.62 389.83C291.218 389.574 290.903 389.217 290.676 388.757C290.451 388.298 290.339 387.761 290.339 387.147C290.339 386.527 290.451 385.987 290.676 385.524C290.903 385.062 291.218 384.704 291.62 384.448C292.026 384.193 292.497 384.065 293.033 384.065C293.57 384.065 294.04 384.193 294.443 384.448C294.848 384.704 295.163 385.062 295.388 385.524C295.615 385.987 295.728 386.527 295.728 387.147C295.728 387.761 295.615 388.298 295.388 388.757C295.163 389.217 294.848 389.574 294.443 389.83C294.04 390.085 293.57 390.213 293.033 390.213ZM293.033 389.392C293.441 389.392 293.777 389.288 294.04 389.079C294.303 388.87 294.498 388.595 294.625 388.254C294.751 387.913 294.815 387.544 294.815 387.147C294.815 386.749 294.751 386.379 294.625 386.036C294.498 385.692 294.303 385.415 294.04 385.203C293.777 384.991 293.441 384.886 293.033 384.886C292.626 384.886 292.29 384.991 292.027 385.203C291.764 385.415 291.569 385.692 291.442 386.036C291.316 386.379 291.252 386.749 291.252 387.147C291.252 387.544 291.316 387.913 291.442 388.254C291.569 388.595 291.764 388.87 292.027 389.079C292.29 389.288 292.626 389.392 293.033 389.392ZM297.123 390.089V384.142H298.006V385.041H298.068C298.176 384.746 298.372 384.507 298.656 384.324C298.94 384.141 299.26 384.049 299.617 384.049C299.684 384.049 299.768 384.051 299.868 384.053C299.969 384.056 300.045 384.06 300.097 384.065V384.994C300.066 384.986 299.995 384.975 299.884 384.959C299.775 384.941 299.66 384.932 299.539 384.932C299.25 384.932 298.992 384.993 298.765 385.114C298.54 385.233 298.362 385.398 298.23 385.61C298.101 385.819 298.037 386.058 298.037 386.326V390.089H297.123ZM303.492 390.213C302.919 390.213 302.425 390.087 302.009 389.834C301.596 389.578 301.278 389.222 301.053 388.765C300.831 388.306 300.72 387.771 300.72 387.162C300.72 386.553 300.831 386.016 301.053 385.552C301.278 385.084 301.59 384.72 301.99 384.46C302.393 384.196 302.862 384.065 303.399 384.065C303.709 384.065 304.015 384.116 304.317 384.22C304.619 384.323 304.894 384.491 305.142 384.723C305.389 384.953 305.587 385.257 305.734 385.637C305.881 386.016 305.955 386.483 305.955 387.038V387.426H301.37V386.636H305.025C305.025 386.3 304.958 386.001 304.824 385.737C304.692 385.474 304.504 385.266 304.259 385.114C304.016 384.962 303.73 384.886 303.399 384.886C303.035 384.886 302.72 384.976 302.455 385.157C302.191 385.335 301.989 385.567 301.847 385.854C301.705 386.14 301.634 386.447 301.634 386.775V387.302C301.634 387.751 301.711 388.132 301.866 388.444C302.024 388.754 302.242 388.99 302.52 389.152C302.799 389.312 303.123 389.392 303.492 389.392C303.732 389.392 303.949 389.359 304.143 389.292C304.339 389.222 304.508 389.119 304.65 388.982C304.792 388.843 304.902 388.67 304.979 388.463L305.862 388.711C305.769 389.01 305.613 389.274 305.393 389.501C305.174 389.725 304.903 389.901 304.58 390.027C304.258 390.151 303.895 390.213 303.492 390.213Z" fill="#936F6D"/>
<path d="M222.486 409.495H82.9058V411.88H222.486V409.495Z" fill="#936F6D"/>
</g>
<g filter="url(#filter0_b_1_4348)">
<rect x="37" y="361" width="267" height="72" rx="15" fill="black" fill-opacity="0.15"/>
<rect x="37.5" y="361.5" width="266" height="71" rx="14.5" stroke="url(#paint7_linear_1_4348)"/>
</g>
<path d="M119.304 414V380.4H127.08V414H119.304ZM149.166 407.472L151.182 412.752C149.646 413.856 147.39 414.384 145.086 414.384C138.99 414.384 135.438 411.264 135.438 405.12V394.512H131.454V388.752H135.438V382.464H142.926V388.752H149.358V394.512H142.926V405.024C142.926 407.232 144.126 408.432 146.142 408.432C147.246 408.432 148.35 408.096 149.166 407.472ZM165.802 387.792C173.674 387.792 178.234 391.44 178.234 399.264V414H171.226V410.784C169.834 413.136 167.146 414.384 163.354 414.384C157.306 414.384 153.706 411.024 153.706 406.56C153.706 402 156.922 398.832 164.794 398.832H170.746C170.746 395.616 168.826 393.744 164.794 393.744C162.058 393.744 159.226 394.656 157.354 396.144L154.666 390.912C157.498 388.896 161.674 387.792 165.802 387.792ZM165.226 409.344C167.722 409.344 169.882 408.192 170.746 405.84V403.2H165.61C162.106 403.2 161.002 404.496 161.002 406.224C161.002 408.096 162.586 409.344 165.226 409.344ZM185.011 414V378.384H192.499V414H185.011ZM217.88 388.176H225.08L213.416 415.584C210.92 421.824 207.368 423.696 202.712 423.696C200.072 423.696 197.192 422.832 195.512 421.344L198.248 416.016C199.4 417.024 200.984 417.648 202.472 417.648C204.536 417.648 205.688 416.736 206.696 414.432L206.792 414.192L195.608 388.176H203.336L210.584 405.696L217.88 388.176Z" fill="white"/>
<defs>
<filter id="filter0_b_1_4348" x="22" y="346" width="297" height="102" filterUnits="userSpaceOnUse" color-interpolation-filters="sRGB">
<feFlood flood-opacity="0" result="BackgroundImageFix"/>
<feGaussianBlur in="BackgroundImageFix" stdDeviation="7.5"/>
<feComposite in2="SourceAlpha" operator="in" result="effect1_backgroundBlur_1_4348"/>
<feBlend mode="normal" in="SourceGraphic" in2="effect1_backgroundBlur_1_4348" result="shape"/>
</filter>
<linearGradient id="paint0_linear_1_4348" x1="170.365" y1="22.2501" x2="170.365" y2="421.685" gradientUnits="userSpaceOnUse">
<stop stop-color="#869ACF"/>
<stop offset="0.532" stop-color="#CD9994"/>
<stop offset="1" stop-color="#DADA94"/>
</linearGradient>
<linearGradient id="paint1_linear_1_4348" x1="137.335" y1="327.129" x2="137.335" y2="381.903" gradientUnits="userSpaceOnUse">
<stop offset="0.003" stop-color="#CD9994"/>
<stop offset="1" stop-color="#DADA94"/>
</linearGradient>
<linearGradient id="paint2_linear_1_4348" x1="149.088" y1="227.002" x2="218.108" y2="279.586" gradientUnits="userSpaceOnUse">
<stop offset="0.29" stop-color="#CD8694"/>
<stop offset="1" stop-color="#DADA94"/>
</linearGradient>
<linearGradient id="paint3_linear_1_4348" x1="170.367" y1="338.939" x2="170.367" y2="413.1" gradientUnits="userSpaceOnUse">
<stop stop-color="#A17A94"/>
<stop offset="1" stop-color="#DADA94"/>
</linearGradient>
<linearGradient id="paint4_linear_1_4348" x1="151.454" y1="-51.8577" x2="151.454" y2="477.821" gradientUnits="userSpaceOnUse">
<stop offset="0.024" stop-color="#9CDDBE"/>
<stop offset="0.419" stop-color="#74CCE5"/>
<stop offset="1" stop-color="#DADA94"/>
</linearGradient>
<linearGradient id="paint5_linear_1_4348" x1="163.083" y1="246.774" x2="163.083" y2="379.456" gradientUnits="userSpaceOnUse">
<stop offset="0.024" stop-color="#A17A94"/>
<stop offset="1" stop-color="#DADA94"/>
</linearGradient>
<linearGradient id="paint6_linear_1_4348" x1="151.454" y1="265.648" x2="151.454" y2="398.324" gradientUnits="userSpaceOnUse">
<stop offset="0.024" stop-color="#A17A94"/>
<stop offset="1" stop-color="#DADA94"/>
</linearGradient>
<linearGradient id="paint7_linear_1_4348" x1="37" y1="355.169" x2="120.087" y2="467.909" gradientUnits="userSpaceOnUse">
<stop stop-color="white" stop-opacity="0.59"/>
<stop offset="1" stop-color="white" stop-opacity="0"/>
</linearGradient>
</defs>
</svg>
