<svg width="73" height="73" viewBox="0 0 73 73" fill="none" xmlns="http://www.w3.org/2000/svg">
<g id="Location Icon">
<path id="Vector" d="M55.2936 0.837708H17.559C8.14728 0.837708 0.517578 8.46742 0.517578 17.8791V55.6137C0.517578 65.0254 8.14729 72.6551 17.559 72.6551H55.2936C64.7053 72.6551 72.335 65.0254 72.335 55.6137V17.8791C72.335 8.46741 64.7053 0.837708 55.2936 0.837708Z" fill="#4141A5"/>
<path id="Vector_2" opacity="0.5" d="M38.506 33.5424C37.9256 33.9183 37.2432 34.119 36.5451 34.119C35.609 34.119 34.7113 33.7585 34.0494 33.117C33.3875 32.4754 33.0156 31.6053 33.0156 30.6979C33.0156 30.0213 33.2226 29.3599 33.6105 28.7973C33.9983 28.2347 34.5495 27.7963 35.1944 27.5373C35.8394 27.2784 36.549 27.2107 37.2337 27.3427C37.9183 27.4747 38.5472 27.8005 39.0408 28.2789C39.5345 28.7574 39.8706 29.3669 40.0068 30.0305C40.143 30.6941 40.0731 31.382 39.8059 32.0071C39.5388 32.6322 39.0864 33.1665 38.506 33.5424Z" fill="white"/>
<path id="Vector_3" opacity="0.5" d="M24.1925 50.7447H48.8989C49.3669 50.7447 49.8158 50.9249 50.1468 51.2457C50.4777 51.5665 50.6637 52.0015 50.6637 52.4552C50.6637 52.9089 50.4777 53.3439 50.1468 53.6647C49.8158 53.9855 49.3669 54.1657 48.8989 54.1657H24.1925C23.7244 54.1657 23.2756 53.9855 22.9446 53.6647C22.6137 53.3439 22.4277 52.9089 22.4277 52.4552C22.4277 52.0015 22.6137 51.5665 22.9446 51.2457C23.2756 50.9249 23.7244 50.7447 24.1925 50.7447Z" fill="white"/>
<path id="Vector_4" d="M35.2931 45.9385C35.4572 46.0988 35.6524 46.2261 35.8674 46.3129C36.0825 46.3997 36.3131 46.4444 36.5461 46.4444C36.7791 46.4444 37.0097 46.3997 37.2248 46.3129C37.4398 46.2261 37.635 46.0988 37.7991 45.9385L45.0169 38.9254C46.6933 37.3013 47.8352 35.2318 48.298 32.9787C48.7609 30.7256 48.5239 28.39 47.6172 26.2674C46.7104 24.1448 45.1746 22.3305 43.2039 21.054C41.2333 19.7776 38.9163 19.0963 36.5461 19.0963C34.1759 19.0963 31.8589 19.7776 29.8883 21.054C27.9176 22.3305 26.3818 24.1448 25.475 26.2674C24.5683 28.39 24.3313 30.7256 24.7942 32.9787C25.257 35.2318 26.3989 37.3013 28.0753 38.9254L35.2931 45.9385ZM28.1283 29.911C28.2488 28.6914 28.6489 27.5133 29.2992 26.4628C29.9495 25.4122 30.8337 24.5157 31.8872 23.8387C33.2711 22.9579 34.8905 22.4887 36.5461 22.4887C38.2017 22.4887 39.8211 22.9579 41.205 23.8387C42.2515 24.5134 43.1306 25.4045 43.7793 26.4479C44.428 27.4912 44.8301 28.661 44.9566 29.873C45.0832 31.085 44.9311 32.3091 44.5113 33.4573C44.0914 34.6055 43.4143 35.6493 42.5286 36.5136L36.5461 42.3122L30.5636 36.5136C29.6769 35.6577 28.9982 34.6209 28.5769 33.4788C28.1556 32.3366 28.0023 31.1178 28.1283 29.911Z" fill="white"/>
</g>
</svg>
