<svg width="80" height="75" viewBox="0 0 80 75" fill="none" xmlns="http://www.w3.org/2000/svg">
<g id="Iconly/Glass/Setting">
<g id="Setting">
<g id="Bg">
<g id="Path" filter="url(#filter0_b_34_9045)">
<path d="M52.8188 36.4266C52.3139 35.6391 51.5963 34.8516 50.6661 34.3528C49.9219 33.9853 49.4435 33.3816 49.0183 32.6728C47.6628 30.4153 48.4602 27.4491 50.7192 26.1103C53.3769 24.6141 54.2274 21.2803 52.6859 18.6816L50.9053 15.5841C49.3904 12.9853 46.0682 12.0666 43.4371 13.5891C41.0983 14.8491 38.095 14.0091 36.7396 11.7778C36.3144 11.0428 36.0752 10.2553 36.1283 9.46782C36.2081 8.44407 35.8891 7.47282 35.4107 6.68532C34.4274 5.05782 32.6467 3.95532 30.68 3.95532H26.9326C24.9925 4.00782 23.2118 5.05782 22.2284 6.68532C21.7235 7.47282 21.4311 8.44407 21.4843 9.46782C21.5374 10.2553 21.2982 11.0428 20.873 11.7778C19.5176 14.0091 16.5143 14.8491 14.2021 13.5891C11.5444 12.0666 8.24883 12.9853 6.70735 15.5841L4.92667 18.6816C3.41177 21.2803 4.26224 24.6141 6.89339 26.1103C9.15245 27.4491 9.94977 30.4153 8.62091 32.6728C8.1691 33.3816 7.69071 33.9853 6.94654 34.3528C6.04292 34.8516 5.2456 35.6391 4.82037 36.4266C3.83701 38.0541 3.89016 40.1016 4.87352 41.8078L6.70735 44.9578C7.69071 46.6378 9.52453 47.6878 11.4381 47.6878C12.3417 47.6878 13.4048 47.4253 14.2553 46.9003C14.9197 46.4541 15.717 46.2966 16.5941 46.2966C19.2252 46.2966 21.4311 48.4753 21.4843 51.0741C21.4843 54.0928 23.9294 56.4553 27.0123 56.4553H30.6268C33.6832 56.4553 36.1283 54.0928 36.1283 51.0741C36.2081 48.4753 38.414 46.2966 41.0451 46.2966C41.8956 46.2966 42.6929 46.4541 43.3839 46.9003C44.2344 47.4253 45.2709 47.6878 46.2011 47.6878C48.0881 47.6878 49.9219 46.6378 50.9053 44.9578L52.7657 41.8078C53.7225 40.0491 53.8022 38.0541 52.8188 36.4266Z" fill="url(#paint0_linear_34_9045)"/>
</g>
<g id="Path_2" opacity="0.5" filter="url(#filter1_f_34_9045)">
<path d="M41.36 33.5552C41.0996 33.1499 40.7296 32.7445 40.2499 32.4878C39.8662 32.2987 39.6196 31.9879 39.4003 31.6231C38.7014 30.4612 39.1125 28.9344 40.2774 28.2454C41.6477 27.4752 42.0863 25.7593 41.2914 24.4218L40.3733 22.8275C39.5922 21.4899 37.8792 21.017 36.5225 21.8006C35.3165 22.4491 33.768 22.0168 33.0691 20.8684C32.8498 20.49 32.7265 20.0847 32.7539 19.6794C32.795 19.1525 32.6306 18.6525 32.3839 18.2472C31.8769 17.4095 30.9587 16.8421 29.9446 16.8421H28.0124C27.012 16.8691 26.0938 17.4095 25.5868 18.2472C25.3264 18.6525 25.1757 19.1525 25.2031 19.6794C25.2305 20.0847 25.1072 20.49 24.8879 20.8684C24.189 22.0168 22.6405 22.4491 21.4482 21.8006C20.0778 21.017 18.3786 21.4899 17.5837 22.8275L16.6656 24.4218C15.8844 25.7593 16.323 27.4752 17.6797 28.2454C18.8445 28.9344 19.2556 30.4612 18.5704 31.6231C18.3374 31.9879 18.0908 32.2987 17.7071 32.4878C17.2411 32.7445 16.83 33.1499 16.6108 33.5552C16.1037 34.3929 16.1311 35.4468 16.6382 36.325L17.5837 37.9463C18.0908 38.811 19.0363 39.3514 20.023 39.3514C20.489 39.3514 21.0371 39.2163 21.4756 38.9461C21.8182 38.7164 22.2293 38.6354 22.6816 38.6354C24.0383 38.6354 25.1757 39.7568 25.2031 41.0944C25.2031 42.6481 26.4638 43.8641 28.0535 43.8641H29.9172C31.4932 43.8641 32.7539 42.6481 32.7539 41.0944C32.795 39.7568 33.9325 38.6354 35.2891 38.6354C35.7277 38.6354 36.1388 38.7164 36.4951 38.9461C36.9336 39.2163 37.4681 39.3514 37.9477 39.3514C38.9207 39.3514 39.8662 38.811 40.3733 37.9463L41.3326 36.325C41.8259 35.4197 41.867 34.3929 41.36 33.5552Z" fill="#E31352"/>
</g>
</g>
<g id="Icon">
<g id="Path_3" filter="url(#filter2_b_34_9045)">
<mask id="path-3-outside-1_34_9045" maskUnits="userSpaceOnUse" x="17.7781" y="9.90385" width="62" height="66" fill="black">
<rect fill="white" x="17.7781" y="9.90385" width="62" height="66"/>
<path d="M77.8262 49.9012C77.2141 48.9554 76.3442 48.0096 75.2165 47.4107C74.3144 46.9693 73.7345 46.2442 73.219 45.393C71.5759 42.6818 72.5424 39.1194 75.281 37.5116C78.5028 35.7146 79.5337 31.7108 77.6651 28.5898L75.5065 24.8698C73.6701 21.7487 69.6428 20.6453 66.4533 22.4738C63.6181 23.987 59.9774 22.9782 58.3343 20.2985C57.8188 19.4158 57.5289 18.47 57.5933 17.5243C57.69 16.2948 57.3034 15.1283 56.7234 14.1825C55.5314 12.2279 53.3728 10.9039 50.9886 10.9039H46.4459C44.094 10.9669 41.9354 12.2279 40.7433 14.1825C40.1312 15.1283 39.7768 16.2948 39.8412 17.5243C39.9057 18.47 39.6157 19.4158 39.1002 20.2985C37.4571 22.9782 33.8165 23.987 31.0135 22.4738C27.7917 20.6453 23.7967 21.7487 21.928 24.8698L19.7694 28.5898C17.933 31.7108 18.964 35.7146 22.1536 37.5116C24.8921 39.1194 25.8586 42.6818 24.2477 45.393C23.7 46.2442 23.1201 46.9693 22.218 47.4107C21.1226 48.0096 20.156 48.9554 19.6406 49.9012C18.4485 51.8558 18.5129 54.3148 19.705 56.364L21.928 60.147C23.1201 62.1647 25.3431 63.4257 27.6628 63.4257C28.7582 63.4257 30.047 63.1105 31.0779 62.48C31.8834 61.944 32.8499 61.7549 33.9131 61.7549C37.1027 61.7549 39.7768 64.3715 39.8412 67.4926C39.8412 71.118 42.8053 73.9553 46.5426 73.9553H50.9242C54.6293 73.9553 57.5933 71.118 57.5933 67.4926C57.69 64.3715 60.3641 61.7549 63.5536 61.7549C64.5846 61.7549 65.5512 61.944 66.3888 62.48C67.4198 63.1105 68.6763 63.4257 69.8039 63.4257C72.0914 63.4257 74.3144 62.1647 75.5065 60.147L77.7618 56.364C78.9216 54.2517 79.0183 51.8558 77.8262 49.9012Z"/>
</mask>
<path d="M77.8262 49.9012C77.2141 48.9554 76.3442 48.0096 75.2165 47.4107C74.3144 46.9693 73.7345 46.2442 73.219 45.393C71.5759 42.6818 72.5424 39.1194 75.281 37.5116C78.5028 35.7146 79.5337 31.7108 77.6651 28.5898L75.5065 24.8698C73.6701 21.7487 69.6428 20.6453 66.4533 22.4738C63.6181 23.987 59.9774 22.9782 58.3343 20.2985C57.8188 19.4158 57.5289 18.47 57.5933 17.5243C57.69 16.2948 57.3034 15.1283 56.7234 14.1825C55.5314 12.2279 53.3728 10.9039 50.9886 10.9039H46.4459C44.094 10.9669 41.9354 12.2279 40.7433 14.1825C40.1312 15.1283 39.7768 16.2948 39.8412 17.5243C39.9057 18.47 39.6157 19.4158 39.1002 20.2985C37.4571 22.9782 33.8165 23.987 31.0135 22.4738C27.7917 20.6453 23.7967 21.7487 21.928 24.8698L19.7694 28.5898C17.933 31.7108 18.964 35.7146 22.1536 37.5116C24.8921 39.1194 25.8586 42.6818 24.2477 45.393C23.7 46.2442 23.1201 46.9693 22.218 47.4107C21.1226 48.0096 20.156 48.9554 19.6406 49.9012C18.4485 51.8558 18.5129 54.3148 19.705 56.364L21.928 60.147C23.1201 62.1647 25.3431 63.4257 27.6628 63.4257C28.7582 63.4257 30.047 63.1105 31.0779 62.48C31.8834 61.944 32.8499 61.7549 33.9131 61.7549C37.1027 61.7549 39.7768 64.3715 39.8412 67.4926C39.8412 71.118 42.8053 73.9553 46.5426 73.9553H50.9242C54.6293 73.9553 57.5933 71.118 57.5933 67.4926C57.69 64.3715 60.3641 61.7549 63.5536 61.7549C64.5846 61.7549 65.5512 61.944 66.3888 62.48C67.4198 63.1105 68.6763 63.4257 69.8039 63.4257C72.0914 63.4257 74.3144 62.1647 75.5065 60.147L77.7618 56.364C78.9216 54.2517 79.0183 51.8558 77.8262 49.9012Z" fill="#FF749F" fill-opacity="0.35"/>
<path d="M76.9867 50.4445C77.2868 50.9082 77.9059 51.0408 78.3696 50.7407C78.8332 50.4406 78.9658 49.8215 78.6657 49.3578L76.9867 50.4445ZM75.2165 47.4107L75.6857 46.5275C75.6759 46.5223 75.666 46.5173 75.656 46.5124L75.2165 47.4107ZM73.219 45.393L74.0744 44.875L74.0742 44.8747L73.219 45.393ZM75.281 37.5116L74.7939 36.6382C74.7874 36.6418 74.781 36.6455 74.7747 36.6492L75.281 37.5116ZM77.6651 28.5898L76.8001 29.0917L76.8071 29.1035L77.6651 28.5898ZM75.5065 24.8698L76.3714 24.3679L76.3684 24.3626L75.5065 24.8698ZM66.4533 22.4738L66.9241 23.356C66.933 23.3513 66.9418 23.3464 66.9506 23.3414L66.4533 22.4738ZM58.3343 20.2985L57.4708 20.8028C57.4744 20.809 57.4781 20.8151 57.4818 20.8213L58.3343 20.2985ZM57.5933 17.5243L56.5963 17.4459L56.5956 17.4563L57.5933 17.5243ZM56.7234 14.1825L55.8697 14.7032L55.8709 14.7053L56.7234 14.1825ZM46.4459 10.9039V9.90385C46.437 9.90385 46.428 9.90397 46.4191 9.90421L46.4459 10.9039ZM40.7433 14.1825L41.5828 14.7259C41.5877 14.7184 41.5924 14.7108 41.5971 14.7032L40.7433 14.1825ZM39.8412 17.5243L38.8426 17.5766C38.8429 17.5818 38.8432 17.587 38.8435 17.5922L39.8412 17.5243ZM39.1002 20.2985L39.9527 20.8213C39.9564 20.8151 39.9601 20.809 39.9637 20.8028L39.1002 20.2985ZM31.0135 22.4738L30.5199 23.3435C30.5261 23.347 30.5322 23.3504 30.5384 23.3538L31.0135 22.4738ZM21.928 24.8698L21.07 24.356L21.0631 24.3679L21.928 24.8698ZM19.7694 28.5898L20.6313 29.0969L20.6344 29.0917L19.7694 28.5898ZM22.1536 37.5116L22.6599 36.6492C22.6547 36.6462 22.6496 36.6432 22.6444 36.6403L22.1536 37.5116ZM24.2477 45.393L25.0887 45.9341C25.0951 45.9241 25.1014 45.914 25.1074 45.9038L24.2477 45.393ZM22.218 47.4107L21.7785 46.5124C21.7649 46.519 21.7515 46.526 21.7382 46.5333L22.218 47.4107ZM19.6406 49.9012L20.4943 50.4219C20.5027 50.408 20.5108 50.394 20.5186 50.3798L19.6406 49.9012ZM19.705 56.364L18.8406 56.8668L18.8428 56.8706L19.705 56.364ZM21.928 60.147L21.0659 60.6537L21.0671 60.6557L21.928 60.147ZM31.0779 62.48L31.5997 63.3331C31.6105 63.3264 31.6213 63.3196 31.6319 63.3125L31.0779 62.48ZM39.8412 67.4926H40.8412C40.8412 67.4857 40.8411 67.4788 40.841 67.4719L39.8412 67.4926ZM57.5933 67.4926L56.5938 67.4616C56.5935 67.4719 56.5933 67.4822 56.5933 67.4926H57.5933ZM66.3888 62.48L65.8499 63.3223C65.8556 63.326 65.8613 63.3295 65.8671 63.3331L66.3888 62.48ZM75.5065 60.147L74.6475 59.635L74.6455 59.6384L75.5065 60.147ZM77.7618 56.364L78.6207 56.876C78.6268 56.8659 78.6326 56.8556 78.6383 56.8453L77.7618 56.364ZM78.6799 49.3805C78.3924 48.909 77.777 48.7599 77.3055 49.0474C76.834 49.335 76.6849 49.9504 76.9724 50.4219L78.6799 49.3805ZM78.6657 49.3578C77.9905 48.3147 77.0053 47.2285 75.6857 46.5275L74.7474 48.2938C75.6831 48.7908 76.4376 49.5961 76.9867 50.4445L78.6657 49.3578ZM75.656 46.5124C75.0085 46.1956 74.5521 45.6639 74.0744 44.875L72.3637 45.911C72.9169 46.8245 73.6204 47.743 74.7771 48.3089L75.656 46.5124ZM74.0742 44.8747C72.7311 42.6585 73.5113 39.7102 75.7873 38.3739L74.7747 36.6492C71.5736 38.5286 70.4207 42.705 72.3638 45.9113L74.0742 44.8747ZM75.7681 38.3849C79.4877 36.3103 80.6787 31.6764 78.5231 28.0761L76.8071 29.1035C78.3888 31.7452 77.5179 35.1189 74.7939 36.6382L75.7681 38.3849ZM78.53 28.0879L76.3714 24.3679L74.6416 25.3716L76.8002 29.0917L78.53 28.0879ZM76.3684 24.3626C74.2562 20.7729 69.6244 19.5032 65.9559 21.6062L66.9506 23.3414C69.6613 21.7874 73.084 22.7245 74.6446 25.3769L76.3684 24.3626ZM65.9824 21.5916C63.6127 22.8564 60.5526 22.0032 59.1868 19.7758L57.4818 20.8213C59.4023 23.9532 63.6235 25.1177 66.9241 23.356L65.9824 21.5916ZM59.1979 19.7942C58.7534 19.0331 58.5437 18.286 58.591 17.5922L56.5956 17.4563C56.514 18.6541 56.8843 19.7985 57.4708 20.8028L59.1979 19.7942ZM58.5902 17.6026C58.7072 16.115 58.2384 14.7402 57.5759 13.6598L55.8709 14.7053C56.3683 15.5164 56.6728 16.4745 56.5964 17.4459L58.5902 17.6026ZM57.5772 13.6618C56.2168 11.4312 53.7461 9.90385 50.9886 9.90385V11.9039C52.9995 11.9039 54.846 13.0247 55.8697 14.7032L57.5772 13.6618ZM50.9886 9.90385H46.4459V11.9039H50.9886V9.90385ZM46.4191 9.90421C43.7301 9.9763 41.2592 11.416 39.8896 13.6618L41.5971 14.7032C42.6115 13.0398 44.4579 11.9575 46.4727 11.9035L46.4191 9.90421ZM39.9038 13.6392C39.1856 14.7489 38.7664 16.1219 38.8426 17.5766L40.8398 17.4719C40.7872 16.4676 41.0768 15.5077 41.5828 14.7259L39.9038 13.6392ZM38.8435 17.5922C38.8908 18.286 38.6812 19.0331 38.2367 19.7942L39.9637 20.8028C40.5502 19.7985 40.9205 18.6541 40.8389 17.4563L38.8435 17.5922ZM38.2477 19.7758C36.8799 22.0064 33.8207 22.8529 31.4886 21.5938L30.5384 23.3538C33.8122 25.1212 38.0342 23.95 39.9527 20.8213L38.2477 19.7758ZM31.5071 21.6041C27.8066 19.5039 23.2141 20.7751 21.0701 24.3561L22.786 25.3834C24.3793 22.7223 27.7768 21.7867 30.5199 23.3435L31.5071 21.6041ZM21.0631 24.3679L18.9045 28.0879L20.6344 29.0917L22.793 25.3716L21.0631 24.3679ZM18.9076 28.0827C16.7918 31.6784 17.9779 36.3068 21.6627 38.3828L22.6444 36.6403C19.9501 35.1224 19.0742 31.7432 20.6313 29.0969L18.9076 28.0827ZM21.6473 38.3739C23.9232 39.7102 24.7067 42.6628 23.388 44.8822L25.1074 45.9038C27.0105 42.7008 25.861 38.5286 22.6599 36.6492L21.6473 38.3739ZM23.4068 44.8519C22.8862 45.6609 22.4288 46.1943 21.7785 46.5124L22.6575 48.3089C23.8114 47.7443 24.5138 46.8275 25.0887 45.9341L23.4068 44.8519ZM21.7382 46.5333C20.4947 47.2132 19.3802 48.2893 18.7625 49.4226L20.5186 50.3798C20.9319 49.6215 21.7504 48.8061 22.6978 48.288L21.7382 46.5333ZM18.7868 49.3805C17.384 51.6807 17.4838 54.5344 18.8406 56.8668L20.5694 55.8611C19.5421 54.0952 19.513 52.0309 20.4943 50.4219L18.7868 49.3805ZM18.8428 56.8706L21.0659 60.6537L22.7902 59.6404L20.5672 55.8573L18.8428 56.8706ZM21.0671 60.6557C22.4392 62.9781 24.9897 64.4257 27.6628 64.4257V62.4257C25.6966 62.4257 23.801 61.3513 22.789 59.6384L21.0671 60.6557ZM27.6628 64.4257C28.9246 64.4257 30.3972 64.0685 31.5997 63.3331L30.5562 61.6269C29.6968 62.1525 28.5918 62.4257 27.6628 62.4257V64.4257ZM31.6319 63.3125C32.2129 62.9259 32.9593 62.7549 33.9131 62.7549V60.7549C32.7406 60.7549 31.5539 60.9621 30.524 61.6474L31.6319 63.3125ZM33.9131 62.7549C36.5665 62.7549 38.7884 64.9443 38.8414 67.5132L40.841 67.4719C40.7652 63.7987 37.6389 60.7549 33.9131 60.7549V62.7549ZM38.8412 67.4926C38.8412 71.7063 42.2896 74.9553 46.5426 74.9553V72.9553C43.3209 72.9553 40.8412 70.5298 40.8412 67.4926H38.8412ZM46.5426 74.9553H50.9242V72.9553H46.5426V74.9553ZM50.9242 74.9553C55.1481 74.9553 58.5933 71.7032 58.5933 67.4926H56.5933C56.5933 70.5328 54.1104 72.9553 50.9242 72.9553V74.9553ZM58.5928 67.5235C58.6727 64.9443 60.9024 62.7549 63.5536 62.7549V60.7549C59.8257 60.7549 56.7072 63.7987 56.5938 67.4616L58.5928 67.5235ZM63.5536 62.7549C64.4667 62.7549 65.2252 62.9227 65.8499 63.3223L66.9277 61.6376C65.8771 60.9654 64.7026 60.7549 63.5536 60.7549V62.7549ZM65.8671 63.3331C67.0676 64.0673 68.5074 64.4257 69.8039 64.4257V62.4257C68.8452 62.4257 67.7719 62.1537 66.9106 61.6269L65.8671 63.3331ZM69.8039 64.4257C72.4475 64.4257 74.9967 62.9758 76.3675 60.6557L74.6455 59.6384C73.6321 61.3536 71.7353 62.4257 69.8039 62.4257V64.4257ZM76.3655 60.6591L78.6207 56.876L76.9028 55.8519L74.6475 59.635L76.3655 60.6591ZM78.6383 56.8453C79.9391 54.4763 80.0902 51.6928 78.6799 49.3805L76.9724 50.4219C77.9463 52.0187 77.9041 54.0272 76.8852 55.8826L78.6383 56.8453Z" fill="url(#paint1_linear_34_9045)" mask="url(#path-3-outside-1_34_9045)"/>
</g>
<g id="Path_4" filter="url(#filter3_bd_34_9045)">
<path d="M48.7737 51.1056C43.7155 51.1056 39.6238 47.1649 39.6238 42.2153C39.6238 37.2658 43.7155 33.2936 48.7737 33.2936C53.8319 33.2936 57.8269 37.2658 57.8269 42.2153C57.8269 47.1649 53.8319 51.1056 48.7737 51.1056Z" fill="url(#paint2_linear_34_9045)"/>
<path d="M48.7737 50.9056C43.8199 50.9056 39.8238 47.0485 39.8238 42.2153C39.8238 37.3812 43.8209 33.4936 48.7737 33.4936C53.7237 33.4936 57.6269 37.3785 57.6269 42.2153C57.6269 47.0513 53.7246 50.9056 48.7737 50.9056Z" stroke="url(#paint3_linear_34_9045)" stroke-width="0.4"/>
</g>
</g>
</g>
</g>
<defs>
<filter id="filter0_b_34_9045" x="-8.89111" y="-9.04468" width="75.4119" height="78.5" filterUnits="userSpaceOnUse" color-interpolation-filters="sRGB">
<feFlood flood-opacity="0" result="BackgroundImageFix"/>
<feGaussianBlur in="BackgroundImageFix" stdDeviation="6.5"/>
<feComposite in2="SourceAlpha" operator="in" result="effect1_backgroundBlur_34_9045"/>
<feBlend mode="normal" in="SourceGraphic" in2="effect1_backgroundBlur_34_9045" result="shape"/>
</filter>
<filter id="filter1_f_34_9045" x="0.243896" y="0.842069" width="57.478" height="59.0221" filterUnits="userSpaceOnUse" color-interpolation-filters="sRGB">
<feFlood flood-opacity="0" result="BackgroundImageFix"/>
<feBlend mode="normal" in="SourceGraphic" in2="BackgroundImageFix" result="shape"/>
<feGaussianBlur stdDeviation="8" result="effect1_foregroundBlur_34_9045"/>
</filter>
<filter id="filter2_b_34_9045" x="-6.22192" y="-14.0961" width="109.899" height="113.051" filterUnits="userSpaceOnUse" color-interpolation-filters="sRGB">
<feFlood flood-opacity="0" result="BackgroundImageFix"/>
<feGaussianBlur in="BackgroundImageFix" stdDeviation="12"/>
<feComposite in2="SourceAlpha" operator="in" result="effect1_backgroundBlur_34_9045"/>
<feBlend mode="normal" in="SourceGraphic" in2="effect1_backgroundBlur_34_9045" result="shape"/>
</filter>
<filter id="filter3_bd_34_9045" x="24.6238" y="18.2936" width="48.2031" height="47.812" filterUnits="userSpaceOnUse" color-interpolation-filters="sRGB">
<feFlood flood-opacity="0" result="BackgroundImageFix"/>
<feGaussianBlur in="BackgroundImageFix" stdDeviation="7.5"/>
<feComposite in2="SourceAlpha" operator="in" result="effect1_backgroundBlur_34_9045"/>
<feColorMatrix in="SourceAlpha" type="matrix" values="0 0 0 0 0 0 0 0 0 0 0 0 0 0 0 0 0 0 127 0" result="hardAlpha"/>
<feOffset dx="5" dy="5"/>
<feGaussianBlur stdDeviation="5"/>
<feColorMatrix type="matrix" values="0 0 0 0 1 0 0 0 0 0.321569 0 0 0 0 0.54902 0 0 0 0.5 0"/>
<feBlend mode="normal" in2="effect1_backgroundBlur_34_9045" result="effect2_dropShadow_34_9045"/>
<feBlend mode="normal" in="SourceGraphic" in2="effect2_dropShadow_34_9045" result="shape"/>
</filter>
<linearGradient id="paint0_linear_34_9045" x1="32.4524" y1="33.7209" x2="-11.9343" y2="54.0332" gradientUnits="userSpaceOnUse">
<stop stop-color="#FF759F"/>
<stop offset="1" stop-color="#FF196E"/>
</linearGradient>
<linearGradient id="paint1_linear_34_9045" x1="28.313" y1="18.2494" x2="68.9188" y2="66.0261" gradientUnits="userSpaceOnUse">
<stop stop-color="white" stop-opacity="0.25"/>
<stop offset="1" stop-color="white" stop-opacity="0"/>
</linearGradient>
<linearGradient id="paint2_linear_34_9045" x1="56.5363" y1="36.5101" x2="36.2607" y2="37.1856" gradientUnits="userSpaceOnUse">
<stop stop-color="white"/>
<stop offset="1" stop-color="white" stop-opacity="0.2"/>
</linearGradient>
<linearGradient id="paint3_linear_34_9045" x1="42.5214" y1="35.3687" x2="53.8292" y2="49.6811" gradientUnits="userSpaceOnUse">
<stop stop-color="white" stop-opacity="0.25"/>
<stop offset="1" stop-color="white" stop-opacity="0"/>
</linearGradient>
</defs>
</svg>
