<svg width="120" height="464" viewBox="0 0 120 464" fill="none" xmlns="http://www.w3.org/2000/svg">
<mask id="mask0_1_4312" style="mask-type:alpha" maskUnits="userSpaceOnUse" x="0" y="0" width="340" height="464">
<rect width="340" height="464" rx="30" fill="#35313E"/>
</mask>
<g mask="url(#mask0_1_4312)">
<path d="M358.73 -0.999878H-18V464H358.73V-0.999878Z" fill="url(#paint0_linear_1_4312)"/>
<path d="M-1.91248 293.768V373.669H276.582V315.573L271.189 320.13V333.705L265.175 338.787V349.177H259.757V296.007H253.718V305.79H244.658V316.849H230.061V329.134H216.975V284.169H208.301V313.447H202.144V347.045H191.824V361.506H177.182V370.863H154.556V313.944L143.44 304.55V329.65H137.333V343.369H128.894V307.919L120.464 300.793L113.8 306.425V326.437L104.517 334.283V350.456H98.3932V329.65H92.1593V343.369H76.2129V351.322H46.8922L41.9118 347.113H33.6535V329.136H22.1934V323.069H9.60966V294.553L-1.91248 293.768Z" fill="url(#paint1_linear_1_4312)"/>
<path d="M358.733 292.54V393.151H-18V320.025L-10.7073 325.765V342.861L-2.57316 349.261V362.345H4.76761V295.372H12.9384V307.693H25.1947V321.621H44.9385V337.093H62.641V280.445H74.3721V317.335H82.701V359.651H96.6766V377.865H116.483V389.65H147.06V317.959L162.094 306.129V337.75H170.367V355.029H181.781V310.369L193.188 301.397L202.2 308.489V333.693L214.758 343.575V363.943H223.042V337.742H231.464V355.021H253.038V365.035H292.711L299.451 359.733H310.623V337.095H326.126V329.453H343.157V293.522L358.733 292.54Z" fill="url(#paint2_linear_1_4312)"/>
<path d="M358.73 385.231H-18V463.997H358.73V385.231Z" fill="#5B4168"/>
<path d="M141.721 347.412V334.569H136.486V347.412H127.923V334.569H122.652V347.412H99.5791V263.05L97.0917 249.125H96.177L94.4829 258.555V234.517H92.6929L86.1257 195.498H83.0906L76.5235 234.517H74.7335V258.555L73.0394 249.125H72.1247L69.6373 263.05V347.412H45.921V334.569H40.6724V347.412H32.1091V334.569H26.8605V347.412H-18V400.446H186.587V347.412H141.721Z" fill="#5B4168"/>
<path d="M89.6833 244.975C89.6827 246.041 89.3661 247.082 88.7735 247.968C88.1809 248.854 87.339 249.545 86.3541 249.952C85.3692 250.36 84.2856 250.466 83.2402 250.258C82.1949 250.049 81.2348 249.536 80.4813 248.782C79.7278 248.028 79.2147 247.068 79.007 246.022C78.7992 244.977 78.9062 243.893 79.3142 242.909C79.7222 241.924 80.413 241.082 81.2993 240.49C82.1856 239.898 83.2276 239.582 84.2935 239.582C85.0015 239.582 85.7026 239.722 86.3567 239.993C87.0108 240.264 87.6051 240.661 88.1056 241.162C88.6062 241.662 89.0031 242.257 89.2738 242.911C89.5445 243.565 89.6836 244.267 89.6833 244.975Z" fill="#C6A9B5"/>
<path d="M357.908 0H-18.0118V464H357.908V0Z" fill="url(#paint3_linear_1_4312)"/>
<path d="M-9.90942 250.184V329.914H267.986V271.962L262.605 276.509V290.055L256.604 295.126V305.493H251.197V252.438H245.171V262.2H236.131V273.235H221.565V285.493H208.507V240.605H199.852V269.835H193.711V303.361H183.396V317.799H168.786V327.136H146.231V270.336L135.139 260.963V286.009H129.037V299.698H120.616V264.324L112.203 257.213L105.555 262.831V282.8L96.2913 290.629V306.767H90.1806V286.006H83.9685V299.695H68.0423V307.632H38.7875L33.8178 303.431H25.5772V285.493H14.1418V279.439H1.58514V250.984L-9.90942 250.184Z" fill="#E0E9ED"/>
<path d="M36.053 153.402H32.9617V154.112H36.053V153.402Z" fill="#E8E7F4"/>
<path d="M48.1775 224.97H48.9467L43.9347 222.355H44.0953V220.682H41.6724L40.4553 207.441L43.591 205.883H40.3229L39.7144 199.251H36.2998H38.7058L40.9427 198.141H36.2998V189.103H35.8322V181.265H37.6014V179.842H35.8322V173.081H36.8858V171.988H35.1616V166.793H34.987V154.18H33.9981V166.793H33.8206V171.988H32.1302V173.081H33.1501V179.842H31.4175V181.265H33.1501V189.103H32.6824V198.141H28.0367L30.2736 199.251H32.6796H29.2651L28.6565 205.883H25.4138L28.5128 207.424L27.2958 220.696H24.8729V222.369H25.0447L20.0328 224.984H20.8019V228.573H20.0356L25.0476 231.188H25.1631L25.6307 233.881L26.09 236.535L27.6479 245.55H29.8848L28.6002 310.176H40.3539L39.0833 245.522H41.3203L42.8782 236.507L43.3374 233.853L43.8051 231.159H43.9206L48.9326 228.545H48.1635L48.1775 224.97Z" fill="#E8E7F4"/>
<path d="M357.908 270.72V371.12H-18.0118V298.132L-10.7347 303.857V320.915L-2.61808 327.302V340.358H4.70689V273.545H12.8601V285.84H25.0787V299.738H44.7801V315.177H62.4445V258.65H74.1504V295.461H82.4614V337.687H96.4127V355.861H116.176V367.621H146.687V296.084L161.689 284.279V315.833H169.944V333.075H181.334V288.5L192.716 279.546L201.709 286.623V311.773L214.24 321.634V341.958H222.506V315.827H230.91V333.069H252.437V343.062H292.026L298.751 337.771H309.899V315.182H325.369V307.556H342.354V271.7L357.908 270.72Z" fill="url(#paint4_linear_1_4312)"/>
<path d="M127.411 360.752V342.873H123.749V335.644H119.45V327.274H114.809V319.856H110.493V314.34H107.177V309.204H101.205V304.829H107.175L102.532 296.458H90.9216V293.469H47.7973V296.458H36.1872L31.5415 304.829H37.5113V309.204H31.5443V314.34H28.2255V319.856H23.9122V327.274H19.2693V335.644H14.956V342.873H11.2936V360.755H5.00537V364.941H133.713V360.755L127.411 360.752Z" fill="url(#paint5_linear_1_4312)"/>
<path d="M357.908 363.211H-18.0118V464H357.908V363.211Z" fill="#3C5A66"/>
<path d="M346.301 355.678V352.669H335.313V336.467H336.556V334.385H335.313V326.978H336.556V325.243H331.842V315.348L332.688 313.785V305.451L333.916 304.758V303.803H334.26V303.149H333.099V300.4L333.491 300.141V299.042H332.713V296.041H332.335V294.32L332.409 294.298V293.604H331.919V294.269L331.983 294.298V296.033H331.524V299.042H330.738V300.084L331.13 300.431V303.149H320.92L311.758 289.277H303.968V287.713H303.478V282.507H303.723V281.335H301.858V282.462L302.055 282.637V287.626H301.416V288.781L284.137 264.834L266.859 288.781V287.609H266.222V282.62L266.419 282.445V281.318H264.554V282.49H264.799V287.697H264.309V289.26H256.522L247.357 303.133H237.148V300.414L237.539 300.067V299.025H236.753V296.022H236.294V294.286L236.359 294.258V293.593H235.868V294.286L235.942 294.309V296.03H235.564V299.031H234.787V300.129L235.178 300.388V303.138H234.018V303.803H234.361V304.758L235.587 305.451V313.785L236.432 315.348V317.813H223.968V311.937L225.151 311.317V310.472H225.484V309.877H224.357V307.429L224.737 307.198V306.217H223.988V303.544H223.625V302.011L223.695 301.992V301.372H223.222V301.966L223.284 301.992V303.538H222.841V306.22H222.083V307.147L222.461 307.457V309.88H212.6L203.757 297.52H196.229V296.129H195.756V291.489H195.992V290.443H194.192V291.449L194.381 291.604V296.05H193.764V297.095L177.088 275.751L160.41 297.095V296.05H159.793V291.599L159.982 291.444V290.438H158.196V291.483H158.432V296.123H157.959V297.515H150.434L141.591 309.874H131.73V307.451L132.108 307.142V306.215H131.35V303.533H130.907V301.986L130.969 301.961V301.366H130.502V301.986L130.572 302.006V303.538H130.209V306.212H129.459V307.192L129.837 307.423V309.871H128.71V310.466H129.042V311.311L130.226 311.931V319.354L131.031 320.746V329.562H126.493V331.108H127.693V337.706H126.493V339.563H127.693V353.999H117.08V356.681H118.342V361.425H117.08V364.933H346.304V360.989H344.982V355.664L346.301 355.678Z" fill="#3C5A66"/>
</g>
<g filter="url(#filter0_b_1_4312)">
<rect x="37" y="361" width="267" height="72" rx="15" fill="black" fill-opacity="0.15"/>
<rect x="37.5" y="361.5" width="266" height="71" rx="14.5" stroke="url(#paint6_linear_1_4312)"/>
</g>
<path d="M33.2671 410.42C26.3021 410.42 22.1721 406.43 22.1721 399.22V385.5H27.8421V399.01C27.8421 403.665 29.8721 405.59 33.3021 405.59C36.7671 405.59 38.7621 403.665 38.7621 399.01V385.5H44.3621V399.22C44.3621 406.43 40.2321 410.42 33.2671 410.42ZM61.0251 390.89C65.4701 390.89 68.8301 393.48 68.8301 399.22V410H63.3701V400.06C63.3701 397.015 61.9701 395.615 59.5551 395.615C56.9301 395.615 55.0401 397.225 55.0401 400.69V410H49.5801V391.17H54.7951V393.375C56.2651 391.765 58.4701 390.89 61.0251 390.89ZM76.5093 388.545C74.4793 388.545 73.1143 387.215 73.1143 385.5C73.1143 383.785 74.4793 382.455 76.5093 382.455C78.5393 382.455 79.9043 383.715 79.9043 385.395C79.9043 387.215 78.5393 388.545 76.5093 388.545ZM73.7793 410V391.17H79.2393V410H73.7793ZM94.9816 405.24L96.4516 409.09C95.3316 409.895 93.6866 410.28 92.0066 410.28C87.5616 410.28 84.9716 408.005 84.9716 403.525V395.79H82.0666V391.59H84.9716V387.005H90.4316V391.59H95.1216V395.79H90.4316V403.455C90.4316 405.065 91.3066 405.94 92.7766 405.94C93.5816 405.94 94.3866 405.695 94.9816 405.24ZM117.381 400.655C117.381 401.075 117.311 401.67 117.276 402.125H103.031C103.556 404.47 105.551 405.905 108.421 405.905C110.416 405.905 111.851 405.31 113.146 404.085L116.051 407.235C114.301 409.23 111.676 410.28 108.281 410.28C101.771 410.28 97.5355 406.185 97.5355 400.585C97.5355 394.95 101.841 390.89 107.581 390.89C113.111 390.89 117.381 394.6 117.381 400.655ZM107.616 395.02C105.131 395.02 103.346 396.525 102.961 398.94H112.236C111.851 396.56 110.066 395.02 107.616 395.02ZM134.736 384.03H140.196V410H134.981V407.83C133.616 409.475 131.621 410.28 129.101 410.28C123.781 410.28 119.686 406.5 119.686 400.585C119.686 394.67 123.781 390.89 129.101 390.89C131.411 390.89 133.371 391.625 134.736 393.165V384.03ZM130.046 405.8C132.741 405.8 134.841 403.84 134.841 400.585C134.841 397.33 132.741 395.37 130.046 395.37C127.316 395.37 125.216 397.33 125.216 400.585C125.216 403.84 127.316 405.8 130.046 405.8ZM172.311 410L164.471 400.375L161.181 403.805V410H155.546V385.5H161.181V396.945L172.031 385.5H178.331L168.181 396.42L178.926 410H172.311ZM183.458 388.545C181.428 388.545 180.063 387.215 180.063 385.5C180.063 383.785 181.428 382.455 183.458 382.455C185.488 382.455 186.853 383.715 186.853 385.395C186.853 387.215 185.488 388.545 183.458 388.545ZM180.728 410V391.17H186.188V410H180.728ZM202.7 390.89C207.145 390.89 210.505 393.48 210.505 399.22V410H205.045V400.06C205.045 397.015 203.645 395.615 201.23 395.615C198.605 395.615 196.715 397.225 196.715 400.69V410H191.255V391.17H196.47V393.375C197.94 391.765 200.145 390.89 202.7 390.89ZM229.904 391.17H235.084V406.85C235.084 413.85 231.304 417.07 224.514 417.07C220.944 417.07 217.479 416.195 215.274 414.48L217.444 410.56C219.054 411.855 221.679 412.695 224.094 412.695C227.944 412.695 229.624 410.945 229.624 407.55V406.745C228.189 408.32 226.124 409.09 223.674 409.09C218.459 409.09 214.259 405.485 214.259 399.99C214.259 394.495 218.459 390.89 223.674 390.89C226.299 390.89 228.469 391.765 229.904 393.585V391.17ZM224.759 404.61C227.629 404.61 229.694 402.755 229.694 399.99C229.694 397.225 227.629 395.37 224.759 395.37C221.889 395.37 219.789 397.225 219.789 399.99C219.789 402.755 221.889 404.61 224.759 404.61ZM253.886 384.03H259.346V410H254.131V407.83C252.766 409.475 250.771 410.28 248.251 410.28C242.931 410.28 238.836 406.5 238.836 400.585C238.836 394.67 242.931 390.89 248.251 390.89C250.561 390.89 252.521 391.625 253.886 393.165V384.03ZM249.196 405.8C251.891 405.8 253.991 403.84 253.991 400.585C253.991 397.33 251.891 395.37 249.196 395.37C246.466 395.37 244.366 397.33 244.366 400.585C244.366 403.84 246.466 405.8 249.196 405.8ZM273.359 410.28C267.374 410.28 262.999 406.255 262.999 400.585C262.999 394.915 267.374 390.89 273.359 390.89C279.344 390.89 283.684 394.915 283.684 400.585C283.684 406.255 279.344 410.28 273.359 410.28ZM273.359 405.8C276.089 405.8 278.154 403.84 278.154 400.585C278.154 397.33 276.089 395.37 273.359 395.37C270.629 395.37 268.529 397.33 268.529 400.585C268.529 403.84 270.629 405.8 273.359 405.8ZM311.449 390.89C315.929 390.89 319.149 393.48 319.149 399.22V410H313.689V400.06C313.689 397.015 312.324 395.615 310.119 395.615C307.669 395.615 305.954 397.19 305.954 400.55V410H300.494V400.06C300.494 397.015 299.199 395.615 296.924 395.615C294.509 395.615 292.794 397.19 292.794 400.55V410H287.334V391.17H292.549V393.34C293.949 391.73 296.049 390.89 298.464 390.89C301.089 390.89 303.329 391.905 304.659 393.97C306.164 392.045 308.614 390.89 311.449 390.89Z" fill="white"/>
<defs>
<filter id="filter0_b_1_4312" x="22" y="346" width="297" height="102" filterUnits="userSpaceOnUse" color-interpolation-filters="sRGB">
<feFlood flood-opacity="0" result="BackgroundImageFix"/>
<feGaussianBlur in="BackgroundImageFix" stdDeviation="7.5"/>
<feComposite in2="SourceAlpha" operator="in" result="effect1_backgroundBlur_1_4312"/>
<feBlend mode="normal" in="SourceGraphic" in2="effect1_backgroundBlur_1_4312" result="shape"/>
</filter>
<linearGradient id="paint0_linear_1_4312" x1="170.365" y1="22.2501" x2="170.365" y2="421.685" gradientUnits="userSpaceOnUse">
<stop stop-color="#869ACF"/>
<stop offset="0.532" stop-color="#CD9994"/>
<stop offset="1" stop-color="#DADA94"/>
</linearGradient>
<linearGradient id="paint1_linear_1_4312" x1="137.335" y1="327.129" x2="137.335" y2="381.903" gradientUnits="userSpaceOnUse">
<stop offset="0.003" stop-color="#CD9994"/>
<stop offset="1" stop-color="#DADA94"/>
</linearGradient>
<linearGradient id="paint2_linear_1_4312" x1="170.367" y1="338.939" x2="170.367" y2="413.1" gradientUnits="userSpaceOnUse">
<stop stop-color="#A17A94"/>
<stop offset="1" stop-color="#DADA94"/>
</linearGradient>
<linearGradient id="paint3_linear_1_4312" x1="169.948" y1="-28.768" x2="169.948" y2="499.264" gradientUnits="userSpaceOnUse">
<stop offset="0.019" stop-color="#E090A8"/>
<stop offset="1" stop-color="#DADA94"/>
</linearGradient>
<linearGradient id="paint4_linear_1_4312" x1="169.948" y1="317.022" x2="169.948" y2="391.027" gradientUnits="userSpaceOnUse">
<stop offset="0.019" stop-color="#8EA3AE"/>
<stop offset="1" stop-color="#DADA94"/>
</linearGradient>
<linearGradient id="paint5_linear_1_4312" x1="69.3594" y1="306.12" x2="69.3594" y2="401.392" gradientUnits="userSpaceOnUse">
<stop offset="0.019" stop-color="#5E84B2"/>
<stop offset="1" stop-color="#DADA94"/>
</linearGradient>
<linearGradient id="paint6_linear_1_4312" x1="37" y1="355.169" x2="120.087" y2="467.909" gradientUnits="userSpaceOnUse">
<stop stop-color="white" stop-opacity="0.59"/>
<stop offset="1" stop-color="white" stop-opacity="0"/>
</linearGradient>
</defs>
</svg>
