<svg width="43" height="30" viewBox="0 0 43 30" fill="none" xmlns="http://www.w3.org/2000/svg">
<g id="Group 8">
<path id="Vector" d="M8.75 0H1.25C0.5625 0 0 0.5625 0 1.25V28.75C0 29.4375 0.5625 30 1.25 30H8.75C9.4375 30 10 29.4375 10 28.75V1.25C10 0.5625 9.4375 0 8.75 0ZM7.5 7.5H2.5V5H7.5V7.5Z" fill="#F3F1FD"/>
<path id="Vector_2" d="M21.2501 0H13.7501C13.0626 0 12.5001 0.5625 12.5001 1.25V28.75C12.5001 29.4375 13.0626 30 13.7501 30H21.2501C21.9376 30 22.5001 29.4375 22.5001 28.75V1.25C22.5001 0.5625 21.9376 0 21.2501 0ZM20.0001 7.5H15.0001V5H20.0001V7.5Z" fill="#F3F1FD"/>
<path id="Vector_3" d="M29.885 1.93253L23.1875 5.30753C22.8925 5.45749 22.6687 5.71789 22.5647 6.03205C22.4608 6.34622 22.4851 6.68872 22.6325 6.98503L33.8825 29.31C34.0324 29.605 34.2928 29.8288 34.607 29.9328C34.9212 30.0367 35.2637 30.0124 35.56 29.865L42.2575 26.49C42.5525 26.3401 42.7763 26.0797 42.8802 25.7655C42.9842 25.4513 42.9598 25.1088 42.8125 24.8125L31.5625 2.48753C31.4125 2.19254 31.1521 1.96873 30.8379 1.86479C30.5238 1.76085 30.1813 1.78519 29.885 1.93253Z" fill="#F3F1FD"/>
<path id="Vector_4" d="M36.25 28.75C36.25 29.0815 36.1183 29.3995 35.8839 29.6339C35.6495 29.8683 35.3315 30 35 30C34.6685 30 34.3506 29.8683 34.1161 29.6339C33.8817 29.3995 33.75 29.0815 33.75 28.75C33.75 28.4185 33.8817 28.1005 34.1161 27.8661C34.3506 27.6317 34.6685 27.5 35 27.5C35.3315 27.5 35.6495 27.6317 35.8839 27.8661C36.1183 28.1005 36.25 28.4185 36.25 28.75Z" fill="#F3F1FD"/>
</g>
</svg>
