<svg width="73" height="73" viewBox="0 0 73 73" fill="none" xmlns="http://www.w3.org/2000/svg">
<g id="Call Icon">
<path id="Vector" d="M55.2936 0.595886H17.559C8.14728 0.595886 0.517578 8.2256 0.517578 17.6373V55.3719C0.517578 64.7836 8.14729 72.4133 17.559 72.4133H55.2936C64.7053 72.4133 72.335 64.7836 72.335 55.3719V17.6373C72.335 8.22559 64.7053 0.595886 55.2936 0.595886Z" fill="#4141A5"/>
<path id="Vector_2" opacity="0.4" d="M40.8149 24.6883C39.9509 24.5287 39.1574 25.0801 38.9928 25.9236C38.8283 26.767 39.3814 27.5904 40.222 27.7555C42.7528 28.2489 44.7069 30.2079 45.2021 32.7472V32.749C45.343 33.48 45.9866 34.0115 46.7278 34.0115C46.8271 34.0115 46.9266 34.0024 47.0278 33.9843C47.8684 33.8156 48.4215 32.9939 48.2571 32.1486C47.5177 28.3559 44.5984 25.4265 40.8149 24.6883Z" fill="white"/>
<path id="Vector_3" opacity="0.4" d="M40.7014 18.3682C40.2965 18.3102 39.8898 18.4299 39.5662 18.6874C39.2336 18.9486 39.0257 19.3259 38.9805 19.7485C38.8847 20.6028 39.5011 21.3756 40.3543 21.4717C46.2383 22.1283 50.8116 26.7118 51.4732 32.6141C51.5617 33.405 52.2252 34.0018 53.017 34.0018C53.0766 34.0018 53.1344 33.9981 53.1941 33.9908C53.6081 33.9455 53.9768 33.7406 54.2371 33.4141C54.4956 33.0876 54.6131 32.6812 54.5661 32.2659C53.7418 24.9017 48.0423 19.1863 40.7014 18.3682Z" fill="white"/>
<path id="Vector_4" fill-rule="evenodd" clip-rule="evenodd" d="M34.6688 38.2696C41.9093 45.5081 43.5518 37.1339 48.162 41.7408C52.6065 46.184 55.1608 47.0742 49.5298 52.7038C48.8245 53.2706 44.3429 60.0903 28.5935 44.3451C12.8419 28.5981 19.6577 24.112 20.2248 23.4068C25.8695 17.7618 26.7444 20.331 31.1887 24.7743C35.7989 29.3831 27.4283 31.0311 34.6688 38.2696Z" fill="white"/>
</g>
</svg>
