<svg width="17" height="18" viewBox="0 0 17 18" fill="none" xmlns="http://www.w3.org/2000/svg">
<path id="Date Icon" d="M5.66667 0C6.18827 0 6.61111 0.424151 6.61111 0.947368V1.89474H10.3889V0.947368C10.3889 0.424151 10.8117 0 11.3333 0C11.8549 0 12.2778 0.424151 12.2778 0.947368V1.89474H15.1111C16.1543 1.89474 17 2.74304 17 3.78947V16.1053C17 17.1517 16.1543 18 15.1111 18H1.88889C0.845684 18 0 17.1517 0 16.1053V3.78947C0 2.74304 0.845684 1.89474 1.88889 1.89474H4.72222V0.947368C4.72222 0.424151 5.14506 0 5.66667 0ZM4.72222 3.78947H1.88889V6.63158H15.1111V3.78947H12.2778V4.73684C12.2778 5.26006 11.8549 5.68421 11.3333 5.68421C10.8117 5.68421 10.3889 5.26006 10.3889 4.73684V3.78947H6.61111V4.73684C6.61111 5.26006 6.18827 5.68421 5.66667 5.68421C5.14506 5.68421 4.72222 5.26006 4.72222 4.73684V3.78947ZM15.1111 8.52632H1.88889V16.1053H15.1111V8.52632Z" fill="white"/>
</svg>
