<svg width="13" height="14" viewBox="0 0 13 14" fill="none" xmlns="http://www.w3.org/2000/svg">
<path id="Date Icon" d="M4.10526 0.5C4.48314 0.5 4.78947 0.806331 4.78947 1.18421V1.86842H7.52632V1.18421C7.52632 0.806331 7.83265 0.5 8.21053 0.5C8.58841 0.5 8.89474 0.806331 8.89474 1.18421V1.86842H10.9474C11.7031 1.86842 12.3158 2.48108 12.3158 3.23684V12.1316C12.3158 12.8873 11.7031 13.5 10.9474 13.5H1.36842C0.612663 13.5 0 12.8873 0 12.1316V3.23684C0 2.48108 0.612663 1.86842 1.36842 1.86842H3.42105V1.18421C3.42105 0.806331 3.72738 0.5 4.10526 0.5ZM3.42105 3.23684H1.36842V5.28947H10.9474V3.23684H8.89474V3.92105C8.89474 4.29893 8.58841 4.60526 8.21053 4.60526C7.83265 4.60526 7.52632 4.29893 7.52632 3.92105V3.23684H4.78947V3.92105C4.78947 4.29893 4.48314 4.60526 4.10526 4.60526C3.72738 4.60526 3.42105 4.29893 3.42105 3.92105V3.23684ZM10.9474 6.6579H1.36842V12.1316H10.9474V6.6579Z" fill="#FB8F2A"/>
</svg>
