<svg width="73" height="73" viewBox="0 0 73 73" fill="none" xmlns="http://www.w3.org/2000/svg">
<g id="Email Icon">
<path id="Vector" d="M55.2936 0.436218H17.559C8.14728 0.436218 0.517578 8.06593 0.517578 17.4776V55.2122C0.517578 64.6239 8.14729 72.2536 17.559 72.2536H55.2936C64.7053 72.2536 72.335 64.6239 72.335 55.2122V17.4776C72.335 8.06592 64.7053 0.436218 55.2936 0.436218Z" fill="#4141A5"/>
<path id="Vector_2" opacity="0.4" d="M54.5771 43.4968C54.5771 48.5609 50.5112 52.663 45.4472 52.6812H45.429H27.4415C22.3956 52.6812 18.2754 48.5973 18.2754 43.5332V43.515C18.2754 43.515 18.2862 35.4814 18.3008 31.4411C18.3026 30.6824 19.1738 30.2577 19.7673 30.7295C24.08 34.1509 31.7923 40.3894 31.8886 40.4711C33.1772 41.5039 34.8107 42.0865 36.4807 42.0865C38.1506 42.0865 39.7842 41.5039 41.0729 40.4512C41.169 40.3877 48.709 34.3361 53.087 30.8584C53.6823 30.3847 54.5571 30.8094 54.559 31.5663C54.5771 35.5758 54.5771 43.4968 54.5771 43.4968Z" fill="white"/>
<path id="Vector_3" d="M53.628 24.862C52.0561 21.8998 48.9632 20.0085 45.5582 20.0085H27.4436C24.0385 20.0085 20.9456 21.8998 19.3737 24.862C19.0215 25.5245 19.1886 26.3504 19.7748 26.8187L33.2519 37.5986C34.1957 38.3608 35.3392 38.7402 36.4827 38.7402C36.49 38.7402 36.4954 38.7402 36.5009 38.7402C36.5063 38.7402 36.5136 38.7402 36.519 38.7402C37.6625 38.7402 38.806 38.3608 39.7498 37.5986L53.2268 26.8187C53.8131 26.3504 53.9801 25.5245 53.628 24.862Z" fill="white"/>
</g>
</svg>
