<svg width="17" height="14" viewBox="0 0 17 14" fill="none" xmlns="http://www.w3.org/2000/svg">
<path d="M14.5781 3.69276C14.5884 3.83324 14.5884 3.97452 14.5884 4.11501C14.597 5.33117 14.3639 6.53692 13.9025 7.6622C13.4412 8.78748 12.7608 9.80985 11.9009 10.6699C11.041 11.53 10.0187 12.2105 8.89351 12.6721C7.7683 13.1337 6.56259 13.367 5.34643 13.3585C3.57798 13.3626 1.846 12.8558 0.358765 11.8989C0.619147 11.9277 0.880989 11.9412 1.14295 11.9394C2.6049 11.943 4.02548 11.4543 5.17578 10.552C4.49806 10.5396 3.84113 10.3158 3.29672 9.91199C2.75231 9.50816 2.34758 8.94441 2.13905 8.29944C2.34202 8.33148 2.54711 8.34819 2.75259 8.34945C3.04103 8.34871 3.32824 8.31164 3.60742 8.23912C2.87174 8.0904 2.21025 7.69154 1.73537 7.11031C1.26049 6.52908 1.00152 5.80135 1.00246 5.05079V5.01031C1.45262 5.2614 1.95575 5.40255 2.47082 5.42225C1.7817 4.96226 1.29399 4.25675 1.10712 3.44956C0.920259 2.64237 1.04832 1.7943 1.46519 1.07828C2.28099 2.08258 3.29878 2.90419 4.45255 3.48982C5.60631 4.07546 6.87029 4.41204 8.16251 4.47773C8.11072 4.23293 8.08413 3.98346 8.08314 3.73324C8.08533 3.08251 8.28256 2.44738 8.64937 1.90988C9.01617 1.37238 9.53569 0.957191 10.1408 0.717934C10.746 0.478677 11.409 0.42634 12.0442 0.567684C12.6794 0.709028 13.2576 1.03756 13.7042 1.51085C14.4323 1.37106 15.1306 1.10572 15.7678 0.726666C15.5254 1.47733 15.0174 2.11374 14.3392 2.51648C14.9843 2.44326 15.6149 2.27391 16.2099 2.01406C15.7653 2.66148 15.2147 3.22927 14.5812 3.69355L14.5781 3.69276Z" fill="#1A093F"/>
</svg>
