<svg width="15" height="15" viewBox="0 0 15 15" fill="none" xmlns="http://www.w3.org/2000/svg">
<path d="M3.32681 14.8574H0.452V5.5988H3.32681V14.8574ZM1.88941 4.33601C1.55849 4.33727 1.23464 4.24036 0.958802 4.05756C0.682962 3.87476 0.467524 3.61427 0.33973 3.30902C0.211936 3.00378 0.177527 2.6675 0.240854 2.3427C0.30418 2.0179 0.462399 1.71917 0.695501 1.4843C0.928603 1.24942 1.22612 1.08894 1.55043 1.02315C1.87474 0.957357 2.21127 0.989213 2.51748 1.11469C2.82368 1.24016 3.0858 1.45361 3.27069 1.72806C3.45558 2.0025 3.55494 2.32561 3.5562 2.65652C3.55642 3.09982 3.38128 3.52521 3.06901 3.83986C2.75675 4.15451 2.3327 4.33287 1.88941 4.33601ZM14.0887 14.8574H11.2179V10.3507C11.2179 9.27685 11.1964 7.89897 9.72331 7.89897C8.22876 7.89897 7.99938 9.06572 7.99938 10.273V14.8574H5.12774V5.5988H7.88508V6.86318H7.92159C8.19727 6.39115 8.59585 6.00277 9.07487 5.73943C9.55388 5.47609 10.0954 5.34766 10.6416 5.36783C13.5514 5.36783 14.0863 7.28385 14.0863 9.77292V14.859L14.0887 14.8574Z" fill="#1A093F"/>
</svg>
