<svg width="12" height="14" viewBox="0 0 12 14" fill="none" xmlns="http://www.w3.org/2000/svg">
<path id="Location Icon" d="M6 0C2.7 0 0 2.52 0 5.6C0 9.38 5.25 13.65 5.475 13.86C5.625 13.93 5.85 14 6 14C6.15 14 6.375 13.93 6.525 13.86C6.75 13.65 12 9.38 12 5.6C12 2.52 9.3 0 6 0ZM6 12.39C4.425 10.99 1.5 7.98 1.5 5.6C1.5 3.29 3.525 1.4 6 1.4C8.475 1.4 10.5 3.29 10.5 5.6C10.5 7.91 7.575 10.99 6 12.39ZM6 2.8C4.35 2.8 3 4.06 3 5.6C3 7.14 4.35 8.4 6 8.4C7.65 8.4 9 7.14 9 5.6C9 4.06 7.65 2.8 6 2.8ZM6 7C5.175 7 4.5 6.37 4.5 5.6C4.5 4.83 5.175 4.2 6 4.2C6.825 4.2 7.5 4.83 7.5 5.6C7.5 6.37 6.825 7 6 7Z" fill="#FB8F2A"/>
</svg>
