<svg width="340" height="464" viewBox="0 0 340 464" fill="none" xmlns="http://www.w3.org/2000/svg">
<mask id="mask0_1_4277" style="mask-type:alpha" maskUnits="userSpaceOnUse" x="0" y="0" width="340" height="464">
<rect width="340" height="464" rx="30" fill="#35313E"/>
</mask>
<g mask="url(#mask0_1_4277)">
<path d="M358.73 -0.999878H-18V464H358.73V-0.999878Z" fill="url(#paint0_linear_1_4277)"/>
<path d="M-1.91246 293.768V373.669H276.582V315.573L271.189 320.13V333.705L265.175 338.787V349.177H259.757V296.007H253.718V305.79H244.658V316.849H230.061V329.134H216.975V284.169H208.301V313.447H202.144V347.045H191.824V361.506H177.182V370.863H154.556V313.944L143.44 304.55V329.65H137.333V343.369H128.894V307.919L120.464 300.793L113.8 306.425V326.437L104.517 334.283V350.456H98.3933V329.65H92.1593V343.369H76.2129V351.322H46.8922L41.9118 347.113H33.6535V329.136H22.1934V323.069H9.60968V294.553L-1.91246 293.768Z" fill="url(#paint1_linear_1_4277)"/>
<path d="M193.289 323.696L184.483 258.027L190.432 254.433V253.82H188.227V251.279H184.24V244.359H184.356L174.006 238.052V236.287H172.907V237.95L162.532 244.359H162.503V251.274H157.557V253.815H156.1V254.427L162.049 258.022L157.602 291.176L147.438 294.627V332.008H174.618L173.503 323.685H193.284L193.289 323.696ZM163.827 251.669H168.715V251.861H163.827V251.669ZM181.363 251.861V251.669H182.436V251.861H181.363ZM180.849 251.861H177.549V251.669H180.849V251.861ZM175.575 251.861H174.503V251.669H175.575V251.861ZM173.989 251.861H170.688V251.669H173.989V251.861ZM187.71 251.669V253.826H184.238V251.669H187.71ZM182.436 246.271V251.291H177.549V246.271H182.436ZM175.575 246.271V251.291H170.688V246.271H175.575ZM163.827 246.271H168.715V251.291H163.827V246.271ZM162.512 251.669V253.826H162.455V251.669H162.512ZM158.082 251.669H161.939V253.826H158.082V251.669Z" fill="url(#paint2_linear_1_4277)"/>
<path d="M358.733 292.54V393.151H-18V320.025L-10.7073 325.765V342.861L-2.57316 349.261V362.345H4.76761V295.372H12.9384V307.693H25.1947V321.621H44.9385V337.093H62.641V280.445H74.3721V317.335H82.701V359.651H96.6766V377.865H116.483V389.65H147.06V317.959L162.094 306.129V337.75H170.367V355.029H181.781V310.369L193.188 301.397L202.2 308.489V333.693L214.758 343.575V363.943H223.042V337.742H231.464V355.021H253.038V365.035H292.711L299.451 359.733H310.623V337.095H326.126V329.453H343.157V293.522L358.733 292.54Z" fill="url(#paint3_linear_1_4277)"/>
<path d="M345.754 333.352H344.043V331.833H326.538V311.555H326.713L321.436 300.058L319.226 304.858C316.721 290.403 309.172 279.801 300.171 279.36H299.756V272.186H303.779V271.413H299.756V268.129H299.312V271.413H295.332V272.186H299.312V279.369H299.013C290.413 279.789 283.137 289.488 280.323 302.961L278.987 300.053L273.702 311.555H273.764V331.838H255.426V333.357H253.422V336.997H255.426V365.067H344.049V336.997H345.76L345.754 333.352Z" fill="#895881"/>
<path d="M358.733 323.431L163.559 400.438H358.733V323.431Z" fill="#5B4168"/>
<path d="M358.73 385.231H-18V463.997H358.73V385.231Z" fill="#5B4168"/>
<path d="M141.721 347.412V334.569H136.486V347.412H127.923V334.569H122.652V347.412H99.5791V263.05L97.0917 249.125H96.177L94.4829 258.555V234.517H92.6929L86.1257 195.498H83.0906L76.5235 234.517H74.7335V258.555L73.0394 249.125H72.1247L69.6373 263.05V347.412H45.921V334.569H40.6724V347.412H32.1091V334.569H26.8605V347.412H-18V400.446H186.587V347.412H141.721Z" fill="#5B4168"/>
<path d="M89.6832 244.975C89.6827 246.041 89.3661 247.082 88.7735 247.968C88.1809 248.854 87.339 249.545 86.3541 249.952C85.3692 250.36 84.2855 250.466 83.2402 250.258C82.1949 250.049 81.2347 249.536 80.4812 248.782C79.7277 248.028 79.2147 247.068 79.007 246.022C78.7992 244.977 78.9061 243.893 79.3142 242.909C79.7222 241.924 80.413 241.082 81.2993 240.49C82.1856 239.898 83.2276 239.582 84.2934 239.582C85.0015 239.582 85.7025 239.722 86.3566 239.993C87.0107 240.264 87.6051 240.661 88.1056 241.162C88.6061 241.662 89.0031 242.257 89.2738 242.911C89.5445 243.565 89.6836 244.267 89.6832 244.975Z" fill="#C6A9B5"/>
<path d="M357.908 0H-18.0117V464H357.908V0Z" fill="url(#paint4_linear_1_4277)"/>
<path d="M-9.90936 250.184V329.914H267.986V271.962L262.605 276.509V290.055L256.604 295.126V305.493H251.198V252.438H245.171V262.2H236.131V273.235H221.565V285.493H208.507V240.605H199.852V269.835H193.711V303.361H183.396V317.799H168.786V327.136H146.231V270.336L135.139 260.963V286.009H129.037V299.698H120.616V264.324L112.203 257.213L105.555 262.831V282.8L96.2914 290.629V306.767H90.1807V286.006H83.9685V299.695H68.0424V307.632H38.7876L33.8179 303.431H25.5773V285.493H14.1419V279.439H1.5852V250.984L-9.90936 250.184Z" fill="#E0E9ED"/>
<path d="M36.053 153.402H32.9617V154.112H36.053V153.402Z" fill="#E8E7F4"/>
<path d="M48.1776 224.97H48.9467L43.9347 222.355H44.0953V220.682H41.6724L40.4554 207.441L43.591 205.883H40.3229L39.7144 199.251H36.2998H38.7058L40.9428 198.141H36.2998V189.103H35.8322V181.265H37.6014V179.842H35.8322V173.081H36.8858V171.988H35.1617V166.793H34.987V154.18H33.9981V166.793H33.8206V171.988H32.1303V173.081H33.1501V179.842H31.4175V181.265H33.1501V189.103H32.6824V198.141H28.0367L30.2737 199.251H32.6796H29.2651L28.6565 205.883H25.4138L28.5128 207.424L27.2958 220.696H24.8729V222.369H25.0448L20.0328 224.984H20.8019V228.573H20.0356L25.0476 231.188H25.1631L25.6308 233.881L26.09 236.535L27.6479 245.55H29.8849L28.6002 310.176H40.3539L39.0833 245.522H41.3203L42.8782 236.507L43.3375 233.853L43.8051 231.159H43.9206L48.9326 228.545H48.1635L48.1776 224.97Z" fill="#E8E7F4"/>
<path d="M357.908 270.72V371.12H-18.0117V298.132L-10.7347 303.857V320.915L-2.61805 327.302V340.358H4.70692V273.545H12.8602V285.84H25.0788V299.738H44.7801V315.177H62.4446V258.65H74.1504V295.461H82.4614V337.687H96.4127V355.861H116.176V367.621H146.687V296.084L161.689 284.279V315.833H169.944V333.075H181.334V288.5L192.716 279.546L201.709 286.623V311.773L214.24 321.634V341.958H222.506V315.827H230.91V333.069H252.437V343.062H292.026L298.751 337.771H309.899V315.182H325.369V307.556H342.354V271.7L357.908 270.72Z" fill="url(#paint5_linear_1_4277)"/>
<path d="M127.411 360.752V342.873H123.749V335.644H119.45V327.274H114.809V319.856H110.493V314.34H107.177V309.204H101.205V304.829H107.175L102.532 296.458H90.9216V293.469H47.7973V296.458H36.1872L31.5415 304.829H37.5113V309.204H31.5443V314.34H28.2255V319.856H23.9122V327.274H19.2693V335.644H14.9561V342.873H11.2936V360.755H5.00539V364.941H133.714V360.755L127.411 360.752Z" fill="url(#paint6_linear_1_4277)"/>
<path d="M357.908 363.211H-18.0117V464H357.908V363.211Z" fill="#3C5A66"/>
<path d="M346.301 355.678V352.669H335.313V336.467H336.556V334.385H335.313V326.978H336.556V325.243H331.842V315.348L332.688 313.785V305.451L333.916 304.758V303.803H334.26V303.149H333.099V300.4L333.491 300.141V299.042H332.713V296.041H332.335V294.32L332.409 294.298V293.604H331.919V294.269L331.983 294.298V296.033H331.524V299.042H330.738V300.084L331.13 300.431V303.149H320.92L311.758 289.277H303.968V287.713H303.478V282.507H303.723V281.335H301.858V282.462L302.055 282.637V287.626H301.416V288.781L284.137 264.834L266.859 288.781V287.609H266.222V282.62L266.419 282.445V281.318H264.554V282.49H264.799V287.697H264.309V289.26H256.522L247.357 303.133H237.148V300.414L237.539 300.067V299.025H236.753V296.022H236.294V294.286L236.359 294.258V293.593H235.868V294.286L235.942 294.309V296.03H235.564V299.031H234.787V300.129L235.178 300.388V303.138H234.018V303.803H234.361V304.758L235.587 305.451V313.785L236.432 315.348V317.813H223.968V311.937L225.152 311.317V310.472H225.484V309.877H224.357V307.429L224.737 307.198V306.217H223.988V303.544H223.625V302.011L223.695 301.992V301.372H223.222V301.966L223.284 301.992V303.538H222.841V306.22H222.083V307.147L222.461 307.457V309.88H212.6L203.757 297.52H196.229V296.129H195.756V291.489H195.993V290.443H194.192V291.449L194.381 291.604V296.05H193.764V297.095L177.088 275.751L160.41 297.095V296.05H159.793V291.599L159.982 291.444V290.438H158.196V291.483H158.432V296.123H157.959V297.515H150.434L141.591 309.874H131.73V307.451L132.108 307.142V306.215H131.35V303.533H130.907V301.986L130.969 301.961V301.366H130.502V301.986L130.572 302.006V303.538H130.209V306.212H129.459V307.192L129.837 307.423V309.871H128.71V310.466H129.042V311.311L130.226 311.931V319.354L131.031 320.746V329.562H126.493V331.108H127.693V337.706H126.493V339.563H127.693V353.999H117.08V356.681H118.342V361.425H117.08V364.933H346.304V360.989H344.982V355.664L346.301 355.678Z" fill="#3C5A66"/>
</g>
<g filter="url(#filter0_b_1_4277)">
<rect x="37" y="361" width="267" height="72" rx="15" fill="black" fill-opacity="0.15"/>
<rect x="37.5" y="361.5" width="266" height="71" rx="14.5" stroke="url(#paint7_linear_1_4277)"/>
</g>
<path d="M69.8385 385.5H75.4385V410H70.7835L58.5685 395.125V410H52.9685V385.5H57.6585L69.8385 400.375V385.5ZM99.2951 400.655C99.2951 401.075 99.2251 401.67 99.1901 402.125H84.9451C85.4701 404.47 87.4651 405.905 90.3351 405.905C92.3301 405.905 93.7651 405.31 95.0601 404.085L97.9651 407.235C96.2151 409.23 93.5901 410.28 90.1951 410.28C83.6851 410.28 79.4501 406.185 79.4501 400.585C79.4501 394.95 83.7551 390.89 89.4951 390.89C95.0251 390.89 99.2951 394.6 99.2951 400.655ZM89.5301 395.02C87.0451 395.02 85.2601 396.525 84.8751 398.94H94.1501C93.7651 396.56 91.9801 395.02 89.5301 395.02ZM127.998 391.17H132.828L126.003 410H120.753L116.518 398.31L112.143 410H106.893L100.103 391.17H105.248L109.693 403.91L114.313 391.17H118.933L123.413 403.91L127.998 391.17ZM151.579 405.38H165.509V410H144.089V406.325L157.529 390.12H144.369V385.5H164.984V389.175L151.579 405.38ZM186.966 400.655C186.966 401.075 186.896 401.67 186.861 402.125H172.616C173.141 404.47 175.136 405.905 178.006 405.905C180.001 405.905 181.436 405.31 182.731 404.085L185.636 407.235C183.886 409.23 181.261 410.28 177.866 410.28C171.356 410.28 167.121 406.185 167.121 400.585C167.121 394.95 171.426 390.89 177.166 390.89C182.696 390.89 186.966 394.6 186.966 400.655ZM177.201 395.02C174.716 395.02 172.931 396.525 172.546 398.94H181.821C181.436 396.56 179.651 395.02 177.201 395.02ZM197.683 390.89C203.423 390.89 206.748 393.55 206.748 399.255V410H201.638V407.655C200.623 409.37 198.663 410.28 195.898 410.28C191.488 410.28 188.863 407.83 188.863 404.575C188.863 401.25 191.208 398.94 196.948 398.94H201.288C201.288 396.595 199.888 395.23 196.948 395.23C194.953 395.23 192.888 395.895 191.523 396.98L189.563 393.165C191.628 391.695 194.673 390.89 197.683 390.89ZM197.263 406.605C199.083 406.605 200.658 405.765 201.288 404.05V402.125H197.543C194.988 402.125 194.183 403.07 194.183 404.33C194.183 405.695 195.338 406.605 197.263 406.605ZM211.69 410V384.03H217.15V410H211.69ZM229.812 390.89C235.552 390.89 238.877 393.55 238.877 399.255V410H233.767V407.655C232.752 409.37 230.792 410.28 228.027 410.28C223.617 410.28 220.992 407.83 220.992 404.575C220.992 401.25 223.337 398.94 229.077 398.94H233.417C233.417 396.595 232.017 395.23 229.077 395.23C227.082 395.23 225.017 395.895 223.652 396.98L221.692 393.165C223.757 391.695 226.802 390.89 229.812 390.89ZM229.392 406.605C231.212 406.605 232.787 405.765 233.417 404.05V402.125H229.672C227.117 402.125 226.312 403.07 226.312 404.33C226.312 405.695 227.467 406.605 229.392 406.605ZM255.264 390.89C259.709 390.89 263.069 393.48 263.069 399.22V410H257.609V400.06C257.609 397.015 256.209 395.615 253.794 395.615C251.169 395.615 249.279 397.225 249.279 400.69V410H243.819V391.17H249.034V393.375C250.504 391.765 252.709 390.89 255.264 390.89ZM281.943 384.03H287.403V410H282.188V407.83C280.823 409.475 278.828 410.28 276.308 410.28C270.988 410.28 266.893 406.5 266.893 400.585C266.893 394.67 270.988 390.89 276.308 390.89C278.618 390.89 280.578 391.625 281.943 393.165V384.03ZM277.253 405.8C279.948 405.8 282.048 403.84 282.048 400.585C282.048 397.33 279.948 395.37 277.253 395.37C274.523 395.37 272.423 397.33 272.423 400.585C272.423 403.84 274.523 405.8 277.253 405.8Z" fill="white"/>
<defs>
<filter id="filter0_b_1_4277" x="22" y="346" width="297" height="102" filterUnits="userSpaceOnUse" color-interpolation-filters="sRGB">
<feFlood flood-opacity="0" result="BackgroundImageFix"/>
<feGaussianBlur in="BackgroundImageFix" stdDeviation="7.5"/>
<feComposite in2="SourceAlpha" operator="in" result="effect1_backgroundBlur_1_4277"/>
<feBlend mode="normal" in="SourceGraphic" in2="effect1_backgroundBlur_1_4277" result="shape"/>
</filter>
<linearGradient id="paint0_linear_1_4277" x1="170.365" y1="22.2501" x2="170.365" y2="421.685" gradientUnits="userSpaceOnUse">
<stop stop-color="#869ACF"/>
<stop offset="0.532" stop-color="#CD9994"/>
<stop offset="1" stop-color="#DADA94"/>
</linearGradient>
<linearGradient id="paint1_linear_1_4277" x1="137.335" y1="327.129" x2="137.335" y2="381.903" gradientUnits="userSpaceOnUse">
<stop offset="0.003" stop-color="#CD9994"/>
<stop offset="1" stop-color="#DADA94"/>
</linearGradient>
<linearGradient id="paint2_linear_1_4277" x1="149.088" y1="227.002" x2="218.108" y2="279.586" gradientUnits="userSpaceOnUse">
<stop offset="0.29" stop-color="#CD8694"/>
<stop offset="1" stop-color="#DADA94"/>
</linearGradient>
<linearGradient id="paint3_linear_1_4277" x1="170.367" y1="338.939" x2="170.367" y2="413.1" gradientUnits="userSpaceOnUse">
<stop stop-color="#A17A94"/>
<stop offset="1" stop-color="#DADA94"/>
</linearGradient>
<linearGradient id="paint4_linear_1_4277" x1="169.948" y1="-28.768" x2="169.948" y2="499.264" gradientUnits="userSpaceOnUse">
<stop offset="0.019" stop-color="#8EA3AE"/>
<stop offset="1" stop-color="#DADA94"/>
</linearGradient>
<linearGradient id="paint5_linear_1_4277" x1="169.948" y1="317.022" x2="169.948" y2="391.027" gradientUnits="userSpaceOnUse">
<stop offset="0.019" stop-color="#8EA3AE"/>
<stop offset="1" stop-color="#DADA94"/>
</linearGradient>
<linearGradient id="paint6_linear_1_4277" x1="69.3594" y1="306.12" x2="69.3594" y2="401.392" gradientUnits="userSpaceOnUse">
<stop offset="0.019" stop-color="#5E84B2"/>
<stop offset="1" stop-color="#DADA94"/>
</linearGradient>
<linearGradient id="paint7_linear_1_4277" x1="37" y1="355.169" x2="120.087" y2="467.909" gradientUnits="userSpaceOnUse">
<stop stop-color="white" stop-opacity="0.59"/>
<stop offset="1" stop-color="white" stop-opacity="0"/>
</linearGradient>
</defs>
</svg>
