<svg width="59" height="59" viewBox="0 0 59 59" fill="none" xmlns="http://www.w3.org/2000/svg">
<g id="Search Icon">
<circle id="Ellipse 3" cx="29.5" cy="29.5" r="29.5" fill="#4141A5"/>
<path id="Icon" d="M28.7466 22.1866C25.1236 22.1866 22.1866 25.1236 22.1866 28.7466C22.1866 32.3695 25.1236 35.3065 28.7466 35.3065C32.3695 35.3065 35.3065 32.3695 35.3065 28.7466C35.3065 25.1236 32.3695 22.1866 28.7466 22.1866ZM20 28.7466C20 23.916 23.916 20 28.7466 20C33.5772 20 37.4931 23.916 37.4931 28.7466C37.4931 30.7678 36.8075 32.6289 35.6562 34.11L39.6798 38.1336C40.1067 38.5606 40.1067 39.2528 39.6798 39.6798C39.2528 40.1067 38.5606 40.1067 38.1336 39.6798L34.11 35.6562C32.6289 36.8075 30.7678 37.4931 28.7466 37.4931C23.916 37.4931 20 33.5772 20 28.7466Z" fill="white"/>
</g>
</svg>
