<svg width="21" height="21" viewBox="0 0 21 21" fill="none" xmlns="http://www.w3.org/2000/svg">
<g id="World" clip-path="url(#clip0_1_4416)">
<g id="Group">
<path id="Vector" d="M20.8649 12.1823C21.7939 6.45808 17.9066 1.06461 12.1825 0.135612C6.45827 -0.793387 1.0648 3.09388 0.135805 8.81806C-0.793193 14.5422 3.09407 19.9357 8.81826 20.8647C14.5424 21.7937 19.9359 17.9065 20.8649 12.1823Z" fill="#5AB1C7"/>
<path id="Vector_2" d="M17.1095 4.89643C17.22 4.95169 17.3195 5.01801 17.43 5.07327C17.5516 5.12854 17.5295 5.07327 17.5184 5.05117C17.5295 5.06222 17.5405 5.07327 17.5405 5.08433C17.5405 5.06222 17.5405 5.05117 17.5737 5.04011V5.02906C17.5626 4.96275 17.5626 4.96275 17.6068 4.90748C17.5958 4.95169 17.6179 4.9959 17.6068 5.04011C17.5958 5.04011 17.5958 5.04012 17.5847 5.05117C17.5958 5.11748 17.5958 5.11748 17.5958 5.13959C17.5847 5.13959 17.5847 5.13959 17.5737 5.13959C17.6068 5.1838 17.6621 5.19485 17.6953 5.22801C17.6953 5.25012 17.6732 5.38275 17.5184 5.44906C17.7063 5.6038 17.8389 5.86906 18.0379 6.24485C18.0268 6.21169 18.0268 6.21169 18.0268 6.20064C18.0268 6.20064 18.2037 6.4438 18.2037 6.57643C18.2037 6.57643 18.2037 6.57643 18.1926 6.58748C18.1374 6.55433 18.1484 6.47696 18.1042 6.4438C18.1042 6.4438 18.1042 6.45485 18.0932 6.45485C18.0932 6.47696 18.1153 6.49906 18.1153 6.52117C18.1042 6.51012 18.1042 6.51012 18.0821 6.51012C18.0821 6.54327 18.1153 6.57643 18.0932 6.62064C18.0711 6.62064 18.0268 6.57643 18.0489 6.55433C18.0489 6.55433 18.0379 6.54327 18.0268 6.54327C18.0158 6.55433 18.0047 6.56538 18.0379 6.63169C18.0158 6.63169 18.0158 6.62064 17.9826 6.63169C17.9495 6.63169 17.9495 6.63169 17.9274 6.62064C17.9274 6.64275 17.9384 6.69801 17.9274 6.76433C17.9053 6.85275 17.8611 6.78643 17.85 6.76433C17.8389 6.74222 17.8279 6.73117 17.8058 6.69801C17.8058 6.72011 17.8168 6.74222 17.8168 6.76433C17.8168 6.76433 17.8168 6.77538 17.8168 6.78643C17.8279 6.83064 17.8279 6.8638 17.8389 6.90801C17.8058 6.87485 17.7837 6.87485 17.7726 6.8859C17.7616 6.89696 17.7616 6.91906 17.7616 6.94117C17.7616 6.98538 17.7616 6.99643 17.7505 7.01854C17.6842 6.95222 17.64 6.90801 17.5626 6.8859C17.6179 6.8859 17.6511 6.84169 17.6842 6.76433C17.7174 6.69801 17.7284 6.66485 17.7616 6.64275C17.6842 6.54327 17.43 6.64275 17.3968 6.73117C17.4189 6.74222 17.43 6.74222 17.4521 6.76433C17.5737 6.8638 17.6511 7.06275 17.6621 7.14011C17.6842 7.23959 17.64 7.22854 17.6289 7.21748C17.5295 7.14012 17.4853 7.02959 17.4189 6.94117C17.4189 6.94117 17.4189 6.94117 17.4079 6.94117C17.4079 6.94117 17.4079 6.95222 17.4079 6.97433C17.3968 6.94117 17.3858 6.93012 17.3526 6.89696C17.3084 6.85275 17.2974 6.83064 17.3195 6.76433C17.3416 6.68696 17.4853 6.30012 17.7395 6.4438C17.5958 6.15643 17.6621 6.15643 17.6953 6.15643C17.7726 6.15643 17.7726 5.80275 17.4853 5.53748C17.5184 5.55959 17.5626 5.58169 17.5958 5.6038C17.5737 5.58169 17.5737 5.58169 17.5184 5.50433C17.5184 5.50433 17.5184 5.50433 17.5184 5.51538C17.5074 5.52643 17.5074 5.52643 17.4632 5.51538C17.4632 5.51538 17.1647 5.36064 17.3305 5.27222C17.3084 5.26117 17.2863 5.25012 17.2753 5.22801C17.22 5.13959 17.1979 5.05117 17.1426 4.96275C17.1316 4.91854 17.1205 4.90748 17.1095 4.89643ZM6.36632 1.43696C6.39947 1.43696 6.43263 1.41485 6.51 1.38169C6.60947 1.33748 6.62053 1.32643 6.63158 1.33748C6.63158 1.34854 6.63158 1.37064 6.55421 1.4038C6.56526 1.41485 6.58737 1.41485 6.65368 1.4038C6.69789 1.39275 6.70895 1.39275 6.73105 1.39275C6.74211 1.35959 6.74211 1.35959 6.73105 1.33748C6.70895 1.31538 6.68684 1.31538 6.66474 1.29327C6.70895 1.29327 6.78632 1.29327 6.91895 1.26012C7.02947 1.23801 6.99632 1.18275 6.99632 1.18275C6.98526 1.17169 6.95211 1.17169 6.94105 1.17169C6.83053 1.18275 6.73105 1.2159 6.69789 1.22696C6.68684 1.22696 6.66474 1.22696 6.65368 1.23801C6.64263 1.23801 6.64263 1.24906 6.64263 1.24906C6.65368 1.24906 6.65368 1.24906 6.67579 1.26012C6.66474 1.26012 6.66474 1.27117 6.65368 1.27117C6.62053 1.26012 6.59842 1.27117 6.55421 1.30433C6.55421 1.28222 6.5321 1.27117 6.54316 1.26012C6.5321 1.27117 6.48789 1.28222 6.45474 1.27117H6.44368C6.42158 1.28222 6.42158 1.30433 6.39947 1.31538C6.39947 1.30433 6.39947 1.30433 6.39947 1.30433C6.38842 1.30433 6.36632 1.33748 6.36632 1.34854C6.37737 1.35959 6.37737 1.34854 6.38842 1.32643C6.43263 1.33748 6.47684 1.31538 6.52105 1.33748C6.3221 1.41485 6.3221 1.41485 6.3221 1.4259C6.31105 1.4259 6.36632 1.43696 6.36632 1.43696ZM3.85737 2.37643C3.92368 2.33222 4.2 2.14433 4.21105 2.14433L4.2 2.15538C4.23316 2.15538 4.24421 2.15538 4.33263 2.10012C4.42105 2.04485 4.55368 2.04485 4.62 1.93433C4.59789 1.93433 4.57579 1.94538 4.54263 1.95643C4.58684 1.93433 4.63105 1.90117 4.68632 1.87906C4.66421 1.90117 4.64211 1.91222 4.63105 1.93433C4.66421 1.93433 4.76368 1.86801 4.77474 1.85696C4.76368 1.85696 4.75263 1.86801 4.74158 1.86801C4.77474 1.8459 4.79684 1.83485 4.83 1.81275C4.81895 1.81275 4.80789 1.8238 4.79684 1.8238C4.79684 1.8238 4.79684 1.8238 4.91842 1.70222C4.92947 1.70222 4.96263 1.71327 4.98474 1.66906V1.68012C5.02895 1.69117 5.05105 1.64696 5.08421 1.6359C5.06211 1.6359 5.06211 1.6359 5.02895 1.65801C5.10632 1.60275 5.11737 1.60275 5.17263 1.59169C5.25 1.56959 5.30526 1.49222 5.38263 1.45906H5.37158V1.44801C5.41579 1.41485 5.48211 1.4259 5.52632 1.39275H5.51526C5.53737 1.38169 5.54842 1.38169 5.57053 1.37064C5.55947 1.37064 5.55947 1.37064 5.51526 1.38169C5.69211 1.29327 5.88 1.24906 6.05684 1.17169C6.06789 1.17169 6.09 1.16064 6.10105 1.14959C6.03474 1.12748 6.03474 1.12748 5.81368 1.2159C5.88 1.11643 6.05684 1.20485 6.10105 1.05012C6.09 1.05012 6.07895 1.03906 6.06789 1.03906C6.02368 1.05012 5.95737 1.06117 5.92421 1.07222H5.91316H5.90211C5.90211 1.07222 5.91316 1.07222 5.91316 1.06117C5.83579 1.08327 5.83579 1.08327 5.75842 1.12748C5.76947 1.11643 5.76947 1.11643 5.80263 1.09433C5.78053 1.10538 5.75842 1.11643 5.74737 1.12748C5.74737 1.12748 5.75842 1.12748 5.75842 1.11643C5.74737 1.11643 5.73632 1.12748 5.72526 1.12748C5.73632 1.12748 5.74737 1.11643 5.75842 1.10538C5.73632 1.11643 5.70316 1.12748 5.67 1.14959C5.18368 1.4038 4.73053 1.68012 4.29947 2.00064C4.05632 2.17748 3.81316 2.36538 3.59211 2.56433C3.69158 2.4759 3.89053 2.31012 3.94579 2.27696C3.92368 2.33222 3.89053 2.35433 3.85737 2.37643ZM17.1205 4.7859C17.0874 4.74169 17.0653 4.70854 16.9216 4.58696C16.8 4.47643 16.7779 4.45433 16.7668 4.42117V4.41012C16.7889 4.41012 16.8 4.39906 16.8663 4.42117C16.8442 4.3659 16.8332 4.33275 16.7558 4.26643C16.6342 4.16696 16.4795 4.12275 16.3579 4.03433C16.2253 3.93485 16.1368 3.81327 16.0042 3.7138C15.96 3.68064 15.9047 3.64748 15.8495 3.64748C15.8384 3.64748 15.8274 3.64748 15.8163 3.65854C15.8495 3.70275 15.9158 3.72485 15.9489 3.76906C16.1368 3.89064 16.5679 4.3438 16.7668 4.5538C16.9437 4.74169 16.9879 4.7859 17.0321 4.80801C16.9989 4.7638 16.9768 4.73064 16.9547 4.68643C16.9658 4.68643 16.9658 4.68643 17.0211 4.71959C17.0653 4.7638 17.1095 4.7859 17.1205 4.7859ZM7.64842 1.86801C7.64842 1.87906 7.64842 1.87906 7.68158 1.89012C7.68158 1.89012 7.69263 1.87906 7.69263 1.86801L7.68158 1.85696L7.69263 1.8459C7.75895 1.94538 7.83632 1.96748 7.93579 1.90117C7.91368 1.85696 7.86947 1.81275 7.84737 1.75748C7.91368 1.73538 7.98 1.68012 8.00211 1.62485C8.03526 1.64696 8.07947 1.6138 8.19 1.55854C8.30053 1.49222 8.43316 1.50327 8.55474 1.47012C8.56579 1.47012 8.5879 1.45906 8.59895 1.44801C8.52158 1.43696 8.44421 1.43696 8.36684 1.43696C8.32263 1.43696 8.30053 1.43696 8.25632 1.44801C8.23421 1.45906 8.21211 1.48117 8.19 1.48117C8.10158 1.51433 8.01316 1.52538 7.93579 1.55854C7.94684 1.58064 7.94684 1.58064 7.88053 1.6138C7.88053 1.6138 7.61526 1.77959 7.61526 1.81275C7.63737 1.8238 7.65947 1.8238 7.68158 1.83485C7.65947 1.85696 7.65947 1.85696 7.64842 1.86801ZM3.15 3.78012C3.07263 3.83538 3.07263 3.83538 2.92895 3.99011C2.92895 3.99011 2.91789 4.03433 2.95105 4.03433C2.97316 4.03433 3.00632 4.01222 3.02842 4.00117C3.01737 4.01222 3.00632 4.02327 2.99526 4.02327C3.16105 3.9459 3.19421 3.97906 3.20526 4.02327C3.22737 3.95696 3.29368 3.93485 3.33789 3.87959C3.39316 3.81327 3.33789 3.82433 3.31579 3.82433C3.30474 3.82433 3.30474 3.82433 3.29368 3.82433C3.32684 3.79117 3.37105 3.7359 3.36 3.7138C3.40421 3.72485 3.45947 3.44854 3.45947 3.43748L3.44842 3.42643C3.53684 3.38222 3.69158 3.26064 3.69158 3.20538C3.68053 3.19433 3.65842 3.20538 3.58105 3.23854C3.71368 3.13906 3.71368 3.13906 3.74684 3.1059C3.73579 3.11696 3.72474 3.12801 3.71368 3.13906C3.60316 3.22748 3.51474 3.24959 3.49263 3.24959C3.49263 3.23854 3.50368 3.22748 3.51474 3.21643C3.55895 3.18327 3.59211 3.16117 3.61421 3.12801C3.59211 3.12801 3.58105 3.13906 3.54789 3.17222C3.49263 3.21643 3.49263 3.21643 3.49263 3.22748C3.45947 3.26064 3.43737 3.2938 3.42632 3.2938C3.44842 3.27169 3.47053 3.24959 3.49263 3.22748C3.50368 3.22748 3.50368 3.22748 3.50368 3.22748C3.45947 3.27169 3.43737 3.30485 3.43737 3.30485C3.44842 3.30485 3.44842 3.30485 3.45947 3.28275C3.47053 3.28275 3.47053 3.28275 3.49263 3.26064C3.49263 3.26064 3.33789 3.39327 3.32684 3.40433C3.32684 3.40433 3.41526 3.34906 3.44842 3.32696C3.42632 3.34906 3.42632 3.34906 3.36 3.40433C3.36 3.40433 3.37105 3.39327 3.38211 3.39327C3.31579 3.43748 3.31579 3.43748 3.28263 3.48169C3.30474 3.47064 3.31579 3.45959 3.32684 3.44854C3.31579 3.45959 3.29368 3.48169 3.28263 3.51485C3.29368 3.51485 3.30474 3.51485 3.38211 3.43748C3.31579 3.5038 3.30474 3.51485 3.30474 3.54801C3.31579 3.55906 3.31579 3.55906 3.34895 3.55906C3.31579 3.58117 3.27158 3.63643 3.26053 3.65854H3.27158C3.23842 3.72485 3.21632 3.7359 3.15 3.78012ZM17.6511 4.68643C17.6511 4.67538 17.64 4.66433 17.6289 4.63117C17.6289 4.64222 17.6289 4.65327 17.6289 4.66433H17.6179C17.6289 4.67538 17.6511 4.69748 17.6511 4.68643ZM4.28842 2.29906C4.26632 2.31012 4.24421 2.29906 4.21105 2.29906C4.17789 2.31012 4.15579 2.33222 4.12263 2.36538C4.14474 2.34327 4.15579 2.33222 4.15579 2.33222C4.14474 2.32117 4.08947 2.35433 4.0121 2.40959C4.13368 2.31012 4.14474 2.28801 4.15579 2.27696C4.13368 2.28801 4.11158 2.31012 4.07842 2.34327C4.08947 2.32117 4.08947 2.32117 4.08947 2.32117C4.08947 2.32117 4.07842 2.32117 4.02316 2.37643C4.02316 2.37643 4.0121 2.37643 3.97895 2.39854C3.97895 2.39854 3.97895 2.39854 3.99 2.39854V2.40959C3.99 2.40959 3.97895 2.42064 3.96789 2.42064V2.43169C3.96789 2.43169 3.87947 2.46485 3.87947 2.48696C3.87947 2.48696 3.87947 2.48696 3.89053 2.48696C3.75789 2.58643 3.81316 2.59748 3.81316 2.59748C3.83526 2.60854 3.93474 2.57538 4.02316 2.52012C4.04526 2.50906 4.06737 2.49801 4.07842 2.4759C4.11158 2.4538 4.13368 2.42064 4.16684 2.40959C4.17789 2.39854 4.18895 2.37643 4.28842 2.29906ZM17.0874 6.56538C17.0874 6.55433 17.0874 6.55433 17.0874 6.56538C17.0874 6.55433 17.0874 6.55433 17.0874 6.56538ZM3.53684 2.64169C3.54789 2.63064 3.57 2.61959 3.59211 2.59748C3.57 2.61959 3.54789 2.63064 3.53684 2.64169ZM9.59369 1.24906C9.62684 1.23801 9.67105 1.22696 9.73737 1.22696C9.69316 1.22696 9.68211 1.24906 9.67105 1.26012C9.74842 1.28222 9.80368 1.32643 9.88105 1.34854C9.94737 1.35959 9.98053 1.33748 10.0026 1.32643C10.0026 1.32643 10.0137 1.31538 10.0358 1.29327C10.0358 1.29327 10.0358 1.29327 10.0137 1.28222C9.99158 1.27117 9.99158 1.26012 10.0137 1.24906C9.93632 1.24906 9.90316 1.23801 9.85895 1.2159C9.81474 1.1938 9.77053 1.18275 9.68211 1.18275C9.64895 1.18275 9.62684 1.18275 9.60474 1.18275C9.60474 1.20485 9.61579 1.22696 9.57158 1.2159C9.60474 1.22696 9.61579 1.22696 9.64895 1.22696C9.61579 1.22696 9.59368 1.22696 9.57158 1.22696C9.56053 1.23801 9.58263 1.26012 9.59369 1.24906ZM12.2463 1.53643C12.2353 1.53643 12.2353 1.53643 12.2463 1.53643C12.2574 1.53643 12.2905 1.53643 12.3126 1.54748C12.4011 1.55854 12.4895 1.59169 12.5779 1.59169C12.6332 1.60275 12.6774 1.59169 12.6884 1.58064C12.6774 1.55854 12.5337 1.53643 12.5226 1.53643C12.4895 1.53643 12.4453 1.52538 12.4121 1.51433C12.3458 1.51433 12.2905 1.45906 12.2242 1.47012C12.2021 1.47012 12.2021 1.48117 12.2021 1.48117C12.2132 1.50327 12.2353 1.51433 12.2463 1.53643ZM10.1021 1.37064C10.2126 1.37064 10.2789 1.34854 10.3121 1.32643C10.3121 1.32643 10.3232 1.32643 10.3232 1.31538C10.29 1.28222 10.1905 1.24906 10.1353 1.24906C10.0579 1.24906 10.0468 1.33748 10.0689 1.34854C10.08 1.37064 10.0911 1.37064 10.1021 1.37064ZM13.02 1.58064C13.02 1.56959 13.02 1.56959 13.02 1.58064C12.9426 1.52538 12.8763 1.50327 12.7989 1.51433C12.7658 1.51433 12.7437 1.52538 12.6995 1.53643C12.7105 1.53643 12.7326 1.54748 12.7768 1.55854C12.8763 1.58064 12.9979 1.62485 13.02 1.58064ZM17.4853 4.33275C17.4853 4.32169 17.4853 4.33275 17.4853 4.33275C17.4742 4.31064 17.4521 4.27748 17.4411 4.27748C17.4411 4.28854 17.4632 4.31064 17.4632 4.32169C17.4632 4.32169 17.4742 4.33275 17.4853 4.33275ZM17.5737 4.49854C17.5737 4.48748 17.5626 4.48748 17.5626 4.48748C17.5516 4.50959 17.5737 4.49854 17.5737 4.49854ZM17.6511 4.77485C17.64 4.77485 17.6511 4.77485 17.6511 4.77485C17.64 4.7638 17.64 4.7638 17.64 4.7638C17.6289 4.7638 17.6289 4.77485 17.6289 4.79696C17.6289 4.79696 17.6289 4.79696 17.6289 4.7859C17.6289 4.7859 17.6289 4.7859 17.6511 4.85222C17.6621 4.85222 17.6732 4.83012 17.6511 4.77485ZM17.5958 4.5538C17.5958 4.5538 17.6068 4.5538 17.5958 4.5538C17.6068 4.54275 17.6068 4.54275 17.5958 4.5538C17.5958 4.54275 17.5847 4.53169 17.5847 4.53169L17.5958 4.5538ZM8.01316 1.22696L8.06842 1.23801C8.07947 1.23801 8.10158 1.23801 8.10158 1.23801C8.10158 1.22696 8.10158 1.22696 8.10158 1.22696H8.11263C8.15684 1.24906 8.15684 1.24906 8.25632 1.20485C8.26737 1.23801 8.26737 1.23801 8.43316 1.18275C8.43316 1.18275 8.43316 1.1938 8.4221 1.1938C8.41105 1.20485 8.41105 1.20485 8.41105 1.20485C8.41105 1.20485 8.42211 1.20485 8.44421 1.20485V1.1938C8.44421 1.18275 8.44421 1.18275 8.44421 1.17169C8.42211 1.16064 8.4221 1.16064 8.36684 1.17169C8.37789 1.16064 8.3779 1.16064 8.38895 1.14959C8.35579 1.14959 8.32263 1.16064 8.28947 1.17169C8.28947 1.17169 8.28947 1.18275 8.32263 1.18275C8.30053 1.1938 8.27842 1.1938 8.26737 1.1938C8.25632 1.1938 8.23421 1.1938 8.1679 1.2159V1.22696C8.15684 1.22696 8.14579 1.22696 8.13474 1.22696C8.15684 1.2159 8.16789 1.2159 8.19 1.20485C8.16789 1.1938 8.14579 1.1938 8.11263 1.1938C8.12368 1.1938 8.15684 1.18275 8.1679 1.18275C8.19 1.18275 8.23421 1.20485 8.24526 1.18275C8.23421 1.18275 8.2121 1.18275 8.20105 1.17169C8.16789 1.16064 8.15684 1.16064 8.15684 1.16064C8.15684 1.16064 8.15684 1.16064 8.15684 1.18275C8.11263 1.1938 8.06842 1.2159 8.01316 1.20485H8.00211C8.00211 1.2159 8.00211 1.2159 8.00211 1.2159C8.00211 1.2159 8.00211 1.2159 7.98 1.2159C7.98 1.2159 7.98 1.2159 7.98 1.22696C7.96895 1.22696 7.94684 1.2159 7.91368 1.22696C7.91368 1.23801 7.91368 1.23801 7.91368 1.24906C8.01316 1.22696 8.01316 1.22696 8.01316 1.22696ZM17.5184 4.38801C17.5184 4.37696 17.5074 4.37696 17.5074 4.37696C17.5074 4.37696 17.5074 4.38801 17.5184 4.41012C17.5184 4.41012 17.5184 4.39906 17.5184 4.38801ZM7.65947 1.20485C7.68158 1.20485 7.72579 1.1938 7.77 1.20485C7.73684 1.20485 7.73684 1.20485 7.73684 1.2159C7.71474 1.2159 7.70368 1.22696 7.69263 1.22696C7.70368 1.24906 7.73684 1.24906 7.80316 1.23801C7.80316 1.23801 7.79211 1.23801 7.78105 1.24906C7.79211 1.24906 7.79211 1.24906 7.80316 1.24906C7.79211 1.26012 7.78105 1.27117 7.81421 1.27117C7.83632 1.27117 7.85842 1.26012 7.86947 1.26012C7.86947 1.26012 7.86947 1.26012 7.88053 1.26012C7.85842 1.24906 7.83632 1.24906 7.81421 1.26012C7.82526 1.26012 7.83632 1.26012 7.83632 1.24906H7.82526C7.84737 1.23801 7.86947 1.23801 7.89158 1.22696C7.89158 1.2159 7.89158 1.18275 7.81421 1.1938C7.75895 1.1938 7.70368 1.2159 7.63737 1.23801C7.64842 1.20485 7.65947 1.20485 7.65947 1.20485ZM16.6453 18.878C16.6121 18.9001 16.5789 18.9222 16.5458 18.9333C16.6453 18.8559 16.6453 18.8559 16.6563 18.8449C16.6453 18.8449 16.6342 18.8449 16.6232 18.8559C16.4353 18.9554 16.2695 19.088 16.0705 19.1764C15.7942 19.298 15.7942 19.298 15.7168 19.3422C15.5621 19.4306 15.5511 19.4527 15.5511 19.4638C15.6174 19.4859 16.3911 19.0549 16.6011 18.9112C16.6121 18.9001 16.6342 18.8891 16.6453 18.878ZM16.5568 18.9554C16.6011 18.9554 17.0432 18.657 17.1868 18.5354C17.1868 18.5354 17.1868 18.5354 17.1979 18.5243C17.1647 18.5354 17.1426 18.5685 17.1095 18.5796C17.1205 18.5685 17.1205 18.5685 17.2974 18.4027C17.2642 18.4249 17.2421 18.447 17.2089 18.4691C17.22 18.458 17.2311 18.447 17.2421 18.4359C17.0763 18.5906 16.5568 18.9554 16.5568 18.9554ZM17.5295 18.1817C17.4411 18.2591 17.3637 18.3364 17.2753 18.4138C17.2863 18.4027 17.2974 18.4027 17.3084 18.3917L17.2974 18.4027C17.3858 18.3254 17.4632 18.248 17.5516 18.1706C17.5405 18.1706 17.5405 18.1706 17.5295 18.1817ZM2.78526 4.01222C2.80737 4.00117 2.95105 3.93485 3.17211 3.66959C3.19421 3.63643 3.26053 3.55906 3.21632 3.55906H3.20526C3.11684 3.59222 3.06158 3.65854 2.97316 3.69169C2.96211 3.7359 2.94 3.74696 2.90684 3.76906C2.91789 3.79117 2.89579 3.82433 2.81842 3.90169C2.78526 3.9459 2.66368 4.06748 2.78526 4.01222ZM15.8937 18.3033C15.8937 18.3033 15.8937 18.3143 15.8937 18.3033C15.8937 18.3033 15.8937 18.3143 15.8937 18.3033ZM18.0489 16.9991C18.0489 16.988 18.06 16.988 18.06 16.977C18.06 16.988 18.06 16.988 18.0489 16.9991ZM17.2974 18.4027C17.2863 18.4138 17.2642 18.4359 17.2532 18.447C17.2753 18.4249 17.2863 18.4138 17.2974 18.4027ZM15.7168 18.8891C15.6947 18.8891 15.6616 18.8891 15.6395 18.8891C15.6174 18.8891 15.5621 18.8891 15.4737 18.9554C15.3742 19.0217 15.2858 19.1101 15.1863 19.1875C15.3079 19.1654 15.3189 19.1543 15.4516 19.0659C15.5842 18.9775 15.6837 18.9001 15.7168 18.8891C15.7168 18.8891 15.7058 18.8891 15.7168 18.8891ZM6.79737 7.85854C6.83053 7.85854 6.84158 7.85854 6.84158 7.85854C6.84158 7.85854 6.83053 7.84748 6.81947 7.84748C6.80842 7.84748 6.79737 7.84748 6.79737 7.85854ZM2.76316 5.55959C2.76316 5.58169 2.75211 5.59275 2.74105 5.64801C2.70789 5.74748 2.65263 5.92433 2.69684 5.89117C2.74105 5.85801 2.81842 5.72538 2.86263 5.63696C2.90684 5.52643 2.88474 5.53748 2.87368 5.53748C2.86263 5.53748 2.85158 5.53748 2.80737 5.57064C2.76316 5.59275 2.76316 5.59275 2.76316 5.55959ZM2.85158 5.50433C2.86263 5.48222 2.91789 5.4159 2.96211 5.31643C2.98421 5.28327 2.99526 5.25011 2.99526 5.23906H2.98421C2.91789 5.28327 2.86263 5.40485 2.86263 5.40485C2.84053 5.46011 2.84053 5.48222 2.85158 5.50433ZM17.2421 10.9533C17.2421 10.8759 17.22 10.8317 17.2089 10.7985C17.2089 10.7985 17.2089 10.8096 17.1979 10.8096C17.1758 10.8538 17.1537 10.9201 17.1647 10.9422C17.1758 10.9422 17.1758 10.9422 17.1979 10.9091C17.1095 11.0527 17.01 11.2075 16.9989 11.2185L16.9879 11.2406C16.9547 11.2849 16.9437 11.318 16.9216 11.3843C17.0432 11.318 17.2311 11.1301 17.2421 10.9533ZM17.8389 12.6664C17.8389 12.6443 17.8389 12.6222 17.8389 12.6001C17.8168 12.6001 17.7947 12.6112 17.7837 12.6112C17.6289 12.6443 17.4742 12.6554 17.3305 12.6885C17.2863 12.6996 17.2532 12.7217 17.2421 12.7438C17.2311 12.7659 17.22 12.777 17.22 12.788C17.1868 12.8654 17.1758 12.9427 17.1426 13.0201C17.0984 13.1638 16.9768 13.2854 16.9326 13.4291C16.8884 13.5838 16.9216 13.7385 16.8995 13.8822C16.9547 13.8712 16.9879 13.8601 17.0321 13.8822C17.0321 13.8822 17.1205 13.4622 17.1868 13.3959C17.22 13.4401 17.22 13.4512 17.2089 13.5838C17.1868 13.7717 17.2863 13.7385 17.3084 13.7275C17.2974 13.7496 17.2753 13.8049 17.2863 13.8822C17.2863 13.8822 17.2974 13.8822 17.2974 13.8933C17.3526 13.8601 17.4079 13.7054 17.4079 13.6501C17.3858 13.6612 17.3747 13.6612 17.3526 13.6833C17.3747 13.5285 17.3084 13.3738 17.3084 13.2191C17.4079 13.3406 17.4632 13.0533 17.5737 13.0201C17.4521 12.998 17.3195 13.0754 17.1868 13.0091C17.1316 12.987 17.1537 12.9427 17.2642 12.8764C17.3747 12.7991 17.4411 12.8101 17.5847 12.8212C17.7063 12.8322 17.7174 12.8322 17.7616 12.777C17.7505 12.788 17.7505 12.7991 17.7395 12.7991C17.8279 12.6996 17.8279 12.6996 17.8389 12.6664ZM18.06 13.418C18.0047 13.418 17.9274 13.4512 17.9937 13.5064C18.0047 13.5175 18.0158 13.5175 18.0158 13.5285C18.0158 13.5285 18.0158 13.5285 18.0268 13.5285C18.1263 13.5838 18.2258 13.5838 18.2479 13.5396C18.27 13.5064 18.2368 13.4733 18.2368 13.4733C18.2368 13.4843 18.2479 13.4954 18.2589 13.5064C18.1926 13.4291 18.0821 13.418 18.06 13.418ZM17.5626 13.0422C17.5516 13.0422 17.5626 13.0422 17.5626 13.0422C17.5516 13.0422 17.5626 13.0422 17.5626 13.0422ZM17.4963 10.9643C17.5184 11.0196 17.6179 10.9312 17.6179 10.9312C17.64 10.9201 17.64 10.898 17.6511 10.887C17.6511 10.8649 17.64 10.8538 17.6179 10.8206C17.5626 10.7543 17.5405 10.7322 17.5295 10.7101C17.5295 10.7101 17.5184 10.7101 17.5184 10.6991C17.5184 10.7101 17.5184 10.7212 17.5074 10.7543C17.4963 10.8206 17.4853 10.9312 17.4963 10.9643ZM17.1868 14.3464L17.2311 14.3575V14.3685C17.22 14.3685 17.1979 14.3796 17.1758 14.3796C17.1868 14.3906 17.1868 14.3906 17.22 14.4017C17.2532 14.3906 17.2863 14.3796 17.3195 14.3685C17.3195 14.3685 17.3195 14.3796 17.3084 14.3906C17.3195 14.3906 17.3416 14.3906 17.3526 14.3796C17.3637 14.3685 17.3637 14.3575 17.3747 14.3464H17.3858C17.3858 14.3464 17.3858 14.3464 17.3747 14.3464C17.3637 14.3464 17.3416 14.3575 17.3305 14.3464C17.2974 14.3464 17.2753 14.3575 17.2642 14.3575C17.2311 14.2912 17.1758 14.3354 17.1868 14.3464C17.0874 14.3133 16.9216 14.3243 16.8442 14.3354C16.7889 14.3464 16.7447 14.3796 16.6895 14.3906C16.6453 14.4017 16.6121 14.3796 16.5789 14.3796C16.59 14.3906 16.59 14.4017 16.6121 14.4017C16.5789 14.4238 16.5679 14.4127 16.5347 14.3685C16.4684 14.3685 16.4463 14.3796 16.4353 14.3796C16.4132 14.3243 16.3911 14.3022 16.3689 14.3022C16.3137 14.3243 16.3468 14.3685 16.4021 14.4349C16.4905 14.457 16.5789 14.4127 16.6674 14.4349C16.6453 14.3685 16.9768 14.4017 16.9879 14.4017V14.4127C17.0542 14.4017 17.1205 14.3685 17.1868 14.3464ZM15.5068 14.258C15.3189 14.2138 15.2084 14.1806 15.0205 14.0922C15.12 14.0591 15.1863 13.9927 15.2747 13.9485C15.4295 13.9264 15.5179 14.0812 15.6616 14.0812C15.7832 14.0812 15.9047 14.0149 16.0374 14.037C16.0484 14.037 16.0595 14.037 16.0705 14.037C16.1589 14.0591 16.17 14.0922 16.1811 14.1364C16.1368 14.1696 16.0816 14.1917 16.0042 14.1696C16.0374 14.2249 16.0484 14.2359 16.1589 14.258C16.3358 14.2801 16.3137 14.3575 16.3026 14.3685C16.3026 14.3685 16.3026 14.3796 16.2916 14.3796C16.2695 14.4017 16.1589 14.4459 16.1589 14.3354C16.1368 14.4127 15.9821 14.3685 15.5068 14.258ZM15.5179 14.258C15.5289 14.258 15.54 14.258 15.54 14.258C15.54 14.247 15.5068 14.247 15.5179 14.258C15.5068 14.247 15.5068 14.247 15.5179 14.258ZM17.6289 14.3354C17.64 14.3133 17.6179 14.3133 17.5958 14.3243C17.3305 14.3906 17.1537 14.6227 17.1095 14.7001C17.1205 14.7001 17.1647 14.678 17.2863 14.6227C17.3968 14.5564 17.6068 14.3906 17.6289 14.3354ZM16.5347 13.5617C16.5347 13.5617 16.6342 13.5285 16.5568 13.628C16.5789 13.6059 16.6121 13.5617 16.6232 13.5285C16.6674 13.4291 16.6563 13.3185 16.7005 13.2301C16.7558 13.1196 16.8553 13.0312 16.9105 12.9096C16.9437 12.8322 16.9437 12.788 16.9437 12.7327C17.01 12.8212 17.0432 12.7659 17.0432 12.7438C17.0653 12.6775 17.0542 12.5559 16.8995 12.3238C16.9216 12.3349 16.9216 12.3349 16.9326 12.3459C16.9326 12.3459 16.9326 12.3459 16.8774 12.2575C16.8995 12.2575 16.9658 12.2575 16.9547 12.1801C16.9547 12.1801 16.9547 12.1912 16.9658 12.1912H16.9768C16.9768 12.1801 16.9768 12.158 16.9658 12.1249C17.0211 12.1801 17.0542 12.1138 17.0542 12.0696C17.0542 12.0585 17.0432 12.0364 17.0432 12.0254C17.0653 12.0033 17.2089 11.8264 17.1316 11.8264C17.0984 11.8264 17.0432 11.8485 17.0211 11.8596C17.0432 11.8485 17.0432 11.8485 17.0542 11.8375C17.0321 11.8264 17.0321 11.8264 16.9879 11.8375C17.0432 11.7159 16.9547 11.6606 16.9326 11.6606C16.9105 11.6717 16.9105 11.6717 16.8995 11.6827V11.6717C16.8995 11.6717 16.7337 11.6827 16.6784 12.0806C16.6784 12.0475 16.6674 12.0364 16.6453 12.0143C16.6121 12.0696 16.6011 12.1138 16.59 12.1801C16.5347 12.1691 16.5568 12.0917 16.5016 12.0806C16.4353 12.2464 16.1589 12.4785 16.1258 12.4233V12.4122C16.0926 12.5006 16.0705 12.5559 16.0705 12.6554C16.0153 12.6112 15.8937 12.6333 15.9047 12.5338C15.8053 12.6333 15.7721 12.6664 15.7832 12.8654C15.7832 12.8764 15.8716 13.5064 15.9821 13.5064C16.0153 13.5064 16.0484 13.4512 16.0595 13.4291C16.0816 13.5396 16.3137 13.5506 16.38 13.5064C16.3137 13.6501 16.4684 13.5949 16.5347 13.5617ZM16.17 8.76485C16.17 8.76485 16.17 8.7759 16.1589 8.7759L16.17 8.76485ZM17.01 8.40012C17.0542 8.32275 17.0653 8.28959 17.0653 8.25643C17.0653 8.25643 17.0653 8.25643 17.0653 8.24538C17.0763 8.25643 17.0874 8.27854 17.0874 8.32275C17.0874 8.37801 17.0763 8.45538 17.0653 8.52169C17.0432 8.64327 17.0321 8.70959 17.0542 8.76485C17.0211 8.72064 17.0211 8.72064 16.9879 8.69854C16.9768 8.68748 16.9768 8.68748 16.9768 8.68748C16.9768 8.68748 16.9879 8.68748 16.9879 8.69854C16.8995 8.62117 16.9326 8.53275 17.01 8.40012ZM16.9879 8.72064L16.9658 8.69854L16.9879 8.72064ZM16.9989 8.72064C16.9879 8.70959 16.9879 8.70959 16.9989 8.72064V8.72064ZM17.0653 8.80906C17.0542 8.79801 17.0432 8.7759 17.0321 8.76485C17.0432 8.78696 17.0432 8.79801 17.0653 8.80906ZM15.0426 14.0701C15.0316 14.0591 15.0316 14.0591 15.0316 14.0591L15.0426 14.0701ZM13.8711 9.87012C13.86 9.85906 13.86 9.84801 13.8489 9.83696C13.6721 9.95854 13.6721 9.95854 13.6168 9.89222C13.5395 9.79275 13.5284 9.64906 13.5174 9.58275C13.4732 9.28433 13.23 9.10748 13.0863 8.87538C13.0642 8.84222 13.0532 8.80906 13.0311 8.7759C13.02 8.7538 12.9868 8.70959 12.9647 8.68748C12.9426 8.68748 12.9095 8.68748 12.8763 8.69854C12.8653 8.82011 12.8653 8.82012 12.81 8.87538C12.7989 8.85327 12.7768 8.83117 12.7658 8.79801C12.7547 8.82011 12.7326 8.84222 12.7105 8.85327C12.6884 8.84222 12.6553 8.84222 12.6332 8.84222C12.6221 8.85327 12.6111 8.86433 12.6111 8.87538C12.6 8.86433 12.5889 8.85327 12.5889 8.85327C12.5779 8.86433 12.5668 8.86433 12.5558 8.87538C12.5447 8.85327 12.5226 8.83117 12.5226 8.80906C12.3347 9.25117 11.8263 9.41696 11.6274 9.85906C11.4395 10.2791 11.5611 10.7654 11.3511 11.1854C11.3179 11.2517 11.2847 11.3401 11.2184 11.3733C10.9753 11.517 9.87 9.52748 10.2237 8.87538C10.2126 8.86433 10.2016 8.85327 10.1905 8.85327C10.1905 8.83117 10.1795 8.79801 10.1684 8.7759C10.1574 8.7759 10.1463 8.76485 10.1353 8.76485C10.1463 8.7759 10.1574 8.79801 10.1574 8.80906C10.1905 8.93064 10.0247 9.05222 9.92526 9.04117C9.74842 9.01906 9.78158 8.80906 9.66 8.73169C9.78158 8.72064 9.79263 8.67643 9.81474 8.64327C9.70421 8.64327 9.61579 8.63222 9.47211 8.52169C9.25105 8.3338 9.2179 8.22327 9.20684 8.17906C8.80895 7.96906 8.35579 8.32275 7.96895 8.05748C7.93579 8.03538 7.88053 7.99117 7.83632 7.96906C7.64842 7.85854 7.43842 7.98011 7.25053 7.89169C7.01842 7.78117 7.04053 7.43854 6.77526 7.35011C6.76421 7.35011 6.74211 7.35011 6.72 7.35011C6.72 7.35011 6.66474 7.41643 6.56526 7.48275C6.65368 7.50485 6.67579 7.52696 6.70895 7.71485L6.99632 8.32275C7.15105 8.49959 7.71474 8.47748 7.74789 8.01327C7.85842 8.1238 7.77 8.28959 7.85842 8.41117C7.94684 8.53275 8.13474 8.49959 8.21211 8.63222C8.23421 8.67643 8.24526 8.74275 8.23421 8.78696C8.20105 8.94169 7.99105 9.36169 7.39421 9.8259C7.38316 9.83696 6.22263 10.7543 5.95737 10.5001L4.99579 7.98011C4.98474 7.94696 4.97368 7.9138 4.96263 7.88064C4.89632 7.69275 4.91842 7.58222 4.92947 7.46064C4.80789 7.61538 4.80789 7.67064 4.81895 7.78117C4.69737 7.62643 4.66421 7.52696 4.65316 7.37222C4.53158 7.58222 4.52053 7.73696 4.76368 8.15696C4.94053 8.47748 4.94053 8.47748 5.21684 9.43906C5.32737 9.84801 5.44895 10.0691 5.64789 10.2238C5.73632 10.3012 5.91316 10.4338 5.95737 10.5222C6.00158 10.6438 5.95737 10.677 5.85789 10.7543C6.34421 10.9422 6.34421 10.9422 6.46579 10.898C7.10684 10.7101 7.10684 10.7101 7.10684 10.7433C7.10684 10.7764 7.21737 11.4396 6.20053 12.7106C5.19474 13.9706 5.93526 14.678 5.94632 14.678C5.94632 14.6891 5.94632 14.7112 5.93526 14.7333C5.95737 14.9764 6.11211 15.1864 6.12316 15.4296C6.14526 15.7391 5.79158 15.7943 5.70316 16.0375C5.59263 16.347 5.97947 16.5349 5.90211 16.8333C5.88 16.9438 5.78053 17.0101 5.73632 17.0543C5.88 17.198 6.02368 17.3306 5.83579 17.817C5.65895 18.2922 5.23895 18.1706 5.23895 18.1706C5.16158 18.1375 4.18895 17.1096 4.15579 17.0654C3.85737 16.7449 3.21632 15.7833 3.21632 15.7833C3.05053 15.4517 3.09474 15.0649 2.94 14.7333L2.92895 14.7001C2.92895 14.6891 2.55316 14.0591 2.63053 13.9043C2.38737 13.7827 1.89 13.1859 2.07789 12.8433C1.86789 12.6112 2.08895 12.2464 1.81263 12.0364C1.80158 12.0475 1.79053 12.0585 1.77947 12.0696C1.76842 12.0696 1.74632 12.0585 1.73526 12.0585C1.71316 12.0806 1.68 12.1027 1.65789 12.1027C1.28211 11.727 1.28211 11.727 1.17158 11.8043C0.663158 12.1801 0.596842 12.0364 0.497368 11.7933C0.497368 11.7933 0.25421 11.097 0.187895 10.1243C0.165789 9.72643 0.320526 9.35064 0.309474 8.9638C0.309474 8.97485 0.309474 8.99696 0.298421 9.00801C0.353684 8.17906 1.24895 6.72011 1.26 6.69801C1.39263 6.49906 1.45895 6.42169 1.50316 6.41064C1.55842 6.38854 1.59158 6.43275 1.64684 6.4438C1.69105 6.45485 1.70211 6.4438 1.87895 6.33327C2.03368 6.22275 2.08895 6.20064 2.18842 6.17854C2.23263 6.16748 2.23263 6.16748 2.61947 6.13433C2.70789 6.13433 2.76316 6.13433 2.68579 6.31117C2.63053 6.4438 2.53105 6.55433 2.50895 6.69801C2.55316 6.97433 3.19421 7.48275 3.31579 7.0959C3.37105 6.91906 3.43737 6.87485 3.48158 6.87485C3.50368 6.87485 3.52579 6.87485 3.54789 6.87485C3.74684 6.90801 3.85737 7.0959 4.04526 7.14011C4.23316 7.18433 4.38789 7.04064 4.57579 7.0738C4.58684 7.10696 4.60895 7.14012 4.63105 7.16222C4.89632 7.12906 5.01789 6.8859 5.11737 6.69801C5.29421 6.31117 5.23895 6.2338 5.21684 6.21169C5.21684 6.21169 4.77474 6.22275 4.67526 6.2338C4.48737 6.24485 4.37684 6.21169 4.34368 6.20064C4.35474 6.18959 4.35474 6.17854 4.36579 6.16748C4.34368 6.15643 4.29947 6.15643 4.26632 6.15643C4.27737 6.07906 4.26632 6.00169 4.31053 5.93538C4.18895 5.8138 4.36579 5.69222 4.34368 5.57064C4.26632 5.51538 4.18895 5.49327 4.08947 5.55959C4.08947 5.59275 4.08947 5.62591 4.11158 5.65906C4.08947 5.65906 4.04526 5.65906 4.02316 5.67012C4.02316 5.68117 4.02316 5.70327 4.0121 5.71433C4.00105 5.68117 3.97895 5.64801 3.95684 5.61485C3.92368 5.74748 4.02316 5.86906 4.0121 6.00169C4.00105 5.99064 3.99 5.97959 3.99 5.96854C3.99 5.99064 3.97895 6.0238 3.95684 6.04591C3.93474 6.03485 3.90158 6.0238 3.87947 6.0238C3.89053 6.03485 3.90158 6.0459 3.91263 6.06801C3.89053 6.09012 3.86842 6.11222 3.84632 6.12327C3.84632 6.15643 3.83526 6.20064 3.83526 6.2338C3.82421 6.24485 3.81316 6.2559 3.79105 6.2559C3.61421 6.13433 3.72474 6.00169 3.75789 5.95748C3.72474 5.95748 3.66947 5.94643 3.65842 5.86906C3.63632 5.76959 3.66947 5.61485 3.66947 5.61485C3.70263 5.44906 3.59211 5.32748 3.57 5.17275C3.55895 5.12854 3.53684 5.08433 3.53684 5.05117C3.53684 5.01801 3.54789 4.96275 3.57 4.94064C3.55895 4.92959 3.55895 4.90748 3.54789 4.89643C3.53684 4.89643 3.51474 4.90748 3.50368 4.90748C3.49263 4.89643 3.47053 4.89643 3.45947 4.88538C3.32684 4.9738 3.28263 5.01801 3.30474 5.19485C3.31579 5.4159 3.50368 5.52643 3.53684 5.71433C3.47053 5.73643 3.41526 5.69222 3.36 5.70327C3.36 5.70327 3.33789 5.94643 3.22737 6.06801C3.13895 6.05696 3.07263 6.14538 2.98421 6.14538C2.90684 6.01275 3.15 6.0238 3.21632 5.93538C3.40421 5.67012 3.12789 5.1838 3.11684 5.1838C3.01737 5.02906 2.86263 5.1838 2.73 5.1838C2.73 5.1838 2.73 5.1838 2.69684 5.1838C2.69684 5.1838 2.27684 5.51538 2.06684 5.89117C1.92316 6.14538 1.76842 6.28906 1.60263 6.33327C1.54737 6.28906 1.54737 6.21169 1.51421 6.15643C1.50316 6.15643 1.48105 6.16748 1.47 6.16748C1.55842 5.96854 1.55842 5.96854 1.60263 5.89117L1.59158 5.90222C1.92316 5.19485 1.92316 5.19485 2.21053 5.2059C2.35421 5.21696 2.73 4.75275 2.58632 4.50959C2.67474 4.45433 2.67474 4.45433 2.80737 4.42117C2.89579 4.21117 3.79105 3.70275 3.80211 3.70275C3.81316 3.7138 3.82421 3.72485 3.83526 3.7359C3.93474 3.62538 3.99 3.49275 4.08947 3.38222C4.10053 3.37117 4.13368 3.34906 4.14474 3.32696C4.22211 3.26064 4.25526 3.26064 4.29947 3.24959C4.22211 3.32696 4.16684 3.43748 4.07842 3.49275C4.08947 3.49275 4.11158 3.49275 4.12263 3.49275C4.07842 3.57012 4.07842 3.57012 4.0121 3.57012C4.02316 3.55906 4.02316 3.53696 4.03421 3.5259C3.99 3.60327 3.99 3.61433 4.0121 3.65854C4.0121 3.65854 4.08947 3.64748 4.2 3.63643C4.18895 3.64748 4.17789 3.65854 4.16684 3.65854C4.17789 3.66959 4.17789 3.69169 4.18895 3.70275C4.18895 3.70275 4.59789 3.66959 4.68632 3.60327C4.81895 3.41538 4.92947 3.28275 5.01789 3.22748C5.04 3.23854 5.06211 3.27169 5.08421 3.2938C5.22789 3.27169 5.19474 3.11696 5.27211 3.05064C5.32737 3.00643 5.32737 3.00643 5.73632 2.98433C5.73632 2.97327 5.72526 2.95117 5.72526 2.92906C5.71421 2.91801 5.69211 2.90696 5.68105 2.90696C5.68105 2.8959 5.68105 2.88485 5.67 2.8738C5.30526 2.94012 5.30526 2.94012 5.23895 2.91801C5.34947 2.75222 5.34947 2.75222 5.76947 2.43169C5.60368 2.31012 5.54842 2.4538 5.53737 2.49801C4.96263 2.71906 4.99579 2.8959 5.00684 2.97327C4.39895 3.5038 4.39895 3.5038 4.24421 3.51485C4.24421 3.5038 4.25526 3.48169 4.26632 3.45959C4.14474 3.58117 4.14474 3.58117 4.11158 3.61433C4.10053 3.61433 4.07842 3.60327 4.06737 3.59222C4.14474 3.55906 4.14474 3.55906 4.15579 3.47064C4.32158 3.5038 4.43211 3.16117 4.47632 3.01748C4.35474 3.11696 4.29947 3.15012 4.2 3.18327C4.18895 3.17222 4.17789 3.16117 4.16684 3.16117C4.17789 3.11696 4.21105 3.07275 4.21105 3.02854C4.31053 2.92906 4.37684 2.78538 4.50947 2.73012C4.59789 2.6859 4.60895 2.6859 4.68632 2.64169C4.90737 2.53117 5.11737 2.37643 5.32737 2.25485C5.42684 2.18854 5.44895 2.17748 5.47105 2.15538C5.48211 2.14433 5.48211 2.14433 5.49316 2.13327C5.46 2.14433 5.42684 2.14433 5.39368 2.15538C5.47105 2.11117 5.55947 2.07801 5.64789 2.0338C5.63684 2.04485 5.62579 2.0559 5.61474 2.06696C5.72526 2.0559 5.80263 1.97854 5.89105 1.95643C5.89105 1.96748 5.89105 1.98959 5.89105 2.00064C6.00158 1.96748 6.00158 1.96748 6.01263 1.95643C6.02368 1.95643 6.04579 1.96748 6.05684 1.96748C6.10105 1.91222 6.10105 1.90117 6.20053 1.86801C6.21158 1.87906 6.23368 1.87906 6.24474 1.89012C6.22263 1.90117 6.18947 1.93433 6.15632 1.94538C6.24474 1.90117 6.33316 1.89012 6.37737 1.87906C6.36632 1.89012 6.35526 1.90117 6.34421 1.90117C6.35526 1.90117 6.37737 1.89012 6.39947 1.89012C6.41053 1.90117 6.43263 1.91222 6.44368 1.91222C6.41053 1.92327 6.37737 1.93433 6.34421 1.94538C6.48789 1.95643 6.48789 1.95643 6.49895 1.95643C6.49895 1.96748 6.51 1.98959 6.51 2.00064C6.75316 2.0559 6.84158 2.06696 6.86368 2.13327C6.89684 2.21064 6.75316 2.31012 6.68684 2.32117C6.55421 2.34327 6.46579 2.2438 6.34421 2.23275C6.42158 2.54222 6.42158 2.54222 6.49895 2.52012C6.48789 2.49801 6.47684 2.4538 6.46579 2.43169C6.64263 2.43169 6.77526 2.27696 6.95211 2.28801C6.96316 2.29906 6.97421 2.31012 6.98526 2.32117C7.05158 2.17748 7.05158 2.17748 7.06263 2.12222C7.05158 2.11117 7.05158 2.10012 7.04053 2.08906C7.15105 2.0338 7.21737 2.0559 7.21737 2.15538C7.11789 2.15538 7.09579 2.16643 7.08474 2.2438C7.32789 2.2659 7.49368 2.04485 7.72579 2.0559C7.70368 2.07801 7.67053 2.10012 7.64842 2.11117C8.00211 2.08906 8.05737 2.06696 8.12368 2.0338C8.12368 2.02275 8.12368 2.02275 7.99105 1.93433C8.57684 2.11117 8.57684 2.11117 8.59895 2.10012C8.52158 2.02275 8.49947 1.95643 8.51053 1.89012C8.53263 1.79064 8.66526 1.77959 8.68737 1.68012C8.72053 1.68012 8.75368 1.69117 8.77579 1.70222C8.77579 1.70222 8.77579 1.70222 8.78684 1.70222C8.79789 1.70222 8.82 1.71327 8.83105 1.71327C8.88632 1.8459 8.86421 2.00064 8.93053 2.12222C8.89737 2.22169 8.88632 2.23275 8.76474 2.27696C9.06316 2.25485 9.03 2.14433 9.01895 2.07801C9.15158 2.01169 9.2179 2.14433 9.31737 2.16643C9.17369 2.04485 8.98579 1.98959 8.88632 1.8238C8.95263 1.77959 8.95263 1.77959 8.97474 1.71327C8.98579 1.72433 8.99684 1.73538 9.00789 1.73538C9.00789 1.76854 9.01895 1.81275 9.01895 1.8459C9.0521 1.85696 9.05211 1.85696 9.20684 1.86801C9.19579 1.8459 9.19579 1.8459 9.07421 1.79064C9.08526 1.79064 9.10737 1.80169 9.11842 1.80169C9.12947 1.79064 9.14053 1.77959 9.15158 1.77959C9.14053 1.76854 9.12947 1.76854 9.11842 1.75748C9.11842 1.75748 9.31737 1.80169 9.45 1.81275C9.39474 1.73538 9.36158 1.71327 9.25105 1.69117C9.25105 1.69117 9.25105 1.69117 9.27316 1.68012C9.38368 1.64696 9.50526 1.68012 9.61579 1.6359C9.60474 1.6359 9.58263 1.62485 9.57158 1.6138C9.54947 1.49222 9.60474 1.49222 9.87 1.50327C9.89211 1.48117 9.92526 1.47012 9.94737 1.45906C9.94737 1.45906 10.0247 1.48117 10.2016 1.47012C10.1905 1.45906 10.1795 1.44801 10.1684 1.43696C10.1795 1.43696 10.2016 1.43696 10.2126 1.43696C10.2568 1.38169 10.2568 1.38169 10.3232 1.35959C10.8426 1.34854 11.2516 1.73538 11.7711 1.72433C11.7821 1.71327 11.7932 1.70222 11.7932 1.69117C11.7932 1.68012 11.7821 1.65801 11.7821 1.64696C12.0363 1.71327 12.2574 1.90117 12.5447 1.8459C12.5447 1.83485 12.5337 1.81275 12.5337 1.80169C12.6663 1.75748 12.7768 1.8238 12.9095 1.83485C12.9095 1.83485 12.9095 1.83485 12.8763 1.8238C12.8653 1.81275 12.8542 1.80169 12.8432 1.80169C12.8874 1.80169 12.8874 1.80169 12.9758 1.81275C12.9426 1.80169 12.9095 1.77959 12.8763 1.76854C12.8763 1.75748 12.8653 1.73538 12.8653 1.72433C13.3405 1.68012 13.3737 1.71327 13.4953 1.81275C13.7053 1.98959 13.9595 1.86801 14.1916 1.90117C14.4016 1.92327 14.6005 1.93433 14.8105 1.95643C14.8326 1.95643 14.8658 1.97854 14.8879 1.98959C14.8768 1.98959 14.8547 1.97854 14.8437 1.97854C15.0095 2.04485 15.0426 2.04485 15.12 2.0559C14.9321 1.97854 14.9321 1.97854 14.91 1.93433C15.3079 1.91222 16.2916 2.17748 16.4574 2.35433C16.4463 2.35433 16.4242 2.35433 16.4132 2.35433C16.4353 2.36538 16.5347 2.40959 16.6232 2.4759C16.3911 2.59748 16.2584 2.35433 16.0705 2.32117C16.17 2.38748 16.17 2.38748 16.2032 2.40959C16.1921 2.42064 16.1921 2.43169 16.1811 2.44275C16.3468 2.53117 16.5237 2.58643 16.6674 2.69696C16.6121 2.67485 16.6011 2.67485 16.5237 2.6638C16.5347 2.6859 16.5458 2.70801 16.5568 2.71906C16.5458 2.73012 16.5347 2.74117 16.5237 2.75222C16.5789 2.79643 16.59 2.80748 16.6453 2.90696C16.6342 2.91801 16.6342 2.92906 16.6232 2.94012C16.4242 2.8959 16.3689 2.90696 16.3247 2.91801C16.3468 3.02854 16.6232 3.18327 16.6232 3.18327C16.6232 3.18327 16.9437 3.37117 17.1095 3.57012C17.1095 3.58117 17.1095 3.60327 17.1095 3.62538C17.1537 3.66959 17.1537 3.66959 17.2642 3.79117C17.2642 3.79117 17.2642 3.79117 17.2421 3.80222C17.2642 3.90169 17.3416 3.96801 17.3858 4.05643C17.3968 4.06748 17.4079 4.11169 17.4079 4.1559C17.3968 4.14485 17.3858 4.1338 17.3747 4.12275C17.3637 4.11169 17.3747 4.08959 17.3858 4.06748C17.0653 3.7138 16.6342 3.5038 16.2805 3.19433C16.2916 3.18327 16.3026 3.16117 16.3137 3.15012C16.1811 2.78538 15.9268 2.6638 15.8495 2.6638C15.9268 2.71906 15.9489 2.73012 16.0153 2.77433C16.0042 2.77433 15.9821 2.77433 15.9711 2.77433C15.9821 2.80748 15.9932 2.85169 16.0042 2.8738C15.7832 2.73012 15.7611 2.71906 15.6616 2.69696C15.6505 2.70801 15.6395 2.71906 15.6395 2.73012C15.6505 2.80748 15.6505 2.80748 15.9268 3.03959C15.8274 3.17222 15.7168 3.07275 15.6947 3.05064C15.7058 3.03959 15.7168 3.02854 15.7279 3.02854C15.7279 3.02854 15.7279 3.02854 15.7168 3.02854C15.6947 3.02854 15.6616 3.01748 15.6395 3.01748C15.6395 3.01748 15.6395 3.01748 15.6063 3.01748C15.5732 3.01748 15.54 3.01748 15.5068 3.00643C15.3742 3.03959 15.2305 2.8959 15.1089 3.02854C15.0095 3.13906 14.9984 3.65854 15.4737 3.66959C15.3411 3.54801 15.3411 3.54801 15.3189 3.5038C15.3189 3.5038 15.4958 3.61433 15.5289 3.7138C15.5511 3.70275 15.5732 3.69169 15.5953 3.68064C15.5732 3.65854 15.5511 3.63643 15.54 3.60327C15.6505 3.60327 15.7942 3.63643 15.9268 3.76906C15.9158 3.76906 15.8937 3.76906 15.8826 3.75801C16.6011 4.17801 16.7779 4.98485 16.6674 5.22801C16.6563 5.22801 16.6342 5.23906 16.6232 5.25011C16.5679 5.22801 16.5679 5.22801 16.5126 5.16169C16.5016 5.17275 16.4905 5.1838 16.4905 5.19485C16.4795 5.1838 16.4795 5.17275 16.4684 5.16169C16.4795 5.19485 16.4905 5.23906 16.4905 5.26117C16.4795 5.26117 16.4574 5.26117 16.4463 5.25011C16.6342 5.40485 16.4574 5.64801 16.5789 5.8138C16.6895 5.96854 16.8884 6.00169 16.9768 6.16748C17.01 6.2338 17.01 6.2338 17.0653 6.47696C17.0432 6.47696 17.01 6.48801 16.9879 6.49906C16.9879 6.51012 16.9879 6.53222 16.9879 6.54327C16.7558 6.63169 16.6563 6.18959 16.6674 6.14538C16.6784 6.15643 16.6895 6.16748 16.7005 6.16748C16.6895 6.10117 16.6784 6.07906 16.5789 6.0238H16.5679C16.4905 6.00169 16.4021 5.99064 16.3247 5.95748C16.3137 5.93538 16.3247 5.89117 16.3358 5.86906C16.2363 5.82485 16.2032 5.69222 16.0705 5.69222C15.9489 5.69222 16.0153 5.86906 15.8937 5.86906C15.8826 5.86906 15.8605 5.85801 15.8495 5.85801C15.8384 5.75854 15.8274 5.75854 15.7721 5.73643C15.7832 5.72538 15.7942 5.70327 15.7942 5.69222C15.7942 5.65906 15.7389 5.50433 15.6284 5.54854C15.6284 5.54854 15.3189 5.75854 15.4626 5.92433C15.6395 6.12327 15.9158 5.99064 16.1147 6.09011C16.0926 6.20064 15.9711 6.26696 15.9932 6.38854C16.0042 6.43275 16.0042 6.47696 16.1921 6.6759C16.3579 6.85275 16.4795 6.96327 16.6011 7.06275C16.59 7.0738 16.5789 7.0738 16.5679 7.08485C16.5016 7.05169 16.4684 6.98538 16.3911 6.97433C16.4021 6.97433 16.5568 7.05169 16.5789 7.25064C16.5679 7.26169 16.5568 7.27275 16.5568 7.2838C16.7337 7.31696 16.7337 7.31696 16.7668 7.44959C16.7668 7.46064 16.7558 7.47169 16.7447 7.48275C16.7889 7.58222 16.7889 7.59327 16.7779 7.65959C16.7668 7.65959 16.7447 7.65959 16.7337 7.67064C16.7116 7.7259 16.6895 8.01327 16.7447 8.1238C16.7447 8.1238 16.7447 8.1238 16.7558 8.11275C16.7337 8.26748 16.7226 8.28959 16.6121 8.41117C16.4795 8.5438 16.3026 8.58801 16.1589 8.69854C16.1479 8.65433 16.1368 8.63222 16.0816 8.59906C16.1258 8.68748 16.1368 8.70959 16.0263 8.84222C16.0263 8.84222 15.7721 8.64327 15.7279 9.08538C15.8163 9.16275 15.8605 9.22906 15.8163 9.39485C15.7721 9.52748 15.6505 9.54959 15.5842 9.56064C15.5953 9.53854 15.6174 9.49432 15.6284 9.47222C15.6395 9.12959 15.6395 9.12959 15.6947 9.08538C15.6947 9.03011 15.6947 8.91959 15.6174 8.88643C15.5732 8.86433 15.12 8.90854 15.1532 9.16275C15.2084 9.63801 15.7279 9.87011 15.7942 10.3454C15.8163 10.5112 15.75 11.097 15.4958 10.9091C15.4847 11.0306 15.3742 11.3622 15.1974 11.2738C15.2195 11.2517 15.2416 11.2075 15.2526 11.1854C15.1642 10.8096 14.7442 10.688 14.6005 10.3564C14.3021 10.5554 14.4016 11.0306 14.4126 11.0859C14.4568 11.307 14.6558 11.4175 14.7774 11.5943C14.9763 11.8927 14.91 12.2575 15.0537 12.578C15.0647 12.5891 15.0868 12.6001 15.0979 12.6112C14.7995 12.6664 14.7 12.4233 14.5784 11.9038C14.4789 11.4617 14.4347 11.318 14.2689 11.4506C14.2247 11.307 14.2137 11.2406 14.2468 10.9754C14.3353 10.2791 14.0258 9.75959 13.9263 9.62696C13.9595 9.8259 13.9263 9.84801 13.8711 9.87012ZM6.64263 5.11748C6.67579 5.12854 6.67579 5.12854 6.70895 5.11748C6.60947 5.27222 6.63158 5.33854 6.81947 5.49327C6.94105 5.59275 6.96316 5.6259 6.97421 5.68117C6.84158 5.65906 6.77526 5.90222 6.78632 5.97959C6.79737 6.11222 6.91895 6.16748 7.00737 6.22275C7.02947 6.2338 7.04053 6.24485 7.04053 6.2559C7.17316 6.33327 7.28368 6.20064 7.40526 6.22275C7.39421 5.75854 7.39421 5.48222 7.19526 5.28327C7.05158 5.15064 7.05158 5.11748 7.04053 5.06222C7.06263 5.04012 7.09579 5.02906 7.11789 5.01801C7.08474 4.94064 7.08474 4.94064 7.30579 4.89643C7.27263 4.87433 7.26158 4.86327 7.28368 4.7859C7.29474 4.73064 7.31684 4.65327 7.15105 4.64222C6.96316 4.63117 6.90789 4.84117 6.74211 4.87433C6.72 4.87433 6.70895 4.86327 6.68684 4.85222C6.69789 4.94064 6.62053 5.01801 6.64263 5.11748ZM5.41579 4.77485C5.37158 4.84117 5.46 4.85222 5.67 4.89643C5.6921 4.85222 5.71421 4.7638 5.78053 4.7859C5.78053 4.7638 5.78053 4.75275 5.74737 4.74169C5.72526 4.73064 5.71421 4.71959 5.72526 4.69748C5.76947 4.70854 5.82474 4.68643 5.88 4.65327C5.89105 4.65327 5.89105 4.64222 5.90211 4.64222C5.80263 4.58696 5.60368 4.65327 5.47105 4.75275C5.48211 4.74169 5.4821 4.74169 5.4821 4.74169C5.46 4.73064 5.43789 4.75275 5.41579 4.77485C5.42684 4.7638 5.42684 4.7638 5.43789 4.75275L5.41579 4.77485ZM5.65895 5.58169C5.83579 5.59275 5.92421 5.48222 5.95737 5.44906C6.04579 5.31643 5.86895 5.10643 5.64789 4.96275C5.49316 4.86327 5.32737 5.04012 5.17263 4.96275C5.16158 4.92959 5.16158 4.92959 5.30526 4.80801C5.18368 4.74169 5.10632 4.70854 4.99579 4.7638L4.97368 4.74169L4.98474 4.75275C4.88526 4.80801 4.81895 4.92959 4.74158 5.06222C4.65316 5.21696 4.62 5.25011 4.53158 5.31643C4.56474 5.33854 4.57579 5.34959 4.59789 5.40485C4.62 5.44906 4.65316 5.51538 4.68632 5.52643C4.88526 5.57064 5.01789 5.36064 5.21684 5.40485C5.38263 5.43801 5.49316 5.55959 5.65895 5.58169ZM11.7489 11.318C11.7379 11.318 11.7379 11.3291 11.7268 11.3401C11.7379 11.3733 11.7489 11.3733 11.7489 11.3733V11.3622C11.7489 11.3512 11.76 11.3512 11.76 11.3401C11.76 11.3291 11.76 11.318 11.7489 11.318ZM19.8947 13.6833C19.9389 13.5175 19.9279 13.3517 19.8837 13.3627C19.8726 13.3627 19.8616 13.3738 19.8505 13.3959C19.8505 13.407 19.8505 13.418 19.8505 13.4401C19.8505 13.4401 19.8505 13.4401 19.8395 13.4401C19.8284 13.4512 19.8284 13.4512 19.8284 13.4622C19.8284 13.4622 19.8284 13.4622 19.8395 13.4512C19.8505 13.5064 19.8284 13.6612 19.8284 13.6612C19.8284 13.6722 19.8063 13.6833 19.8063 13.6833C19.7732 13.7275 19.7621 13.7827 19.7289 13.8159C19.7068 13.838 19.6958 13.838 19.6847 13.827C19.6516 13.8049 19.6405 13.7938 19.5853 13.838C19.5742 13.8491 19.5742 13.8491 19.5521 13.9485C19.5632 13.9485 19.7068 14.0259 19.8174 13.6833C19.8174 13.7385 19.8174 13.7496 19.8174 13.7606C19.8395 13.7385 19.8395 13.7275 19.8505 13.7054L19.8616 13.6833H19.8947C19.8947 13.6943 19.8947 13.6833 19.8947 13.6833ZM11.7268 11.3622C11.7379 11.5612 11.7268 11.7049 11.7047 11.7933C11.6495 12.0033 11.5168 11.8154 11.5168 11.8043C11.4616 11.7049 11.4837 11.5943 11.5168 11.4506C11.55 11.307 11.5611 11.2185 11.5168 11.1412C11.5058 11.1412 11.4947 11.1301 11.4837 11.108L11.4947 11.1191C11.4947 11.1191 11.4947 11.1191 11.4837 11.108C11.4947 11.097 11.4947 11.097 11.5168 11.097C11.5279 11.097 11.6053 11.097 11.6937 11.2075C11.7158 11.2406 11.7489 11.2959 11.7158 11.3291C11.7158 11.3401 11.7158 11.3512 11.7268 11.3622ZM11.5721 11.1633C11.55 11.1412 11.5389 11.1522 11.5389 11.1522C11.5389 11.1522 11.5389 11.1633 11.55 11.1633C11.55 11.1633 11.5611 11.1633 11.5721 11.1633ZM19.0768 13.208C18.8889 13.208 18.8668 13.4622 18.69 13.4843C18.6237 13.4954 18.6568 13.2743 18.6568 13.2743V13.2854C18.6789 13.0754 18.69 12.987 18.5574 12.998C18.5021 13.0091 18.4468 13.0422 18.3805 13.1196C18.3916 13.0533 18.3695 13.0422 18.3584 13.0312C18.3474 13.0312 18.3363 13.0422 18.3253 13.0643C18.4026 13.208 18.48 13.3296 18.6126 13.2854C18.5684 13.3517 18.48 13.3406 18.4247 13.3849C18.5132 13.4622 18.4026 13.5506 18.4468 13.628C18.4689 13.628 18.48 13.628 18.5463 13.5064C18.5353 13.5617 18.5353 13.5949 18.5684 13.6391C18.6016 13.6833 18.6679 13.6943 18.7011 13.7275C18.7674 13.7827 18.7674 13.7938 18.7784 14.2027C18.7674 14.1806 18.7453 14.1143 18.6126 14.3685C18.6789 14.3354 18.7563 14.3354 18.8226 14.3133C18.7563 14.5122 18.9 14.5012 18.9111 14.4901C18.9221 14.4791 19.0437 14.3906 19.0326 14.3354H19.0216C19.0879 14.3022 19.0879 14.3022 19.0989 14.2912V14.2801V14.2912C19.11 14.2691 19.1211 14.258 19.1432 14.2138C19.1542 14.2801 19.2205 14.3022 19.2426 14.3685C19.2647 14.468 19.2095 14.5675 19.2537 14.667C19.3089 14.7885 19.3642 14.7333 19.3642 14.7222C19.3863 14.7001 19.3863 14.6559 19.3974 14.6227C19.4195 14.5012 19.3642 14.3906 19.3753 14.2801C19.3863 14.1585 19.4747 14.0591 19.4858 13.9375C19.4858 13.9043 19.4858 13.8601 19.4858 13.827C19.4747 13.827 19.3089 13.197 19.0768 13.208ZM14.9984 13.9154C14.9874 13.8822 14.9874 13.8822 14.9874 13.8712C15.0205 13.8491 15.0647 13.8712 15.1089 13.8491C15.1421 13.827 15.1974 13.7827 15.2084 13.7385C15.2637 13.5727 15.2084 13.407 15.1863 13.3185C15.2968 13.4954 15.3189 13.5396 15.4184 13.4843C15.3853 13.4512 15.4074 13.407 15.4184 13.407C15.4295 13.407 15.4405 13.418 15.4405 13.418L15.4184 13.3959H15.4295C15.4295 13.3959 15.4184 13.3959 15.4184 13.3849C15.2195 13.197 15.2195 13.197 15.1421 13.2412C15.0758 13.1306 14.9984 13.0312 14.9542 12.8985C14.9321 12.8322 14.9432 12.7438 14.91 12.6775C14.8879 12.6333 14.8547 12.6222 14.8105 12.6001C14.7995 12.6222 14.7995 12.6333 14.7995 12.6554C14.7774 12.6222 14.7553 12.6112 14.7221 12.5891C14.7442 12.6001 14.7442 12.6001 14.7553 12.5891C14.7774 12.5117 14.6668 12.4343 14.6668 12.4343C14.5784 12.368 14.4789 12.3349 14.4016 12.2575C14.2911 12.1691 14.2247 12.0475 14.1142 11.9701C14.07 11.948 13.9926 11.8817 13.8932 11.8927C13.8821 11.8927 13.8711 11.8927 13.86 11.8927C14.0258 11.9259 14.2689 12.4454 14.6005 13.208C14.8216 13.7385 14.9211 13.9706 14.9984 13.9154ZM18.4137 13.3959C18.4137 13.3849 18.4137 13.3849 18.4137 13.3959V13.3959ZM18.8337 14.7554C18.5905 15.0759 18.4911 15.4849 18.2037 15.7722C18.0379 15.938 17.9937 15.6064 17.9937 15.5954C17.9826 15.4959 17.9826 15.4959 18.2921 14.9322C18.27 14.9543 18.27 14.9543 18.2147 15.0096C18.2147 14.9764 18.2368 14.9433 18.2368 14.9101C18.2037 14.9875 18.2037 14.9875 17.9274 14.8217C17.8168 15.0206 17.8168 15.0206 17.7616 15.0427C17.6511 15.0759 17.4853 15.2085 17.4189 15.4738C17.3637 15.4406 17.3637 15.4406 17.2863 15.4738C17.2974 15.3743 17.1868 15.3522 17.1647 15.2749C17.1537 15.297 16.8663 15.5843 16.7226 15.6396C16.7116 15.7059 16.7116 15.717 16.6784 15.7833C16.6784 15.7722 16.6784 15.7722 16.6674 15.7612C16.6453 15.7833 16.6453 15.7833 16.6232 15.8385C16.6232 15.8054 16.6232 15.7722 16.6453 15.6727C16.5789 15.717 16.5237 15.7501 16.38 15.9159C16.2363 16.0817 16.1921 16.1149 16.1147 16.1591C15.9932 16.2254 15.8495 16.2364 15.7168 16.3027C15.5511 16.3801 15.4405 16.5349 15.2416 16.557C15.2416 16.5349 15.2416 16.5127 15.2526 16.4906C14.9763 16.6343 14.8879 16.9549 14.8547 17.0875C14.8326 17.1538 14.8326 17.1538 14.8105 17.1759C14.8105 17.1649 14.8105 17.1427 14.8105 17.1317C14.6337 17.3417 14.7 17.6291 14.5453 17.8501C14.4458 17.9827 14.2911 18.0601 14.2137 18.2038C14.2137 18.2149 14.2137 18.2259 14.2137 18.237C14.2911 18.3033 14.5232 18.2149 14.6889 18.1485C14.7 18.1485 15.8053 17.7396 16.0042 17.8943C16.0042 17.9275 16.0042 17.9275 15.8053 18.2701C15.9489 18.1706 16.1147 18.0822 16.2584 17.9717C16.17 18.1485 15.9711 18.1927 15.8274 18.3033C15.8826 18.2922 15.9047 18.2812 16.0595 18.1706C16.0484 18.1817 16.0484 18.1817 15.8716 18.3364C15.8826 18.3364 15.8826 18.3475 15.8937 18.3475C15.8495 18.4801 15.6726 18.5243 15.6505 18.6901C15.6726 18.7122 15.6726 18.7122 15.9489 18.6238C15.9158 18.657 15.9158 18.657 15.8826 18.668C15.8937 18.668 15.9047 18.668 15.9047 18.668C15.8937 18.7012 15.8937 18.7012 15.8495 18.7454C17.0211 18.1927 17.7284 17.408 17.9716 17.0985C17.9605 17.1096 17.9384 17.1317 17.9274 17.1538C17.9495 17.1206 17.9716 17.0985 18.0047 17.0654C18.0047 17.0764 17.9937 17.0764 17.9937 17.0875L18.0047 17.0764C18.0158 17.0654 18.0158 17.0543 18.0268 17.0543C18.0268 17.0543 18.0158 17.0654 18.0158 17.0764C18.0489 17.0322 18.1374 16.9106 18.2037 16.7449C18.2589 16.6012 18.3253 16.4685 18.3695 16.3359C18.4137 16.2143 18.3805 16.0706 18.4358 15.9601C18.6789 15.4849 18.6789 15.4849 18.6789 15.3191C18.7121 14.9543 18.7674 14.8659 18.8337 14.7554C18.8447 14.7554 18.8447 14.7554 18.8337 14.7554C18.8447 14.7554 18.8447 14.7554 18.8337 14.7554ZM17.7837 13.5727C17.8168 13.5949 17.8721 13.5727 17.8832 13.5285C17.8832 13.5175 17.8832 13.5175 17.8832 13.5064C17.8832 13.4733 17.8389 13.4401 17.7837 13.4401C17.7505 13.4512 17.7395 13.4733 17.7395 13.4843C17.7505 13.5064 17.7505 13.5506 17.7837 13.5727ZM17.5516 11.6275C17.5405 11.6385 17.5405 11.6385 17.5295 11.6496C17.5405 11.6275 17.5516 11.6275 17.5516 11.6275ZM17.9937 11.6385C18.0047 11.7491 18.0047 11.7491 18.0268 11.7601C18.0379 11.727 18.0489 11.6938 18.0489 11.6606C18.0489 11.6606 18.1042 11.2627 17.9605 11.097C17.9716 11.0859 17.9716 11.0859 17.9716 10.9754C17.9605 10.9975 17.9495 11.0196 17.9495 11.0417C17.9495 11.0527 17.9495 11.0638 17.9605 11.0749C17.9163 11.0417 17.9163 11.0417 17.9053 10.8317C18.0047 10.8759 17.9716 10.7212 17.9384 10.6549C17.9053 10.5664 17.8942 10.5664 17.8058 10.5775C17.7395 10.3564 17.7395 10.3564 17.7174 10.3564C17.7063 10.3675 17.7063 10.3675 17.6953 10.4006C17.6842 10.3012 17.5626 10.3012 17.5405 10.3233C17.5295 10.3343 17.5295 10.3564 17.5295 10.3675C17.5184 10.3343 17.5184 10.3012 17.5184 10.2459C17.5184 10.2238 17.5184 10.2127 17.5184 10.2017C17.5184 10.1906 17.5184 10.1906 17.5184 10.1796C17.5074 10.0027 17.5626 9.81485 17.4963 9.63801C17.4411 9.50538 17.2642 9.5938 17.1979 9.46117V9.45012C17.1979 9.45012 17.1979 9.46117 17.2089 9.46117C17.2311 9.6159 17.1647 9.78169 17.2421 9.93643C17.2311 9.93643 17.2089 9.93643 17.1979 9.94748C17.1758 10.0359 17.22 10.2127 17.3084 10.2791C17.3416 10.257 17.3416 10.2459 17.3195 10.2017C17.3637 10.2349 17.3637 10.2349 17.3416 10.3785C17.3305 10.3785 17.3195 10.3785 17.3084 10.3785C17.2863 10.4338 17.3195 10.478 17.4411 10.6106C17.5074 10.5222 17.43 10.4338 17.3747 10.3785C17.3968 10.3675 17.43 10.3675 17.4963 10.3785C17.4853 10.4117 17.5074 10.4338 17.5184 10.4338C17.5295 10.4227 17.5405 10.4227 17.5295 10.3785C17.6068 10.4006 17.6289 10.478 17.6953 10.5222C17.6842 10.467 17.6511 10.4449 17.6511 10.4338C17.6511 10.4117 17.6621 10.3454 17.7284 10.4117C17.7726 10.4559 17.8058 10.5333 17.8168 10.5554H17.8058C17.7947 10.6217 17.7947 10.6217 17.8942 10.7543C17.8721 10.7764 17.8611 10.7764 17.8389 10.7543H17.85C17.85 10.7322 17.85 10.7322 17.8389 10.7101C17.8279 10.7212 17.8279 10.7212 17.8279 10.7543L17.8168 10.7433C17.7947 10.7985 17.7947 10.8427 17.8168 10.9091C17.8168 10.9091 17.8168 10.9091 17.8058 10.9091C17.8058 10.9091 17.8058 10.9091 17.8389 10.9754L17.9384 11.1522C17.9163 11.2185 17.9163 11.2185 17.7616 11.3954C17.7616 11.3843 17.7616 11.3843 17.7726 11.3733C17.7505 11.3401 17.6179 11.3401 17.5958 11.4285C17.5847 11.4838 17.5847 11.5391 17.5626 11.5943C17.6179 11.528 17.6289 11.4949 17.6289 11.4838C17.6732 11.5501 17.8058 11.4285 17.8058 11.517C17.8058 11.5833 17.7616 11.6385 17.7837 11.7049C17.8058 11.7712 17.8721 11.7933 17.9053 11.8375C17.8942 11.7822 17.9716 11.7159 17.9937 11.6385ZM17.5958 11.1964C17.6179 11.1964 17.6732 11.1191 17.6953 11.0749C17.6953 11.0749 17.7063 11.0085 17.7063 10.9754C17.7174 10.8649 17.6621 10.8759 17.6621 10.8759C17.6179 10.9091 17.5516 11.1964 17.5958 11.1964ZM17.6621 10.688C17.6953 10.6217 17.7063 10.5885 17.7063 10.5664C17.7395 10.5996 17.7837 10.6659 17.7726 10.7212C17.7726 10.7322 17.7726 10.7433 17.7616 10.7543C17.7284 10.688 17.6953 10.677 17.6511 10.7212V10.7101C17.6511 10.677 17.6511 10.677 17.6621 10.688C17.6621 10.677 17.6621 10.677 17.6621 10.688ZM18.1484 12.6996C18.1374 12.7106 18.1374 12.7217 18.1263 12.7327C18.1374 12.6775 18.1263 12.6333 18.1374 12.578C18.1484 12.5338 18.1484 12.5338 18.1595 12.5227C18.1595 12.5227 18.1484 12.5227 18.1484 12.5338C18.1153 12.5559 18.0821 12.6112 18.06 12.777C18.06 12.7659 18.06 12.7659 18.06 12.7659C18.0489 12.788 18.06 12.9649 18.0711 12.998C18.0821 13.0754 18.1042 13.0864 18.1153 13.0754C18.0711 12.8764 18.2037 12.8764 18.2037 12.8764C18.1816 12.7991 18.1926 12.7659 18.2258 12.6333C18.1926 12.6222 18.1484 12.6775 18.1484 12.6996ZM11.7379 11.3843C11.7379 11.3843 11.7379 11.3954 11.7379 11.3843C11.7379 11.3733 11.7268 11.3512 11.7158 11.3401C11.7158 11.3401 11.7158 11.3512 11.7158 11.3622C11.7268 11.3733 11.7379 11.3843 11.7379 11.3843ZM7.36105 15.4406L7.35 15.4185C7.35 15.4296 7.35 15.4296 7.36105 15.4406C7.33895 15.4075 7.33895 15.4075 7.3279 15.3964C7.3279 15.4075 7.32789 15.4075 7.31684 15.5843C7.29474 15.5512 7.29474 15.5512 7.28368 15.518C7.23947 15.6285 7.23947 15.6838 7.27263 15.9822C7.31684 16.347 7.25053 17.0433 7.04053 17.0654C6.96316 17.0654 6.83053 16.9659 6.77526 16.8001C6.73105 16.6454 6.66474 15.8164 6.66474 15.8164C6.67579 15.7059 6.77526 15.6727 6.83053 15.5954C6.84158 15.5733 6.85263 15.5401 6.86368 15.518C6.87474 15.507 6.88579 15.4959 6.89684 15.4849C6.97421 15.3964 6.98526 15.2859 7.05158 15.1864C7.08474 15.1312 7.09579 15.0649 7.15105 15.0096C7.21737 14.9875 7.26158 15.1422 7.29474 15.2638C7.3279 15.3633 7.33895 15.3964 7.36105 15.4406ZM7.33895 15.3964C7.33895 15.3854 7.33895 15.3854 7.3279 15.3743V15.3854C7.33895 15.3854 7.33895 15.3964 7.33895 15.3964ZM17.1868 9.46117C17.1758 9.45012 17.1868 9.45012 17.1868 9.46117V9.46117Z" fill="#2F6E24"/>
</g>
</g>
<defs>
<clipPath id="clip0_1_4416">
<rect width="21" height="21" fill="white"/>
</clipPath>
</defs>
</svg>
